<mxfile host="app.diagrams.net" modified="2021-03-16T07:47:34.300Z" agent="5.0 (Windows NT 10.0; Win64; x64) AppleWebKit/537.36 (KHTML, like Gecko) Chrome/89.0.4389.82 Safari/537.36" etag="jE9AfB4V5yXGpn8gvqWo" version="14.4.8" type="github">
  <diagram id="xT5U9Do-XapUB-WTChBu" name="Page-1">
    <mxGraphModel dx="1353" dy="737" grid="1" gridSize="10" guides="1" tooltips="1" connect="1" arrows="1" fold="1" page="1" pageScale="1" pageWidth="850" pageHeight="1100" math="0" shadow="0">
      <root>
        <mxCell id="0" />
        <mxCell id="1" parent="0" />
        <mxCell id="AwzTjOcbdcqCAVqEX9hw-6" value="Wireless&amp;nbsp; Router" style="text;html=1;strokeColor=none;fillColor=none;align=center;verticalAlign=middle;whiteSpace=wrap;rounded=0;" vertex="1" parent="1">
          <mxGeometry x="460" y="653" width="40" height="20" as="geometry" />
        </mxCell>
        <mxCell id="AwzTjOcbdcqCAVqEX9hw-8" value="Internet&lt;br&gt;" style="ellipse;shape=cloud;whiteSpace=wrap;html=1;" vertex="1" parent="1">
          <mxGeometry x="512" y="750" width="120" height="80" as="geometry" />
        </mxCell>
        <mxCell id="AwzTjOcbdcqCAVqEX9hw-9" value="Network Camera" style="shape=process;whiteSpace=wrap;html=1;backgroundOutline=1;" vertex="1" parent="1">
          <mxGeometry x="260" y="810" width="90" height="40" as="geometry" />
        </mxCell>
        <mxCell id="AwzTjOcbdcqCAVqEX9hw-10" value="" style="shape=image;verticalLabelPosition=bottom;verticalAlign=top;imageAspect=0;aspect=fixed;image=data:image/png,iVBORw0KGgoAAAANSUhEUgAAAgAAAAIAEAYAAACk6Ai5AAAABGdBTUEAALGPC/xhBQAAAAFzUkdCAK7OHOkAAAAgY0hSTQAAeiYAAICEAAD6AAAAgOgAAHUwAADqYAAAOpgAABdwnLpRPAAAAAZiS0dEAAAAAAAA+UO7fwAAAAlwSFlzAAAASAAAAEgARslrPgAAgABJREFUeNrs3XWYG9f59vHvMyMtmRliWDAGHGZsmLFpOGmYmanhhqHhNG04aZgZHWZ2wIl312zHjAuSZp73D43c1r/2TQO2HOv+5Mp1VjCjc8Zarc4955wBERERERERERERERERERERERERERERERERERERERERERERERERERERERERERERERERERERERERERERERERERERERERERERERERERERERERERERERERERERERERERERERERERERERERERERERERERERERERERERERERERERERERERERERERERERERERERERERERERERERERERERERERERERERERERERERERERERERERERERERERERERERERERERERERERERERERERERERERERERERERERERERERERERERERERERERERERERERERERERERERERERERERERERERERERERERERERERERERERERERERERERERERERERERERERERERERERERERERERERERERERERERERERERERERERERERERERERERERERERERERERERERERERERERERERERERERERERERERERERERERERERERERERERERERERERERERERERERERERERERERERERERERERERERERERERERERERERERERERERERERERERERERERERERERERERERERERERERERERERERERERERERERERERERERERERERERERERERERERERERERERERERERERERERERERERERERERERERERERERERERERERERERERERERERERERERERERERERERERERERERERERERERERERERERERERERERERERERERERERERERERERERERERERERERERERERERERERERERkZJmxa7Ab92y1/U+s881sNazEy8afx5MdajYBvvmg/639l6bmvh9i7iRPpzH7exIii50ZDqQIyIsdu1FREREfoMs+T9DQCvQh9lUg91qo/xQZkfH0d2v5Ltw5/ChcCPm2iEca5fBqJdGvTLqlWJXfvGpfap62+ptIdzJv4rGQbwTnfgjod8fxKlhDOZCX9cm0oOJfMYrGGVU0Q6IceJi115kEQnJEgJz6MEcYDmbynK0sLmNZXNG+tx4us9lOlexPFdBuFHqD+FGMOqYUceMOqbYlf/lFAD8jwbe26/fwHshejl1anY0KT4KbvINydkh0QbhKRzPfbzsfws+91NZzW4P5tOZk/0072Ev4basv2Yf2aN+iX/NGMbTjxTllJHRR6uIiIjITxbjOEYVThXO57TlU1I+yD+2D+3vDPPH+D74K9/Zcv66b8BBHGnbx+9WrVT2TqrFx5ff539pXZbm2dnc9PCP2PfXNazTsA5e7Gb9UgPWrb2h7jBSNtCq7DZyuROinaOubG8/0EJjMNf2saG2UzCbYXSmV/ymvWGxp3w+K7ELfyTDfGYwg4AUIcFv/3iILCT/nm6ljBwBfZhAZ1r9PH+c6bY3x/sUNrMHabZqq+FKhvgHlMVXxZvllk/t6M5GwWXRloTBUWF9/ARx/fONtzTe8tv7PVEA8F8MPqDvpX0vheyn4SvpDwj9Cq+1cqJo3exfopvpmXqn/NBgv+AbduNv8Sn+Lhvzqh3oWzOOXoyjQ8M7jSs0zmV2sdshIiIiUmqWObbfc4O2IWhZM7qYZ4in79lyb/lTtKldrt0F8+aEHe0tDrCyeChv27ec5S9zJO/5/VTYWvHlwdG0jHpgTLv6t4rdih839N0hhw75AGteq+nilicot+FBV3uSlqDVZthhwYrBSZxiL/mr0bPWw4/wLnzNtpTTofPNzTekujP7o8cn3fXd0GK3QmTJULdDzTG1y5OmmkF8T5Z2lPsM9uQp7rR9w+HsaZ/Z/tGhvrZX+UacwxCW52vKgvvDHYP3yPxWRggoAFjIgGurz6s+D/wvtA0OocIfZTq30GLb08AocpYOXrK5wT/iXctuzPSJ9wkejqv41l7xadlbUjcOG0OO5+zA3+3Bxj6OpiHrMpwezO30njcwnm6p+0iTJstLSW7dt9jtFZGS15KUywNOEO9PDHh8OEaMWz+MEMLhyfM2SMo5SZkqdgNEpGTNw4GYrpSTo9KPt+VsY75vGu0fM9obxn9ve/p8pn7wF86w2N4d/h5rBRvZZbOy/CE+0Q+1zXiNP/su1mqXBGuEN8RvWB/7k+1PKrdX5ppMI1Hj7LFXjtlwyTvDN3BAv+8GBATVL6ZmDtmB+KXa2fc8/RjUjmt3b81twWnR9/HzcSreOHch3YNt2Lx8tWCGdRl2vt3NINpscShVthblQz7yL/0NVulwDxnmM9NWJSAgZETS4p7FbqfIIhBjOEYDOdLk2IYO9juqMk9aDW2ZOaGWZRnF1Hem+l/iz6l7cU9bnyaOn7elL8c8vyC41KqDR2wjv5w2vMsPPo2YdqSpjDN09wqaG//W+LfGvxW7mf+dAoDEgiH+H4QzcqtQwQxyDKCFQ/wJu8SW5VLbwzewLgR+etw3fpPj7Onwy80ytpUPZ9ez76CrrU75eidjTKO/zSJNGfN4kZCYgM0JCTTgX0SWWAZEQAZI4aSBmHTyaG7BfNsl7muwiAj5zyYHInKkyGFkiNiMgJCA1+hIGU0/xKRYke63Pswd/qQtf8VZfrW3iatmf2+PBvvbc8FrlTUdril7If6dHUlPXiKY1zLzlda2eOPBY4Y2Hlz8T8C68uo/1JVj0UvhBXxO6C22ml1LLnwoOiw+PpjIDn4KW8e97S57FobM41FOYPLl5fSmki7bbEJIQMpeJ0UKeBQjJMvOGKZegZQsJwtkkqlFvQmIKGMaXenJ/Amr8Rnt6X3xX+PpcUPZhTetE5wefNxyjvfhaY4PvyLDMNoz38cxmMGsT1n9xY1H1b9BptjN+m/0q56ou7bm9ZqPSTGV9kwhx0D/1v5o/WY90+Ok5rV9uc6dJx5deXjZWvGL4Sk++Oqj+MFWtt8f0ZnuzGIadxLilPMwENIalePEhH4NjuH2fvIno33ycoUoQMdfRIqlIv+55J/mZ3qmjqUDTu24Q5hPObOfryT0j5hXfSVuy9Gy2YY0ERDEM/LzQn2zZD87JGVU7AaJiCRB5SNAgPka+RGX4YVEGM7zxGSJbTBrUk6/hqf5HYf5q3v9QAfet7bvHcQYvvLJYU//PRfYW9FkZtKBrlSmPo0uyZ1F83eHj3157MuLv1m1k2sn104Gu9A/9JGURbPT97bWkgn2yb1eflXwFG+wOvPi7WySz7GddtyBz0hx7l0tNFPPjHbPk8GI/R/5z/34chwHxpGPTR5IXqbwOa7vqVIKCoFemvx7/Yv8yQ7vng8Ug62JgNg+Jiam3Dahms70f+hjWzVoazvve1WwRfBxeGPLfdFLuadyezLFl+cGH0F3RhNg0HB+48ONdxe7mf9Xyf9i19bU1tTWgO3nQ/0s0j7O/0aaxyZsPrti4qts2/vGDg/0eqfshuAbdrD3HnqRLraerbf948REzInKiQgoY2a+ox9eBzjGAcnuuyVl4Q1W8sdbRJYIDr4bUIbbA6T8G2zcA1xGyirX299uxHzjsc3xFvYka4Bdx46+5cU9CFjG1jptMhDi8Sn5/QSHJvusK3ajREQWUpjiND7/DczPyt+M/koLKaJUe3oQE7WsyRRS/u32g2xl9sVfusdvYC07KHgt3CDc0a6Lfxe3Rj3jGaRGTWz8vnEIucXdkNorqvvUrvzP23Yn37JM8ArtrR918Sak/RtGb3wMk211pj5/KM3EjEkvQ0Ca8mgYAUD4+2Tz85KybVLqe6rIP38PCmfuZ+UDgbgLjhFHXxLQTEt6Zf8W6H7/h2yQvaHlhj3WsKNDT69nm/G38Iz0dV7Jk/5EfD3P11c1DmkYueSNBCj5X/SBA/q/VXMuYXxzaop9yHL+Ws79T8HXPgQninPB/baLHXNzFz603kw4dBodaENV9iwiIjydSo7gucnuskmZ/jl1ERFZfKJkdlp4EI3+Pf2vNPpaT+wkmEnAZ1Ub+0Df1Mc1vcqqNoLZvd+z55hn69SvTAVOUFGWnCNaLdnhR8VukYjIf7HwF/vy/Bzg6JH8GgLhLsyjnKrp3/i37M6q686iiun0HLmOleN8ZZFfQVdfzVMNJzWe13je4p8KUHtm9cu1ZxKyNxt4d+vAe/yNf/gMJtOTWR0a7XLbx1o/MDrSGx/Un4AcYfRW/kxmuF6ym+akrCzuP4fIb0JhREyY/MbfTkgIubE00UQqdY7f5iP96cMftd1otVNu3oUuOBVBqw+gg38Vd2h4YXRZ45cLgsglRlDsChRLf+/v/R0yVek/pV8i4ID4VD8puMseDA7k6zhnWwVP0W77Cj63OkYdOo1OVNE+bktEjjjdfaGOf2GolDr+IvJbMYgAIwCfZn386S47cT0ncSiwHwexbfZNq7d2BGC3shlR9ypSpIjLJyaLmBasUuyGiIj8iMInVnlSNicjN3fJ38w1046IqMtQ2437/IarBkQH2evhw5Cbxybht94cbOhH+KnsXndm/xF1uxTh+7PxKY2U2f12nt0d7GwNNsEisIftEut98BP0oZpgUH+cVoLc+wt1/FuTUh1/kf9dmJSF7zz7ExNDeB+VhOTAjrJtbM2TtqNNcIjv1/YvtAa7+15xuX1nw3lpyb0aXMkGAKkVUiukVoDU8tHkXAUXN98SX53dIt4uGhjfHFeAbcxntsspm5EmpjOQIyZLbbJISuECD4UEuGSPo4j8JjmEl+D52fy2Ms1Wt+duPpQrOW+/Xv4d19qO4XLsRT/bpfoo2vEIvf5yN04zZtVAAPF1yb5uKXZjRER+okJHuAUwLDWKHDGZ+FPGMt+Gbd0t9ZxPzb24xSmpvX27aCJt/WzrEXQJTq6/aMzy9Y8UYVnnDziY5dk1tXrw1/ioiPB5+9C/BEb6O4zc/WyaaMKBgBCCwpn+Qse//Oe9qIjwzwAxv5IINpIcAR73p4op9KpLc4CPszd+9wybetquA9biEts77Frsiv9Yg0pW3c417WsagrPpQgUV8QXENDFpzWF8SU/b870zmEKOLCuSH+z/aNLlPyXZ/Mcuf1X4A1EICObmC98dMDyuzj/qpyy0XdFXmRWRpV5hUdIrcEICO4wyAsKgmSZy9BxbQxNNjO30Fd2phPYr0wqEudUBiHkh2T75XNPnlogsMoXvUTkMJ7YhxIDZevlvskFt8njhwls/dUpm8vzoTWIC4nBj+tKHrvdd7q/Sz8/c6xQicjQFc63BZ4Qj4sH1Q0e/MOpiJi6uA1B3RE1FbTd7he5kyPkmhMR4/6k8Si2dPs8wC7AOvZNFWmflt7LC57xOVIn8epI1QKLbkilEh1DLSky4ZDbj+JbOp3ckIMTDO+u/aRzRMCXar9gVXljJXr+59pS6IbWfUs7D0VfsGFxKztJYDBPYnb4bbcEyvEOO3SjD8NxEHLBU4cz/jx23whyzMgCMYwlworiCiAAPbseJKA+7ExIlF50AfUCLyOL3ZwLyf84KX5nLgO/7Qzlp0qxMc/KZFgBx6sOFtu9c7AaISAkoRIwx5ZQxjRRGK+2JiHH/E4ZTWJkJKzy7KSmrfmTvyUVOgxsAI8XGzOETJq5VZ494X5rbGU10pmpuO4ZzXHSC9QBe4OLFmHs+RcwA+xQnJl143a6TSdPK5A7LE1BOllfyrbHCmiynLr4KipSMQn/tWcAwDuF1xvr8fofRFbdlACdHzMbFruh/U7IBABZvzx/pyzXUMyY+iKk+joDT/A/2e+Yu+5CtjuNcRgbD7JHkT8pRP7LXwhn/Qsf/NWJiMvEfaSFN22BlupGlfMyulNHL3xo+mbGsbDtNvYB2pEmxUXL9yQnJfmYU+zCJyFKvEEBWJVeBfik/jNRfIiYm5qH8xWxsTPL8+QttX/IjyURkkQmIMQJbj0pyNPlZ9OQmvz+9I2+Qsj1WfJBaujF9vQvIUcmclAMxgV+V/2SyE5L9/FgQkAIMbFUC8mHDHMqxmpN8Ndqzco/HbAhbsMzcHYmYRxnfJ9u1ZzHxMf41n1BLhnlkAcfx1A42wDZhGeqpopJydiUmh5MPMkRkUSgEABPzi4kCXRlj/crmUUZl8injOB0AmF7s6v5fJRsAWAff3T+ig4+w9+0QX4taxjMXbFfeZ3iXWbRQQwcgRYTbmck/748FAPkhIcYTxDgZHqcn7egeZP0p/4i6Cx6jxp+w7heNjeuZb79v7R18bC1+AvMbthp9RMNW+rAWkSWOFjcVkaIbdOsycwbdyhXZKyvOaZ1gp8ZPB+/6xR6Fm+WOSzWsubEtQztuurM9HZnOuMFzyJAm8B2TObuP/48vszxOjLMv5VRSaQ32CRNtm47HcAQp0kDITCI7lqtgcc58sl7U+yhiYqYzH3BiYq+nLa22IeAEVCZz/XNJxfStUmTxaEdH2vI98YKTKku0kg0AMJ6yTgRMtRdZnzF089doBgLfm3R4Alhh2EYESYLz4x+l32NAFM8hR0iH4F7mE1N+zmN8Zyf41ec/xLn2gxM8HlT6mfZdcIOdywdea9Pq+ldfVfMNN5ImIMj/ufofXk9ERERkaZQfkxSSI0sUncE92a5U2Efxd+EzPJfKRCf78n48nzOYA99f1zJ8xCFbzvBya2XMO5vQSk/Ker2CkSPr5+b3Z+cs2Pd/FgCG8xU5soTA8zRxQ/pmxjGDV4CQDGX0B+DCxXg0slRQgRFRlYw3jYmtC06ALTjHWDgRpe+PIotTRERMYS2SkcWuzo8p3QAgSweyQBvGUUFIBVOIgJgynCeTZ52dlD++2qsB5ruSAeLga1YmoMOoFwxfOfjhytu67tzUvdvGMG3tquN+eI2rU4+n+s3ZMB6dfSx+pUNHetg2dgu9yDCLHK3kV3ENf/RVRURERJY+RkQEzKGMDsDBfj8/YLaP/z2CcnsjPiw1lmN8lfCLePX0XM+xItePbkcjH/qMy0fRhdCWuwqMHBXx6sliXT/2qvmhvb6gI51s7+cR4KQ5I1lrIPqxHS0Cnpwc+teyMGFBRIrvN9NzK90AwIgwCh1+Jya94AMVqv/Ps3+MY3j0OSE5Uin4nu58/8rEeDgHxJ3mPz21a1X4Q/fwCXsmfDyeGu2XuyvX0mEj4obeo/9UP4fxAMwp9kERERERWQL9mVUAamtq29bWAL2DAX41U/wRdvTLolWZQE8mAWWsStOre9l2PE8uOp0ONEO4AxEhsHOyt0d/5NX8X34yYuoWXAnc+edVwUVEfoNKNwD4dUXk/yRcRIoUxrlUMZMeU7a0zexo5pMfUDbJvmbdaPPwFubXPzz6L/XfFSVBFhEREflNamhsmNfQCAOu7R/2P4VWjranw4v8YDoQ05+TCSjn3elH0JmY7rNXpZWQOZ3zp3ICT9ZyUv9dREqXAoBfR5z8150KKqgENmc9NvIjmMQsZgL5GVmVZYPDle2NBRfbEhEREZGfaNQxY2yM4XXjax6tuYfANmYlvgYqKaPJR3gXdrDxLM9YptCFPpSRJpdfO1/9fxEpZQoAfl3ZBYPG5tJCM11wInIUwuZ08wnRgblvil1NERERkaXAFKZSDYxhHABVlJOhjCFEpGjHv57u1+J4IiIKAH51hT8tAUbABBb6wzM6Gh2N1sB/ERERkV8uRUgGKCNNa1JmmE5+8uXshZ6tBfNEpOQFxa6AiIiIiIiIiCx6CgBERERERERESoCmAIiIiIiISGGR6nSyXsJJ+WUT4/yUioB/JI93TMpcsSss8h8Upl+H+cInA44HxyUPX5M8XpiUHSy03VJPAYCIiIiISOlqTspKDMMcIrI4QwgISAcHYUS0cj2OA22KXWGR/0GMJ1GWUU7ILvkuvq+FE+P23oLn/bulPghQACAiIiIiUroqyXd6/kqWLFk7hE70IswcylyaGPfZ3rTQh2HNd1FJCoJbiXHwe5PttbiiLDmcTsQEpOwPVNLC3OhuWvmSuQM+pBUn1+c9ymhLOVuRDwmeK3aVFzcFACIiIiIipcrojmPkmEInAmqbjXZ0ofuOQXxQvHNwyIuV9hEr+hRbIVg9PDk631tHHdkwYvS3LFvsqov8J3V/qz65Zn3eDs6L50VnURNfHowOm6tirrW5dsy9xzEZ6Lbjc/lz/fGe+a2CO5LNy4pd/0VNAYCIiIiISKnyaHsgIgwhoCuTb3uVb3mVUS9uHLS1O+IoPI7fRZfHq8cNvl90hj9kI+oG96nuP4BB5Ii0EoAsYWIuzhHDUXFdODQ8wZp4wLraU00BdfSi4vQPmM61xNtMIkszlr4PIwA2SLZ/o9gNWNQUAIiIiIiIlCrjDiAgx98I+Jw1Z/SnkoH+d+BAO4AP0m+yZeqb4PJcZ7bmfZ5jAE5O1xKTJVS+O29M5UPaMiWo8jl2KJUZGOJz/JWZZTaX2DbO1NMGI0j3Igacz4pd8cVFAYCIiIiISGlyPNgSCAmBHG34eK+2frjPoOyGz+0NBjHyhxWZwGl+nW1Y/9noQxr7+OvFrrTI/8+AE6srazdk+bg86OQvBbuQ43CyPGINxHQ/9G1CehK1OQJoIYz/BIQQvF/sei8uCgBEREREREqTgT2NEWE+lnl0Zk5tP7vVyqznW5vTzOte98jT7OS32gotu9StU71f7cp2CRDhXJzsQ4sAypIhv+p/D4/JMJ1LrMX72N7RuYxlVapW2pEqvuDrHUczn2bKgJgQD1ZKth5a7OovLgoARERERERKVwsAbv1wIO1ZIEt6wFAq6WzVp27Dy7YaaeYARsuCRdJOLXbFRf6/nC6MYSsyjCYiYB6dwT8iJML4MHnWzklZuBzgUj+5RQGAiIiIiEjpKk/KQhBQgeHgb2FAOh5EjhTO4cnzZiXlUn+9dPlNKoxIqUpufUEax9gbJ4JwZvJ4svo/2aRMF7vii4sCABERERGR0lXoyFcsdPc4HPAwmw8EtN6//EblI4HC+3vh4KpkOv4FCgBEREREROS/SS9Uishv2FI/x0FEREREREREFACIiIiIiIiIlARNARARERERkdakLCwK2C5fRBOT2w1JWeg/xP/TXkUWr8Ic/8L7dBIAbjX5R4Meyf2VSVkyq/8XKAAQERERESldzUmZ7xC5z80v+mctOAFB2I4YiBkIgCWrq4ss2TyJAobgOGWMIyAm57sCAW4PJ8+rWPD8vKX+6hYKAERERERESlclBjgHkAMq7DackMzcjZnLHII3v2JD5tJj9hu08fnMCh4jJiD0W5PtdXUAWTK4GW7DKPcsZT6Cb609o+0mJrOsT1zhDgLm2+BlpxDTSopr89uwR7J1t2JXf3FRACAiIiIiUpoM96+IiCiz26igF9/M6srBbOu5TUZ5e6Zb+086MZ+JdLW/VqzAO9mv/M2vNxm9/jijutiVF/lPam+sWa+mLQ+Xe3xc20sZ3dIp/VSHmUwNXs59NeGF276h1vrbDvsfQ5YyMvFOGI4Ftyebdyx2/Rc1BQAiIiIiIqXK4iMxYrLhcNqyBQNur+RPPsiqP+lk67MjK6av4y2rY1Z8dmvKPkpv6KPqOtRU165DWbGrLvJvCoP3T2IK0JKJ7YL5dweb2rzcD/NWzz3kL3CGHXPh9XYYOXJ7rkk55Vj5YzgOLJ9sPaLYzVjUFACIiIiIiJQmBxoxQhyYzEt0yoT0s6v8PeBt9rRt7G2/hq+9Ld8wki7Mto+oJEuKcjy/WoDIEsHIkSImR0/GAQfaIM60W2xv/wtrAdXE8ZeZfani3mDD+C2yOJ3IBwcRs4pd/cVFAYCIiIiISGlyCE7GSBEAAe/x/X7LsbrfweV/a2IMG/jTo+6306zOOtuK9dMao4Y5fnqxKy3y/1OzQU3nmmfZOTWM48zj1TnLPuJF7o934wHb7ITBpKmkY+WaZMgSxbtgGAQfFLvei4sCABERERGR0mRgRwE5nAHAIDr3HMWrdjpHvVXFcpRb+bMv0ccbOKZpbl3b6lytB9sTY+BXJfvQGABZUgTE9MK9lTfttPhhW5t3ownsT3dmrLgN5bTQYf2OdMdp4RMCAiw4L9m2d7Erv7goABARERERKV3NyQXTRlFGM+aTcMpsjR7tmI5Tu/+mTLHNeIjmpKu/U7ErLPKjnGsxOpLC6EsLAbOBAPMTyeGYnZSsGdBrwRZ5ugygiIiIiIgstSqTshUnwC3fIWryv2FAEPckTYYKfzJ5Xruk1OX/ZElU6MCnAMOZTA7Dg8vyK1YEVy7U8Y+SMix2xRcXBQAiIiIiIlL+b7cC2y7/QzgZx4iLXT2Rn2VI0uHf6L88XjId/4Kg2BUQERERERERkUVPAYCIiIiIiIhICVAAICIiIiIiIlICFACIiIiIiIiIlAAFACIiIiIiIiIlQAGAiIiIiIiISAlQACAiIiIiIiJSAhQAiIiIiIiIiJQABQAiIiIiIiIiJUABgIiIiIiIiEgJUAAgIiIiIiIiUgIUAIiIiIiIiIiUAAUAIiIiIiIiIiVAAYCIiIiIiIhICVAAICIiIiIiIlICFACIiIiIiIiIlAAFACIiIiIiIiIlQAGAiIiIiIiISAlQACAiIiIiIiJSAhQAiIiIiIiIiJQABQAiIiIiIiIiJUABgIiIiIiIiEgJUAAgIiIiIiIiUgIUAIiIiIiIiIiUAAUAIiIiIiIiIiVAAYCIiIiIiIhICVAAICIiIiIiIlICFACIiIiIiIiIlAAFACIiIiIiIiIlQAGAiIiIiIiISAlQACAiIiIiIiJSAhQAiIiIiIiIiJQABQAiIiIiIiIiJUABgIiIiIiIiEgJUAAgIiIiIiIiUgIUAIiIiIiIiIiUAAUAIiIiIiIiIiVAAYCIiIiIiIhICVAAICIiIiIiIlICFACIiIiIiIiIlAAFACIiIiIiIiIlQAGAiIiIiIiISAlQACAiIiIiIiJSAhQAiIiIiIiIiJQABQAiIiIiIiIiJUABgIiIiIiIiEgJUAAgIiIiIiIiUgIUAIiIiIiIiIiUAAUAIiIiIiIiIiVAAYCIiIiIiIhICVAAICIiIiIiIlICFACIiIiIiIiIlIBUsSsgIiIiIiJLDE9K+/fb/nZSHoDj4Fclj1ckZVzsiktJKrxPYwwDuuXvs96AQ/Bs8vgBSZlLypLtB5dsw0VEREREZIFsUqbJd6puw4khvhoAC27CMGL7jhRpIMIwnLDYFZeSlw8BnBzGbJwMTgecgCDeM/8etWUBB/s62aYpKauKXfnFTQGAiIiIiEjpKpy5TydnUN8nJsLiTUmRIgoOIMSwmX8gxujwcT//2j8nO/sZZjOV9jaMFGkiXsqPDKC12A2SEmEEwDAyNBFwn3W3ocwOjqYvm9Bl0DiMsfwwtJYUc3FrS0yI+50Y4LZfspeSCwIUAIiIiIiIyLPERDiHEFFJFIynnHVZ47q9/GXSHp83MdzJdrEJ0/vHEWOp4IvoUz8q3oKVRm8y+uXR52oKgBRHzXc1Z9c8zA6dn5i/eZsjOGb89p3ennGHzWjTI5OreGPL42lLV/52wxmkMObW7EgOp9JPTIKAK5PdFN6/S/0aeQoARERERERKVzMxThRfR3vKaR+M51va0PHih60Ty9ofzrjPDqK/rWJfxtXxOvHHth/fBW3ZkIGpy+1P9gaNA4bV9qt5gRQhKcUAstjkaCUg4gjaMp92Mx9vc2LTFJ5p80jmvYrDWY2pfMKw54ZQSw/SW7ZyKJvS/82pwDgmdr8SSJPyxwDHbadiN2dxUQAgIiIiIlKqzIcBEAf1zGEO7Ub91f7KJ8FFFx44ar/GtqM2oGddr5ojao+217wbk+3jOMek+DZuYCfvyU2sRoZBdKIZiIgWLMkmsqilKScGRnM/MYGtwIocQRR/Zav5RcwMluc461V2MK087d9/V07Ov7WjLt2LtvY7Jl15T34ncXW+DMcke+1f7GYtagoARERERERKlccbk8IoC2EU7fjuhe39eQbGpzSl6vatWb121XCX5j+2VIZnR8dW3lCxTm4eAdcH5wXH80X9E/Uf1F/5y6sg8mtY5vpeey1zPZS/Wf73suN4nw1tV8ZkX6QzYbAxtzKeDv7Gc0/xGQEbX3I5WWBW+mQMCFk/2c2bxW7HoqYAQERERESkZPnZxMQ4sByD6DmplVf8Ib4GMrQSMbiyd8Uj0YP0rH+gcZXGo5hU7BqL/CcTjpo0fcJRULt19ZE1j9BCf8p4gh0xcn4eMJQ5TJlyA59itLRcADhB+uT81v5avlz6h7AoABARERERKVn2Ivk+wUHM8ydoqWvj39nmONgw+vsMMuwQvOz3MaluUs3JNc9RnrsjvizektYxNsbGLP39JfmNqB1cfUXtYKzTiR2+qXgNn5mdvXrLcFuBCj4l8NdYnnpW6Leu3UYGb/M+ZcnK/04MtmeymweL3Y5FTQGAiIiIiEgpcoBgFilyBMBMW4cftv49F7GSv9Htkvh65nHU1NOCLeO64OlUb0Ia/ZHcW+mtgnWCrnw0oE/NMjUDiSmjjByOJRcCFFkcYlKkMZxJzCD2x3iKNnSatf6clVtusjJbwT5i19RJvMskBmVgY1/Wj//9p5RRYWsEO+c7/tHV+Z2Ffyt2cxYXBQAiIiIiIqXIAOwkcgTk4t3oyVSqewznEh63La88KHWQ15eduy8MsNXshdzh0Y3MbK7m1vo1Gz8fPZ2LAZhe7EaIJJbldaZDbWP1P2qH2TDmMJkvM18w0vbk8w1r7Whb1m4/6QPa05M0O+NksfDv5H8Tji929RcXBQAiIiIiIqUrhwFB8AAtOPM9sIG0J9wnjqtt78wFXXcgxQD8rBttYw6xw74ZOay+9oQeK7e8Fr4a359bieNsrP3et2U+pzCHi2gpdoOkNPhhrB18QnUwOj4m9zQj5n4YPNj53XCvaEtbyXftdIY/47FtutcbdjTt6X5+Cx1ZhvKyP5KlhdgjDAMbUdhdUi71k1oUAIiIiIiIlK5wwU/5DtFkYrJU+VFM5kuCra5nOllyW0ylD2fau41Hzz/SreqHWVuQtV0t5BKMgDuYw050BOYWu0FSMr7FWInK4BC25URWppwBqXoyPtTurR5sWzGBzh3m0p4M8/00ssSEVCbv8+ZkH4WystiNWVwUAIiIiIiIlK7CGc8oKbsTEBDbFTQTE8W1tCeF2cfkmEuHugP4isCG0oRhDEoWUhNZ/Apn7UNgTwKyZAEYRUBAQJpsvDoQEtqfk3f6Jck2JdfxL1AAICIiIiIi4UK3ywgwLGhIooHrMQIiv5RyIPL9k+ct3J/QMoCyOAVJmSE/hmV5oBxsUxzHguHJ44WgqvD+LLmOf4ECABERERERWViw4Kf8mdOj8j/bUfku1FI/VVp+uxRC/X8oABARERERkf9VYarAvKRUZ0uWBIX3YUVSluwZ/h+jAEBERERERApySVnoJ7wPGB6/huGE8YoAuN2EEwDtkudlk1JDA2RxipOyC+C4nw/EuO2GY1jwWHK5y8IUl8L7NF3siheLAgARERERESlcvq8Cx8GbgICYjTAi0kEzWYyWYA4BIcZWBDQn3X11+mVJEBLQilFOwJOkiHA2JQdYfDzgeLBN8txMUhaCgJJ5DysAEBEREREpXYUz/knHnz9RRpqAt3CaKLNmjDKmfXyyv0YX/2j47jaUmHjmLfTxG+njl5ClK1kMI4cxvdgNkpJhYBsTkwHfnW6sal3KDmIS5bQZcgUzrYbuW21Lb3LMab8NWcop840IcLDhyT5ak7K82I1ZXBQAiIiIiIiULsMBYzPKcXK8xHjSpFvf9tEMZJ2jDg2PrqwL5/z9r353tk/Uh6r4suwczzKv4cjRWzSW0aXYDZDS1nfZfh36X8115aeG74e/t3/YObYuc3x8dE38gqf6d7Kj7Bh76o6z6MBkajeaRwZojV/HAAs2THZTmEoQ/Lxa/HYoABARERERKVXGcBwn61XElNPZ8K+J8CM/t+/ozLa3/TVepemsqE94k59gtT7X7rautj7lRHWDqr+oTdGLHJ2JKccWLBAosjgYhhGT9aOZ6odTx1BO8lb/kF09bbvZAfb3MUcymDrSO7zHPBqY8E4VKSrouVwTYOQ8f+bfrPWXVeW3QwGAiIiIiEhpcjyeilGGBU/g/in+0c7dzhndZusut/0w9W+1Dzy9fbCdbe9/C/4S38OEzO/tbX8n3iyeFd+ABY9Vzrc3oT7TMKxhbV0NQBavgaf0X6v/WpA9zVYMXybodGo4JrciJ8zYqGVVe4X2qYvSLcHI9F/pSl/rM2ctxjPFb7l0GD2otlPughxOhR+OAbG9nex23WK3a1FTACAiIiIiUrL8z0CMsTsdmUXf186f9nTNac88wAo0+602wQ4NuvvFwenxq9mL0o/lZmGjq0bvN/p4HHiJtYtdfylV31825r0x7wGX8R5bEoc71E2u2wFSI9KV3pUWNuJQn5lroDvt/FNgO7ai9Y2/8jeuJWhZEcjgFZ+TXwCwLtltfbHbtagpABARERERKUWGgb9KTI4UsJzt6U/OW9Of9RdtK2AWGaroGe8azIjOp8pGMsxGMr/Y1Rb5T+qfqH+i/gmo3bjm6ZpmsnY9KXuaB8nRhU7gI1iGXNOddgPXU5V9ngCntQLyvwmNxa7/4qIAQERERESkFDkGNhcjIqIr39LR1l5hEO34wt/iM4xPrD0rR5OiSZZiavBs0JMxVAy4sf9t1bfQMuqIMQeMPrTYjZBS169fv379+kHZ2OCodB9C38EfYBMiHmNf7xA0M5OpTImwQ5hM1yEjSNtMona9yNEWeBcjBk4tdjsWFwUAIiIiIiKlybGgB0aKDDCFr+m45Wk2iEywzKCbGMuaPue7HcPe4QVcmj6G3/kyRLmTfEJwd3Arx9ZdUrN37SlUMI8sc4kJsKV/DXVZYsSAE1CB05acf8s0/4b27EgDI4J3Sftoegfz+I4z/PoIQhtgm//xfTIYHcn3hMui13HAw4uL3ZzFRQGAiIiIiEipcivHiSmLx5HCGNl2N2Lb02tuXde3iUey4g438DQf+/WzLmEndrSd7f6GXRpfa5jlU3gN+KjYDRDJq/um/5F1bzDE54Xp+Ir4WkK7Dos2tx29xY458F2mM5VOB6xFikrSvIUT42Gxq73YKQAQERERESldufxaAEFfYpzQy4mIGL9BqzUGNfR//wtOorfte2lXHvcvGPH6mXVH1GxXu/3sIzmdTbjaujGFZn7wr0kREjKv2A2SEpEFIluddmTp5vfzARv6M+nj7SBfj0dqh9KdPtbjkA3oSHu67rMJzThp4vwZf+5I9nJKsZuxuCkAEBEREREpXeVJ2YzjuLVSRhkVXk2GkEmDBvEU82nz96lEdjebRK/TgY6UtfRkf37gLG9DREzMsRgAc4rdICkpe+SnnnjIFO5lRtmGLEM/u78cQtJ053Xm4jR7N0JiQn6fbLdbUmaSsqzYDVlcFACIiIiIiEhFUrYkQcBonCwWf09EhgxrYbTBw/eYTgutbcYzlSZmL+g4WbEbICVtPiFGyKYEpEj5HCIiWuI78veHFyXPOyQps0lZMh3/AgUAIiIiIiJS6MAXggDP3xcMxDCMW4AY4wBCDHiBFCnCBZcFDP9lO5HFpfC+zeaDK4YBjtu+GEYQHpA8vnC/N13siheLAgAREREREVnYwmf0V0zK2xbck+9wichviAIAERERERH5MVFSFhb5y/7cHYksQoXgqiopK4tdoSWNAgARERERESloTcpy8sP5V8UwPNo9PynAHkjuPy95XnNSag0AKYbCGJRCv3YGYJj/AEBs6wNgwXrJ44Ugq/B+DYrdgMVNAYCIiIiIiBTm8rcBHPx4jBQpTiQixsM9CYiIOAJIYbSB/AUERZYYTkxAjogAIyTFJGIMjz/BifAglzxzjaSMk7JkggAFACIiIiIipaswlL9Nfka/f01EGWZXU8Y0xje3kvHJpB48lgyjWf6lc1nWhhPPnEEDdWxEQDnNzGECTkDArGI3SEpEQEzMhjRRQQfOoY4Gnk+vRxtu9teH7ssnNNhy+6xHBeX4sk+Spg1l8TvEOASFMQCFQKBkrgagAEBEREREpHRZfhC1P0iIEdsf6MIMOk1q8n/4U37eTkcEmwQ7B7e/fyfNzOczWya3a/au3BD/8+ijxvUdcwmzi90AEYDaF6sPqF2VNdk/Ojw44YmZXG4P+XZXtmXd4Ezuvs5tYzuAToeuQzlQFmfI4cTB/CQIKPSLl/qRAAoARERERERKUX729AmkcWK7limEVIK/4K8xdr+pTLbD7db374zv8FbfKL2bncFXNMZN4XWpo8M5PqKupma/2k3pRECOTHLZQE0JkMXFcBwjIqSMLDvTynjrRkXqCr/btgtXz/1AU/bP39UdvPPUwYfV1M79W6eue9fuZivSbKttdilGJRbvAsQQPFXs5iwuCgBEREREREqRAcSfEGOkAkgTUf/yTcFttLH4pSO8sw/3d8Pv4yYn3jp7EC/nvo1f4wF7OD063JkL6/cbvW3jywsWVRMpitqa2praGrDlok/oSBnf2qasy1O5bGo6G6aWrf3gb9XdlsuN4UOc/a9N04RTthm0JyZjHYgA495kd3sVuz2LmgIAEREREZFS5f5efk400IUuPu29M/xaW5sDgHbMp5Jngg3sUnbhI4al26Q3hvr60X+sr1fHX5YMDY0NjQ2NQCOdgEztEzVf1G5KmR3ITuwVfU4Zc+kAdKILq3zcnrY4O81/jwjwNvcAYHRMdqcAQERERERElkqGeWuyuj/+GavYhvELdoH/mS9ZkzbM8blkc9Wpj8PRhB1WmfvxvFrgZKC+2FUX+c9sAnuxPc55fravyjyqyRKArcoUKn2U19qNNp8XaKKCNK8QEOMLFgNc6i31ixyIiIiIiMh/4DgEg4EQAOMVojX6sxtr+FvABfa6HcoR5T1yX2UvIJx7VFXbdu+Rrl2x5t2aedjgxkGrDFql2I2QUjfg3Lp03ZtQt1nN5rWbk7bLuJ/DyfKC3Wdnh99yvp1t24GfbE/YXitvTUAF5W1eASJivz3ZzV+K3Y7FRSMARERERERKkeEQrEFMCgNbjunM2Xy+f2yD7bINv7J+/hkNr7eJNqddqm/6wGBnz8Vd451pY7vyvq+T2zC7YvZU61I3oGZITZoYL1xRQGSxMIzA74mz8QSfx1hC+9LW9t9zGBvYSvEGbMDoqF08gpX9Nq5PvcP9tt9RdcwloC2QwjC/Kv+etS+L3ZjFRQGAiIiIiEhpMuAujBzuF5GhB2XBmbYyE/jwzpOZx0d+83bvcKt/x3lfrsPrHMEfrNo3CzcMNvVdG86rP7veiYvdCClphfdfVd2fam6uvZw/z2w74R9TRnFR90dXOLP2S67KRtPDeSdcdSdj7X46bb0ChpHxdfPXEAieSLYvRFdL/XUsFACIiIiIiJSu/Jl7szNJ00rOb8boRFn/yym30+yId7rxD+vlDXcEbO1H2davtNpd8fD4rnnU9a85pmYWJ5CmmRRvJSMAWordICkR+QtPrpS/jCXv+qm8wSnhnzpO6/1Kty/qBmTfnLHyvJEHzKHBckxZ9RCaMVriJ0jhhMHbSZc/m+xtqe/4FygAEBEREREpXWVJ2ZQMhT4MJ4X72ZTRRNjmHb5nlA0+aiB/t1o4qokW2tgJXEDIRGKStQREFrNClz1Zvs+GAt2Achtsm+JkyebDLQLw3qQwwuCvC71bS25NPAUAIiIiIiJSlZQtgINdgBMA3QmBKBrAPFKYbYWRpWPwPEYGY1SyXaFfUTJnUmWJUDiD34MyIOcXEhNAfBUpUpjtkyx2OXGhjn9h6kBY7AYsbgoARERERESkoOJffnZgSn6odQgBDrwCGBFp8p391L88V2RxKwROUTKCZWL+ZvhQMjKlW/L4wnP8S+7Mf4ECABERERER+V9tslAp8lugkSkJBQAiIiIiIvLfLHzm9Izk3huT2+ULPU9kcSq8L7PJrf7J7XuScrmkLAz5L9kz/wUKAEREREREpNCBb03KZCqAbw8YxFsREUMYEBJRxqz8/QueX/4TXkvk19ZCgJGjIlkD4H3AcJ8AOITfJM/bNCmTpQNLrz9ccg0WEREREZH/o3D5vkrAMN8AcGJLY+Sw8Ag6UI57J+bRkbEtO5HvRDWRDwIKiwhmit0QKSl9yYdXBzCXiM6p4VTRSpDOAFlSQEQK9zVJAYH9IdnuqqQsLCKYLnZDFhcFACIiIiIipatwBr8Sw8CrMZrJ2Wha6YqNG8R61PpXl9/HBrTYRm/uy4Xs5Ks2rUAFE6kii1OG8xX5CwJmf0llRP5nDgSkKQecG/wevuDycDXm+dV80fcAu8v+YDcc2olvmU79zuOZSgtz/HJSBKTtQxxwVil2MxY3BQAiIiIiIqUrheG4dyJDORU2kxyTmffhDH8jPji+fttT7E/M4NUpe/En+4hBtmX9lNGHNd7jGvIvS5S6t6oztRNY18fYLqS/rfCedKXDi1fZp/4cqWNvwmw1Ol7TBOSYw+8BCNgm2Xz/Ytd/cVEAICIiIiJSqpzO5AhJ22w6M50JzauzHGv7dwdU2OPBW/bdlLeY5I8xML0H29tudkI0rO71mvNqzucJIiZRbm0w0viCRdZEFg8HjIAUEVnP+C7s6MdbT1uTFlvV1mWox76X7cIfuIyhf3mEW+hhj642iDaMg72/I0cI0SMYDmGxW7PYKAAQERERESlZ0RjS5IhDGMGyPuP5Wvb3S+yIEQ9yvK1LVfhFdLhfZyOyw+wMKuIRPB4cEX4S7Mrp9U/UP1H/hBb/l6JasLp/3T9qbq5t4ykO5zt25DIqOdnqw52YzWNMAM73Y1jl70P4ix3F+3vDHNrTGn5OSITxVbKfPxW7QYuaAgARERERkdJkBB7jODmgkoG2+2fL8yHz/HQeZD9/igyPW9dwXbuCru3um79T01ZM++KJH1764aViV13k39Wf2XhYw/Hk6o6rmV3XhdBf5Ob4b/EIJjGbZmAs9bT76grrQcpendeD9jhlbX8gAnzBEAAFACIiIiIislRy3NYAQgJGUcErfF51JMPtVduKP7EMERGzbBMfSDua5n9b+VjllxjQjnbo1L8skXxt/uptSNsKnGIfsSWdLSDke5w03StP5Sx6UxVeSzMxGSAAjGWKXe/FRQGAiIiIiEipcjuCGCMFdGSef7vhl7lnuSydhvB63s1952sbfl2U40B73R5nBZaru6kmqmmgjNuDmmA3ckwGfgDSpEvnYmpSdOXMZT74fUynGbOPoyfdKGeMf00lTZxuQ7k7Vc9gb2WzLH6vdfNz1lnG5uN2VeVupAmw+O84DsEdxW7O4qIAQERERESkVFnQl4CYrL9AK+1t2FpbpLb1tXLd9nyYCXY1B973e76zQ4K+qXM84Avm+oVc69uzBu1pib71ZspJYwRYsZsiJaYFMNx2JSYHTLEhlJPzBqppwyA/yjb3x7ObkbLjqaxax/De5E46gxRzkksAhhirJ3sbVuzmLC4KAEREREREStfOOEZgfUmRo5WJVNmmcMt2PpMy/13OOZe1U8c+aDaPNb2Veva1nrmDOah+1cZZo5/itWI3QEpbv5aBm9b2I5VeKbuvf2ydbDk/jg4+laHB9jzSYxDP+N12/B1DbJg9T5tVexNQThjfTowTB4XL/y1YTLDY7VnUFACIiIiIiJSuwlz+iRgBEfswkxQd2pxmg2hr1z2wHHBidN1RY/xLcmz4cpn15fRgzsyj6obUVNTuae+QISLj32IYxpxiN0hKhOHEtiEDc2VU+ZmsbrfZPuk7mGUP+7PLvm0jqLQTdwhYzjYn1bWOEMd9GDHgwRfJXjJJWVbs5iwuCgBEREREREpXoT/QBDjG3YQYWd7DmEVnX5GYbrD+57YSxqfrz6EztwE7kwXG0qLB/1IU+ehq5oKu+2cEwDGA20DK6EgzVRxDRIjHa+eH/S/o+BfO+JfcqhUKAEREREREpCopcwCYrYUTEnExBni8H45jPof8MOn65PmFjpSuCiDFUIifPPmpE/mxAQeQI4UHW2E4BFslz2tNyvJiV7xYFACIiIiIiEjBwv2DrQGwYOtiV0zkJ7H/GEqVbMe/YKlf5EBEREREREREFACIiIiIiIiIlAQFACIiIiIiIiIlQAGAiIiIiIiISAlQACAiIiIiIiJSAhQAiIiIiIiIiJQABQAiIiIiIiIiJUABgIiIiIiIiEgJUAAgIiIiIiIiUgIUAIiIiIiIiIiUAAUAIiIiIiIiIiVAAYCIiIiIiIhICVAAICIiIiIiIlICFACIiIiIiIiIlAAFACIiIiIiIiIlQAGAiIiIiIiISAlQACAiIiIiIiJSAhQAiIiIiIiIiJQABQAiIiIiIiIiJUABgIiIiIiIiEgJUAAgIiIiIiIiUgIUAIiIiIiIiIiUAAUAIiIiIiIiIiVAAYCIiIiIiIhICVAAICIiIiIiIlICFACIiIiIiIiIlAAFACIiIiIiIiIlQAGAiIiIiIiISAlQAPBr838pY/rgxDjg+Z8G3DVg1QGrFruSIiIiIkuBHBFpjAxZ0kCGLGX0AByj00LPtmJXV0Sk2BQA/LrSWPLHJU1AGTOpoooyoIoqyslmV2+5Kjqw2NUUERERWQp0pxMTiOlHD0YBfenBSGYREpBjMv88NZM/GSMiUuJSxa7AUiLACDCmkCFDFniPz/jQbiemhWYeAQyjKWybHmAXUQbAEWSKXXERERGR35q6urq6ujqMfeOT/TsCH4wxAGhPmio7lY/J8bytQ4oUs2nEcUJ97xUR0QiAX0dIAJhdTA7DgWa+5Ksebf0Bdmdj8LfZgl7e106Pj/APqBqwRc3aNYcRFrviIiIiIr8VQ87qs0uf58HHx+X+KmWM9ou4xh7yB/1sLgee8305uOuptPIDczrcQkA6+bblYLcWu/4iIsWmJPTX4hgWrInRSg6ALVh+s9VsA9vCprfb2v9RPjXcbO4+0HJPLhuc6qvEneMN47sHNvSbWnccaS5icDCAVproxjVAmmZ6FbtRIiIiIkXgyf8zGcgYYHvfni0g0z01L76LDsEF8YDoPlaP5weHBbWpR+0Ar/fHM9DPam2VzSYxl27EweY4OcLoScDw8O5iN0tEpNgUAPx6HLfbCEhh8QXMpJ7mmo8JfPf47lPHsHlL7HPPqo7fY0Xm8oK9Hs4JhgYrREf7qPgOu5BRfBzvRURAjt7JHLWcRmiIiIhICTOyhOS4mz48RUeOYRtu4oj4/eDE4CNP2UFsxnOZJlayV2ybgWlyrEmHk94l4PskRAiJgunJvkRESp4CgF9XPxwjCNYEWplLf6pIWa8zx9jedCRd9q495DnLnn+vfRAdbtvOu94vCU7x0zg3uqZsSmZ71hl9+3cjx12pRWpERERECgae1O/r/iMZkNs+/WnqcV7yrnaUzaQm+C53RVS//u62jR1lK9zxR+bSDuu+BWWkCPxgwDEN/RcRKVAA8OsqHM/NCQkJeJQmQtrFT/Ea0yk7eTvMmnzeXmt6r2A7f/3NWVzGeqwxpUcYZjLpCq6o26faao+nAoCAycVukIiIiEiRBDgBMevGU5nPXZwWzI/b+KtlEdMJvGHYKLrbifb0Gt1oQyeCcCZpnMCfxnF8Qce/OSkri90gEZFiUwDw6yoM2c8m5aoERMTBcLKkaIp3ADKkev+J0bYq6d3upgHjUyIAPuQEQEPURERERP6d4WxGSBvSzAGgLe3pRJr5fjxOhPlDOIbb+GSbpqSsKnblRUSWFAoAFo10UsZJeSKGEwRH5G/6FQRk8fhRQiDlOyZbRQvtR1MBREREpNQVTrDkcIyYdQDw4FhiHAvakD99Mn7B8/LU8RcRWYgCgEVr4UX8kqFndjaOUbgKYKGbr+6+iIiIyP/qL//lfn2/FRH5L7TKvIiIiIiIiEgJUAAgIiIiIiIiUgIUAIiIiIjIr6GwCHL0i/YiIiKLjOZIiYiIiMj/IpOUZQA4l+dvRtvhgPkzyZWMOufXOgq+AByCI5P7ByTbFwKCsNgNEhEpNQoARERERErD5KRsTcr+/+N2LUlZgeM43QAIfFkCAsLwZAJicixDRIhRRUgWJyQgJIwnkgWi4J4kCNg72V9htX59HxURWUw0BUBERERk6TJ/wU8G4E9igEddAfB4m/yDXrnQdvP+y/4KHf+rSVFGyKGkgaa4MzOZ5e89/gGVrMQyx37AWkyk9dQ+jKYbM96+mGmEzAp657v4PjG54lFzsl9NFRARWcwUAIiIiIgsHeKkbJOcaX8vPyvfHiLCSIUpHAiDEcSkiO315PnPJWXbpIwW2t/2OIZzPGlydMrsxn6sRMvug9ibtH2x05rEzGL36/cLZkTXcvtlnwQHRwHvr3eG/+Bv+LvnVJOhibSdghHg/k6y3+HFPmAiIqVGAYCIiIjI0iFIzvjPIYPjrEUdKdpMO5wVaCF77MOMZho77JOiI7MZMvJuALJsBYD54cl+bEHpgEWnkEru6+3f8+WV37MMO9L74cs4mIf5ITWCKX4XpwRHxS+Ef+G81L3RWuGR3ifoxtjwadv1/DEMZAaTn/+WmIDQNgEcj3cp9gETESk1mnMlIiIisnR4AwD32YQEpGw7GlmB2lM/Zxwf881tR7Cpf08aGMcEhn73DmnbifHv7UKGFPPsEQwn4DjAgWpCUhBW0cwMYtbz5/iY8NFGZntHxgEhHXzDOMheNrH7hP3i01Mf9Lmrz2AIbvJDbPvU4wyPv6dXvCMdSdP58T9SToaxW75HhhD8+SRi+D6p/8BiH0ARkaWdAgARERGRpcMX+Tn2djipZPh+Z16jafyp9POxtAX/E9+yKdDb9qJ+4su2Dinemn8u7XDmtM0P+g+5nfzZ//XIEZPjGTpTSYfcUXY6K7N76+94lxqmAT2Ybzt7XdmmfQb3PYe28TXRehG4fx/MDib5/cR0pjMwivGMmTfRjgAmAu2ArI0iAmzB1QAUAIiILGIKAERERESWDkcml+M7CiMkZzfwsY+g4aQL/Eq2ZejHz4cb8j37z30lXodlsFM3JKSJ8rZfAPMI4w+BAA8akv2V4cRYPBhoSy41kjutHe+vtCnHUMaoL+EWhrFO+kI/1cf4yOxxwSr2VvAQJzHXe/rV4d8w68Gs6H7/lg723BpHU05+icIYSPsNADjv/Iy2iojIz1DKawBY0vo4uQhNvGDJG1tweZwCL3ZlRURERH6E5WfqBzcQ4xhX0svWJbfZsXaFvcuH3x0YV9sPzB/TiclMIDjqC6qYT45HiAmwYKVkP52Tsh0pjMAamEOWVmAovWg9Y2VbnmOtucuu1pZRbJ65wMpYlzkMp8aeIyRFP3vFLsmcRMw1LLfq1VbNAOYfeDRpYgKS5QXDj5PXSRf7wP23I0lASJYmjCAZrRAQ6XuhiPx2lW4AYDTTDMR0pCOG05a2gJEj918vgyMiIiKypMsvAQgnUo6R8j0ppz/tOncFaunccyIRlQS+CjGGsUay3cIdcU+mFLTm5+r7iUwh4ochl/u53Of9Xh0ef84Q/r7tqv4mn3Nor+swj/igb8af4Dq+PehcmrnO1n16ezownvFtKohIE/pIDMcXXGVgSZOvnQEtTKM3ZWSZR3sgyzw6LFgkUUTkN6d0pwCkGMZQION78zyQ5Q1CwPgdHWkFXFenFRERkd+gf3bkHXC7D8ji/mVy73X5M9z2RHK7b1IWOuQLnyBqzt9jV9JKiPmNzMOYM+wMW5bRND1Vxly6stmsybS38+iZOtJWI8WMtm/TnhTt/COylGGsnO9a2+xkvy1JWVHsA5aIACegHSEpssCq7MNBfEEZa9IKBGSW4OBCRORHlWwA4KuxGmeSsZlc7l+yJeOZRR34U7a7Pd+SsSF05yPIXzfXGzAW5OCg5FdERESWWPaf77MVkp9X+C/b/beRoZVJ2ZLfsx1BOTmIP8ExskymAzCz45ZEtCFkMwynKh4IOBk7EMMxCh3/pqSsKvaBWkiGAMc4mCbKyADPWE+Cpi6M5UpmA5VUUsGrxa6oiMjPVbIBgF1i6/v2TOErZtlFwQYEQBRht9GOH8a2EBPRifwcMGfzZLNXkrJkj5uIiIiUnEKgUDhTH+UHyAerJI++QgSkfDgQ4ywPQBy8njzeO9mucOZ8Sev4k1yO8GxypIj5mu7MoHL+W6zvNcQz3ifHMXQDxtCXVj+Oz7gFtHihiPz2lOwaAE2nBoe2OpN9hP+A87h/4pMJwK9jEvEnGZrIEQIBBlyZbFaflFr8RUREREpVuNDtTQBw2yh/07om9/de6HlL6vfO1vw3u/gY0uTjjrHEZL8+fEL/0TenbhwfZeoyOwQfgG/H3XRyrRUlIr9ZS+oH8SI3abP6kye2x2mwc0jF9/ONXUUT8C1PMODlWZTThjmzPs+vBBCulmy2YVK2/MyXFREREZElQ2FEQjlg4B+ToZUYqPFG1nw+XubMmgdz2/J42Xnl8+Oa8KTuX/Wc330jDih2xUVEfq6SDQBqXqp5qeYlsP050i/1x9jA27F98ICd4HNYa8IUJtBK+f07ksNIkUwFyI1INi/MhWv9mS8vIiIiIsVRGMmZBADuGDEW3kpf+lE+16i1x3jk9suo5i7/CmjLaf5JvMWMiya/Pm1c6X5/FpHfvpL9AGvcrHGzxs3Aj7d1bRJf2d/tSUb6u4y3J6kH7mR/jrnoEAYSEE+ZQoYYS3XNz4KLL092U56UCgJERERElmyFM/6FNQ2+JQQ86sc0MsRAE0Poc/lDvrUb+zVu66t5jQ0LvreDrMoe8N+39vaG7Mu6CoCI/HaVbABQYCf75l5PjlMZ4Kv4NT6BrxkfvOt9uI13x5/B2/4ObQ7rSZYo/0eCgMiSK8BG3/6X3eoCgiIiIiJLhmxSBvnLH/r3QAzZ3qSopH1qHEMJveGZtVr+kns0881FO/a6sNK738YqvhwTvDJ+zHeLJ3MazWNGjxk9ZnSxmyMi8vOV/Gr29TMab278M3HtSzXH1B1EOSnbJFghXtsu9d2i3ULjbmvHLY85RzPAH97nFNozzla7bSWmEZNJDyFFgEe3JAsG/jE/qCz4DjDcMuSHmQ1JXu6ff4BEZGnXJinDX7QX+aUKlxsrfP7qMq4iS6/CmfnC5+5xAHh8Ffk5/mcTkSO2dmQJyKYvYhAxHV/swnJ+DdP2eKDilHDP8nZxenJF875T3NYKjrMDecRP8f5s4ssknx+di91MEZGfr+QDgILgEB6L3yCzzLttjulxLIz5dla78T2iduGI1IqpijAXjyRtHe653Mb6dQytX8W2tR2YcGNIJ6pZZqVDmUqGJp+bnxRgKxAQEfojRISY30c+CGiXvFzhi6iuJiDy22cLlbPzPweFVaJvT8rCVKHy/3XH8rPkkjL5++bLAQ6+TnL/oKTU1C2RpYfx75/FOxDjhMHupIAgOJMsWbJcT3e60zszmTRbMOKKcn/DOrDuOTvYV7k7+EPuYz8wtayPtKO4wp/wp/x6/9A35zXKK0dUpSt76nNDRH77FAAksg3x2HgkPq7T3HsnnUCQOqTsvLLZzOFjruOMqKO9FT0dZYMPwxHBPpz57nK+jZ/Hi2sd6Ck/jD1225PvbaDt98eV+JweRCs30EqKOR1n0p5ZZGwZoIyAFch3+tv8wuqKyJKt0Am1f4n51PFfPP75dy0A3BqJSRHoxL/IUs5xhhPTSswaVJJifnYeM+nMtMYNiOjg0567wp9mqt110yg/PdolXm9kxj4NGoLvgmlskXqAze1le4OJ1PjLrGWHsQVVwab+sn9D09cTv17x6xWL3UQRkV9OAUBijI2xMf/8fhgPqKztVbctQfa2XOfoM+YGfdmA7vFy8SacH9wYXENv3qYsczsDWgaUbXDX595x8vSube/Cnq3ZcuI/eh3rF/OW9+8Xsg/VtlzHu2xzzmH/8kNpYhZz/RQCAgIGJq+nb6Yiv1Vu6xKQpYx9aaIfE3Ovk+Nsf+CyybTjGxu83FycNDmvAxyz+mJXeSk1DgDzJgwnZ4PpzqYEZ73EeA5hjw+OI80YplRdjJMmFfcqdoVF5BcwImKm0EJ72rExPXiWZ/1yf9eH+RFzV7P2dgwDp5xnO1lXX7lhME8QMrP1ZM/Fv+MzdraVg062b3Cr9bAvPIx341NOtwG0p4H3WZby+sbGKxrLaALU7ReRpYoCgP9i1HkNk+qfJq7et/rg6hEQXmaXWi/Sdhb/8KnxcfH5fgQX8AYjKjfObBk+5Gv03238fvGeQXVweVg9aW1bnuuC/SdVZC9sHd36A3uP+Wr8xuP+ORN472K3T0R+ubo+NY/X/J1dqI22CS/lLzTbs74bbZkatPd5J9fi+D/jPa/Ll8r7FpHZGI7zABFpUlzgd7M+NW+MtEH8hWff/JqINBbMrffGOxo+jncodoVF5Fc0Pl/U7Vb9Se33dGYDP5XJZD32efY5m9KXC3kr3My2soPYyL+cUTvhpJaq+NHKU9t3Sn3DIZWnth+eOofA7gx2DQJaOQZ4r9iNEhH59SkA+BGj60avPnr5BTezde9WH1kzCOhuu4Tns5ENjo5Id4ni1LVhnHuPt+OxcbvoY7vMa7nJv7GeqQfT36er2bluYM0etRtZZyJayeBY8p+I/HY5D3E15UwPesaXMpWVojvDRyKYGoRxGJzJv/f2uxW7uku5IJlu0UhhfZWOTKWl/FNyZGgBupOlTdi9rl3NLrXrWlmxKywiv4jjQEyaNFDBZCaS4U2v9Ut9BNX2d6awq1/BEFaKTyk7PCy3odHmuZej73x7Up1X7DO4og6ys3PP5P6O13do2KJhDxx4s9gNExFZlBQA/ET1a4++ofG75MbuxMBV//LwJ/nCP2FZ+Jc1/vZlOt8nA1RFZClRt0zNvTX3kmVA3CX8KxGNwZ7xhgA8CP67hZ7eUuz6logsheAlR5ogfpMKjDQwixTZKKyf0vhgw4dxptgVFZFFoiPlDGZacmsYjcDmALwFVFJH3YJ1WmALtmCLYldZRGTx0eXoREREREREREqAAgARERERERGREqAAQERERERERKQEKAAQERERERERKQEKAERERERERERKgAIAERERERERkRKgAEBERERERESkBCgAEBERERERESkBCgBERERERERESoACABEREREREZESoABAREREREREpAQoABAREREREREpAQoAREREREREREqAAgARERERERGREqAAQERERERERKQEKAAQERERERERKQEKAERERERERERKgAIAERERERERkRKQKnYFREQKhl3eY7Mem8HsH9rPbl9J4HsZXE9c9tfMvtlr2DU+254OvrHXGcF3fp7NtJvpZifyKaPpzRzbg2mYn8cAyghoTxYHYmyRVdh5lphtGResEDfb1iybq0z1ycGkwGOzz5Jn1SRlZbGPb4koAxyAFBHZ4ERvBpbnMOtB5DemNq1rV/P7mg+j7RZZDRwnAELKmAfMppH1iJjBRrYVL9LDt+UgP4VT7XjauXnk/+BpXy3a3u+JV2Nfv9+X9zLmhp8E44NXsMZHRh/X+EjSJhEREZFfQAGAiCx2dTvU7VC3A0T7RSOjHFYehB3K6giiDLODdkSpVK5T5mI70vvTmc7BntGOwc3hfr4BHRjtu8dZ28anWuDt4otsj/BLlm98tOGx72clO9+RLxdbOzrXPF5zLWXsEg8O2vMpU8Lvo3m0IUeKlvhgynGMnZKu25RiH/elXCHqqVlwzywqad/6uXUHvgUiUrZJ7q76KY0PNHwU71OEOr4HMPCqum1r3+cKa7KRHE/G1gx28APYx+7JbhMcH17Nu1xDq3fhfJ8cPxY/NaBH9Zs1m3Mbz9sRrEk6u0X2tXgLsmNuGt91zA/FPuwiIiLyW6IAQEQWm7p9an+o2weLb8y+EJ1AmX1LHTNpzZbTN3eXnZS7wZblreDSso3Cm8OXojenHzX1r2FLdPuU+2aPOPASsrV/qznpppXbPsmfWcGH9d0s+NJ7Rav1zNatUbN37Yw2xzAJ/MBUP8oJ6ezH4kBktYuwSY8BzbwcPhTtzhO0pSdzcyfTgxk2sNtgpmN0Ij/ZymxcsY//Uq4DDjj7EgAB2IaM9Sc2qqOaNlxXdQlOTL+q7euo2a8m6x0WWU0cJ6SJkHJm056ZfMvWfq1PYmfbq+WruF80jj/Pihhuy9tWYz+Mf4gusq+nrMoULvY9o4NSR9hW8ViI32KZ4DG7z19lX64Jbovu9r1862jZYGT6hOALPq/tVHNE7fKEmeZseWZvovFXj796/NXF/mcQERGRJdmiGxorIpKofaL6kdoHCNnPTrSHicw9sipW9imcFb8eHGbv2J/5q19ql3F68Kk3+IUMiHv0/D0Hsy3H7VxHFfj722zBOFayP67yGsZUJvV4gTKc0N7HSWGMI8KYQ1+M4ny6FV43RYb2QAbIFakuAgFltAIxkE3uW7z/FpaEEjnKaSYmTTlTCZlNBQHlpIma7+A7fqDdyDtIsY2/9MbTXM2mtusDE4JxuRVzNe81+em2u+Xi7f2b8J7g8uAC1mSu7ejOqrzAaP8T/ZhOjkpfxYZyBM0NZzWc1XBWsQ++iPya6jpXD6+ZEjxCxEya4l2AmHjNrnS0/Wyt96aSpjcd6IaTIeJa8p92exS73iJLr2iNfBl+kC8fTqYW7vp0cv+c+vrGxoaGqH2xa7owjQAQkV9d9efVn1d/DmFfTrFNSVste/vzZKmNp/hbXBYfHZzBFuGb3OXjrSI61LO+B7d2+YvfxAHxu6cdbDvaqqQOGkYzfenZ8SGmEtl2rEs5E8nwFhAQcj45jJg/YmQw74MBHXg2qUbbpIwWcXNtQZkf6j+fDEbW9k0CgeOSxwtd0HSx/32WcoV/75CIVir9MQyo4pTk/mWSMvvTd/2TFN4XjmHEpEmRJeIBnErm2RyaiaHyLOpYhuaVfkfEl7bySj9wE5/ix7wZd039kBr19gd09pdpe76n075/ascXLdrQb87daefEnwc3+ZvmtgX32TpuVsFJtglV3au6zur2Fk1TmqZ1nLpesf85REREZEmiAEBEfjW1NbU1tTUQPBzv6GuTYgsm+NtkgZ62Nc/6d0Eb+yyosF3YwM+NTvHhbE2bnXa0P9iqjLlhA67gduhVCVSR8qeAmJa4ggoCzC8kJkUQPAg4bm8lHewVAQPrBUDE6kl1irVoWpzUa4OF7tfn7eLxz6vbGEZs3ZNbFydlIYBZ3O+P/NKARv59bYxLavoMWSIs3g8jwv02ZgMEy9JMH9LrHkZn25zJL5B5nlz2nXtCwuBw5h39pHeg2jeYdV5wqo+xu4LX7VNa2SbesN28dpXtH6Oy3bfttmi7Bc31yza+0PhC0f49REREZAmiL6Qi8quxl31bP4LAp9kHLEuOnn6qXcz1frOtFuwYPOwPBSsGm8e3BcdG90bh+f3sWRtCdPZj9MOY5E3EtKMq2gcnIgr2BAKCoIUYyA+od/KrvAPsVuz2/tTDU+wKlIiFj/O6xa7QjzgPw/CgMHLhaNKAMZyYDJn4j3SgJx39FduZnA3ZO0fOuxCsOtYO4wxe2nld7rJ9efDbDX1t38N7BM/7Kwxh03hLetLRBlFZW1NbU/sdzQ2NDY0NjcVuroiIiBRT8Mt3ISKlrued3V/ueSfQ0fayLgTWM7op7spGvrztbYcGT/sNNpwr4tuCsdHruZevOpU3bHPGnz2G9lQyL+pOREilZ3FyROHdAJhtkuy+cKa27OfUTeQ3IlzwU/4dnw8uLBhNjhzZsC9GTHnuTdozifTQflzBQbb+Syv70/FTbD+k0dfyg+kTb8ly/ldGBhvbWV5ONc3WLfqWv5Pq7/29vy4mKCIiUtI0AkBEfrG257U9p825lPkZfpVNIuMdwu3YN1yVEX4Lb0ZXBmf5Hj7yxOP4xFayuuMvIaYdHaMVgCy5sDXZTQfyg7YLc7PV4ZdS9s+pCvkpJccAAZ4qo5kYj8rpTBld+rTambY7dzxWRY4/+Pvrb0ZEb16a9hKjqLZTbdfg2/Dp4AV/qOrusufKbyl2s0RERKSYNAJARH622sH9vXYwhOfZquWjybAGN8d9g+PYm8P4OLrStrIR/t4GE/jcfkffS1ZhLgERlYRkyYbfJ7uZnZSFIdBaJE/knwpTGgqBWFM+EAhbMYzW3F00YaSGNFHhZ9pa1073w2wDHgTfnD/7SvapP567jo8Z2LJs0xUtVylYExERKWUKAETkZwv+4F8EAwmya0TrtXTj4bhLLqBXfE38VeYj+yroxnj+bAOvWJv5OGFqn3zXI142WRe9JdlNLinDn1cLkZJSlZTNOA6pGlKkScVnkLHBVO3xMT3ijI3cabZNZ6C1i0f5X+zZ+K7gFq9hBR+KDzmy95whRxa7GSIiIlIMCgBE5Cfr93y/5/s9D5m6+KG4Ldg29iqHhm8Gr6VCfgd2YVmj/3n3u+hGN3quPgYjSxTNyw9mDgqX6SsM/ddUJJGfroL86ID1yIdoyxJRRRasl53IvNPnxGvY/sGcYEJ8WDAyeCreOKgKtgo25frM1PLOrUfp77+IiEgp0hcAEfnJyv6RPjJ9JKTfSb3Nuezqt4WbxJtG2/hmweC4A9hq/h43HNYFJ8U88ouahXZjsnnHpCwvdjtEfsMKUwOSqTPB1hgx6fh9+jKd9Op9gut9VPTSFm8E+/hpUQjWj5F+ZLB5eGP26FS3ol0mU0RERIpIZ95E5CfL3pEblRsFqX8E24V7Bp2tOXogqIg3Zw8CwlXW4jO7lfQ6lzOJFlp4kDQBQfBp0uXQHH+RX0/h73gHnIDYzyIkS5qXmOm32kZ/eMOfsld9z+dgCrU02KZxSzgxhqHJdl8XuwEiIiKy+GgEgIj8ZOHHYYfwYkLu5StGW1eu5hO+Bu/FZL9yvZnMJEMUPkhIgEUHJR3/O5PN9bkj8uszHCcOWkhhlAFtbD0+Xv9jBnoT15V/yuY+nYaonhVtj/hgnix2hUVERGTx0wgAEfnJ7FRP+TEEfIHZfX4EhhNzge3Gd9Zr7c3IUkFPSC5ftkyy2b1JqQBAZFExHsWJiQAjTfd+29g2HGmp6ieJrYxvR0J30uxkXZkOaCaAiIhISVEAICI/mddzp13B2kEPb/V7/VzG0pZK8Il2kG3Vf1XaU4YBMYAflWz1VLJ59PNeVUT+B9vixITxUMpoz+z0HQy1P/l5tZvSytF0HglORDpYmW+4kc316ygiIlJKFACIyE9m9f4CaU62bHx18IRvZ+dyJxumroyGh+Od9nsxiY7MAdJEBMG4/ElGO6DY9RYpASsR4MS+Ds2kqOIOHucRe6HLuYREtPBKMmLnieT5w4pdYREREVl8FACIyE/3qK/Jqlzor7IFy4JX85atGp9Pxi+Ixx14OUYtE9quCWRIR5sDhtt2xa62yFLNAaOJNDlafR2m0pm+qSl+tv3Rbh8xjs7MYxqQ8ohsvBKHYTxa7EqLiIjI4qQAQER+svpdx+zTsCXv//u98WzgbCren53c8cRCpYgsPq8lZQ/+9H8eM/C42BUUEVlKFeZWhUn5Ao5DPA3DwCcm989Myh+SsiIpewHg7AaABZX5u61P8nhuof0bIj+BAgAR+cnq/tL/2bqeBPaIn2ijiKnxZ20Puvln4fPRK8FpzKHav7MbCMhQTiP5FcrLil1vkaWe4aSIyHgzM+lAD1vD77Bd7IJ4Bm2Zz0xvJCQiR9uGdRujhhuZV+wqi4j8xi3c4Z+EYXi8AhAR2HKkSGHBW0TEOPNwHKdtPhBg4fVYswQEpEgDOXK8TEwAUSsAFozMP822Tp7fmpTlxT4Q8tugAEBEfrL6Y8dsXT85v8QfbYE3qAGm5h+NTwSgz//ZrPV/3L2I/HLhgp+2/o+Pq+MvIvLLtCRlRdKNryCH4fGNOBFhMBOoIuvXM45WZnzR4t8whYo3+tjyrM9mI470F3jZz575jR3srXZs2RS+tzQv9j+A3hhd1rqbFCvQY72TMeYQd6wjRYqsf05MFo9fzgcHwaZJPTJJmU5KjQyQ/0gBgIiIiIiIyP/mXzv+jruTIQA/krbEpIID6MNUpgy/3Z9hC5rOP9C38+35xxtTo/7BWG+JZqdOiw+2S2hsWH9078ahPDYwU3ts9Wt0yN7vQfgo9fEn9lT6MYanh/uamdpevf0WurLzQc/Y73we009qT09bmYHtL8bJ0BIfQABYcFtSL00RkP8vBQAiIiIiIiL/f4WOdf6Mv/s0coSE9hrdiEnlTmcTf43Bx/1u/mm5p1qvuW64HR2caVvwTNv5qe/L37Q2wX7eiYvD/XjNbmAiHeuG1QysXZaL42H+CgcyJ/yBzj6HilQPr85M8iP8RGJbY/L3LM8r/tkF9/lAVvaP/vGS/eBf2nb3nkNXG8zANW6jmYAo7gzEEMxI6vnPoELkXygAEBERERER+f+L8h1/TieLEdpQ2pLDo885jmUJdx/pa9qtHPHo8Krb0/XlPcLv7EmG0YHNch/HW8ZXRweGZwTzgw2iP/l3vh9TSWceibKZdcmm3wg+D2cRkIofbj2MODcmesPvp124ddnrVeX2uF3JFG5NfWZnBa8GB4/azFbwTb3v76rj9enDgGfGUcFIPttoBuW0o028IU5MHLy+oN554c9styxlFACIiIiIiIj8Z4WrpnxIDKT8L1SQYa5lGE8///qEnjzqTzH+0R/sPRvKwPSe9jZldkH2S0JGG4wJ2ttedgwXsHJ8SDQG6tuM7jH6LLIAfLrQ69wDNftWX1j9KvNSJ9nq4Y6+hXf0P/jDuVy0Sfx+tE94Gc/adNZpOoWraGTt3drZWfSyD96+EIhoM+B1wHCvBcCsodgHUJYsQbErICIiIiIisoQKAIf49zhp3DJETCD78tW5y9Krpx+59of4/HBQ0Cm4Ingr7h83ZldPdYnS2U/Zhd183bicoL5N4xH1LWRHHTO6x+geP/6CjXeNHjd6Yzx7ip+d24JcvLWvFU+hwr6kva0cnWJPkbPG1EZ2AJdY+ZRrvYH9+dNJ5Tgd6QgYMTGrAGAML/YBlCWLRgAs4Wpu6H9WzfVYqi79vaUI+L2vztdE0RlRle9vz7IrB9HNvqWJ+cR8Q0CA5vqIiIjIkiAkIMSZzixm4LabbWM70cEOs6PtyLgdb3EnT3I6b/Ep71M2qqlhfn3TgtXMRZYELxMAof2ZVozZ4H/zcf7i5XuEy2T7Z9tzAn18HrPtmvhTey3YlvE+3G6xfQlGbTz6icbnFowg+MkaV25cuXFlqNuhbvu6HWjxXaPj/Xsq7CA/y1fJLePdgj8H99uBPjwYxwNPnGJl0Tw//82RtFBLx/UfJsDxeJf83oINk91qUcASpwBgCTXg2gHXDrgW4k9zz8d/JR19ljMgwx/5mApuZTRN9oZfw+W8AP4ihmEEDbeMfrzh05//QSMiIiLya6m5td+I6v4Qd7VP+BKo8seool34uD8f7WCdGj4ZMHRgzoHctbm/kxmycmbjzFHw7afjZ417tti1FwE8biUmgOAAQmYRf9Hetudq//C1O+Or48m8Bba6TbOzoivta8b5dew9aq/RT4zeLhni/yuof6L+yfonoLa1+uvqAbQwy05M9eQBK/O58UvB7+z6qA/bRJDzd1n+7jWotFWZuD40Azk/Pn+VgGIfSFlSKABYQlkNv7MnoOnSeeNaM3i7KR1WrWjgHlvTvqWavbM35y6Jq6sn2cO8xh+6T2Qm02jOee0J1YfWBPZasesvIiIiwigmkWZa+BIRl1LOh7aZjeTY4POgR3r7b3YZ9NjofRtfaxrrq3kv1ubAlnsq9infkDuB6/jnqusixeAAmL8PxERswyDmEL8zhdlcEBybrQzODdpSHl4W7BLWBI9G+7bWNt+TuejX6/gvrOH50aNGj4LaG2tOqJ2G2Tmszd7+NVnK6Ao02x/g3f70JMXt2bdIk2Faej0cI82GSate/2W1kN86BQBLqFw62yN7FRVVD7fdu/xipkdhNMHvpw0n8yn7drws2Nba2ZTXlgf24LzqaTgxoW8BgNsLxa6/iIiISKKZmJg4amEdKqkNO3lrPCKuPWb7qI5r2P+64bzBLdSFQ4I145U9iHK1h9XuX3sw1nBzw+0NtyYdMZHFq/C++wNgOBCyi48c8WfclrO+wCz6MI83U/f7zXYPue+nTlh77J6LvmINRzQ2N1xPtq5f9WW1g+ORlPEOIW2JGcmcMcNJ2VeUTb4Xp4JU37GA494mv7WGApQ6BQBLmJoz+z3e73EI1kzVhjnwsjgb/znchRE+h7ERPGjP2MT9t2YNOlFRfTLlZKnMPUFMijg8Or8X//QXVUJERETk1xNigDGfJiKaWJtymvjsyCa/ww/xT2/92DJ8Zpe1rGp7+sncyTfxZXavP8QwbgZuXXRnVEX+PwoBQJ/k/Qv9/O+0zhzFNBtENyDAgNlz57Qe3Xw+EVMXbwXtW16xsVxcOTDaPVUOba6N9k2/Pu+yqTeV07RXUwOTgXlAGgj8nnyLFACUOgUAS5hgRnh+ahnS9Im/8eto5Ad7xX4f9bLf2UG0bX82A30MtUedSppmpvA0EWmi8EjAwR4tdv1FREREFpLDAQ9Hk8YJ4w1wBpEenKWnfWub7nOIB34NX9yKjaeMMHzUZ5YNCvtGcc0f+n3Yf19ofHDs6mPuKnYzpES1UggDepO1AWVn8z6z6cQ/CIhxsuUPlr1fNpyQYfSkJ9Hiqlh8Nyf7cFaa93z4cW4WzGsJz8iF6TAYzyGQuocqHDgzvzqYDUg2m1HsAyrFpQBgCTHg8uop1fOgYk+7ObM22ebXfJWyr8PzbA1Pc3+Ef+Djfey+F9p21t9+qI0JSBNG/wAcwvHJbgqL//23yzsWkkzNqRMREZFfS+F7R/gjzxuaX0zN2hMyjwxYJ15h7jFf+C1hpT109/7xnTbRDmw5M+ianRH35n67MTw0/Iz9eBDId8REFpfC+/oVnABnT960U/zr2lVxBtvKFKKt9f3z+HBe4oPFVbEBbapPrT4P8+M4nKuswVp53Ts4lNPC3O6D6MEUcp0fwOmLcSaQAR5Hp/8FBQBLDN+crcOTSDX/OX7FTuZLG08ct0ZD6c4IO6ainIOssw064hagK90AI0fOdsIx7L92/JuSsip5lQn5Mk6CAFs5eby52O0XERGR34zyfOHfkR+BmAwtDo7DMPg/c/ZtwXaGg32AEeLxNrShjI7Lv2dHxxv7sXtcw/2Evs3tkKM9+4XncJGV8ccoHnBt9XnVc2HUMaPPGX1OsZsvJaLwvq0lICIAPucLW3u1k3nZ1+NozqeZaZT5VF8u2MpfYcW6A6rn1fbms/rbRr/UMPHXvypXn+P7HN/nePCn+Ci8m5DILH7NDsAYyjw/lb0ZyRdDmrmb/vZqp3qcZtp7GyAgsjeKfUBlyaAAoMgG9Ku+ouYgmHuWrVbRTK7tG17efFr4vM/jLKuI4PdM9A93P4U3WZuth+5HgBPH2+U7/sFVhd0stNvCB07S8ec5DCey04gJCMLPATCSQKDwh1xERETkR2XJd/LTQBlOCyExIZsSExHzcvK8TFKWJWXhREVfIoyAe6kkQwZYk3FExw4KnvOpccW9X1hv7xZvnRkW72InhMdxVxxZGE7lwH95fZHFJNwkGdQ/n27MpHL9a3yY3c+z/e+z3cA/HLNn8HV8h/W0S33DYB73+ze1e1bPrP07zQ33jf6o4b5fryblq6a/KnublP/DIruLHGO9s91mLUwkJADbh1rff6dmjK9pD0BALr4WAAtXLfaRlCWDAoAi83MMVqKs7Zp+Vctx3BS2je4Pe0QH+tigj89Pj48vCFrjnY/NkKUzIVBGjHNnkq0nq3n+n+E8rTgOfhtlhGBH+qdMZ+6oOh5ma5r/dCr9SZMOupDB8QVTAt78mc0ovH7Vz9z+575eS1JmF7r/p6r6hdv/1HoXhjBmFrr/xxTOqBQCm7KF7l9UCoHSLx0pUqhnod7lC92/qBT23/SL9vLP+qYXcb0L74fC72XLz9xPjGEY7ZOy04L7F1W9Y2JisjiOMyV53Z97nAodhcpFVN//pnC8C8f/p/5+Fv6uVi50/6JW+P38uf++C9e/YjHV+9eqf+F4F4agL+rfz8LfnZaF7v+pCse5cNyX/HqH5AiCgBn0pGn+ONuFO9hho43oQ8B7R79MBR0p881wIrBnF2qXLdgLAEHb/H3xID7DYcXvfJRV2ua7ne3Nlg43uBuu52Y+Ca8umzB36+yOUa72otq9aleDhjMb7m24ZhEdLZF/N4aQEI8+ZS5zSbWdbb0ZxIEHjfaD/CLuOhu25SN/MXwmrol6RR1zzeGGQXNqIpUDrq25qOYimkcd03hm45k/vwJ1h9d+XLcMgbVg3p8ch/gm8dk23vr4U0yL+vjGvMv6/fdirl1h6+zen4i2pIA0jgUbJ7+BPzZVWEqEAoAiqbuq7qq6q8AOjvpG2+He157x18JroiCcG1VGsBvP84/d12Y029BxpbH5Lkd8QTLEbttkNysutNvCH9gJgBH5uRjQ0Y60IWzIMVe/zUq8zOf/uAzI0hru5stb1p6Mnmy4qGFe/TxNBRAREZH/rna76o9rzXr5HrznM3yS/4Uzyb18enC2XW9bbT+MtsT8P/bOOz6qauv737XPzKSHJPSWTkeK0lQURbCj2FBAFCuKig0bdhG7othAEMVeUMSCDSsoTQUR6amEThLSk5k5e71/zAzeC3JV4vPce98nv382mQ9nnbXL2WXttX6rJG1lyMStZ4aO/PJG+PHIvvM3Q43BxeUiXOKIA5LxyIVXXRwdDJwRPPGVIE8wh8buA7XN4oc5U3mBVfo+h3Jx+Pn/NbK1BvyfRiIWBedUfHiBQhJYx93XIitI57Y31tJUBvDKrx2d+6TYedD5TutYL/3cw3U3MdKF6Ox3U3umPUztxq8LTyy44Y9fmKZpmqbgmWxSnR14iNFJXEXQjuBbBvO1zOc0fjW1+q20ooeLwp28fPdiOYnWxKa8gocAdbZJ2GO4MCy24eDfAKDBAPBvgx7mpttX8cpZ8rW8xz3Rh0p3/wr3lsBmzjMrPN+7y1npmXP1bPzE4AJeLMK54SN+y7CYvT9kPyCoXoaDi8/spIIEtm6I1jWaSu+X7pMq50w7j7Fk2/Fmp6yUzzRNk52eWTEZZCb/4U2AoAiWAjxY4piOZRWttTmGOKztiRLE0jynKq86dwHb69tOGTMyuma9gmMbETBNcLkPKxPp4PQhJjjZqZBPMRxON4qAVHbjBfy/Q0JkAKGEGoQgo/UrEtmqX9GYIFH2EyyCkpzbLW9hbh2l9dX7oA6ds9qkQsWAyk+iJhPPiTKQVVR6Jjqt7C750X6rW2W+eVNa0pwyPiZAACfsrAWEb1C9RBNNNBs0h3xy+YiFukS/twNCvaFlxBNLHPG5x+Q3y+tKZb3be0vmkqypJLCF9mRRQR2xxEh7UZ2mH5pL5Wzu5VGeZyeptKExDsEwAc7vQTEIBkcrCFANrKZUN7ntcRAMz5NMlMTjy22Rl5Pr3+MRccDIisnokdl2T/9HNoadQoWzIfz3seGyOFzuPQ/ufVMVvvF3e4f/fjhc+nJq8lbkbqq/3m3bdV6QdhoeO9Z5So8iaK0zWOPoH5Ne1tlzlvOdXMvx0ocT2EYHqijGIYD8zvztApYaEhGi6cVakhlvd/ESdfyo7xKD4CUu5/K8hbnPUvU3tXdkHorcLITby6wMN+Pt4d8LIu22H3EV4fL4cDc8GRYbMUwmhtu7vL5676V/o/CfZWF9x4b1Twn//l64bLQfMZHv7piw3h+H9V4T/j0hrHcF9US2ZryVOQXcXYzjOqKlD/HEUyufcTqnmsZ05ku+leF4CRBgYZgjJm6/Av148OAnnWJ2kKoZ3MNUvbFmvLfO97M9yRRrgc5ll/cg1w1OwOR3y70v54L6e5BkHZHhZCiNw38WE611BEwmP8hBkio3U00MPh4Ks2u3CP8/DXuUgJ866vDThkzS6MCpXMRwd3DYA+V8drGFHUTnvJ53Ve6DB+xBsweZk9p3aDsRL+t4VocRoEre5ErGMNXf0XupUyBZ3CePUYefNPKpRQji+Yf1OaQXxBNLIyr1R9boFxwjEyVTf7Z99BStkjP0HDpyEE2Iz+2Q905eQf3n88yX02/MWIVwuy7jY1SX6q1soqksN7u51nlehspD0p8pQB2GatiT6Oxf4zMuxVIra6mTzs4sjmALqeXH0o7L6Pf0NVTyDp8+BFCHa/uEZDp7e2bInr9DB5R+ofXElrITaN07rbal9x1P7tAePEyQojlQzUhGOp9yBiP0KtfNfDRjQgaQe33efXn31be1GtCAf4mI518hgkXtd/iJJibucHJkuMx78Xsdp1/w7KC2bAYtLTuc1XKNJnsSzdM4enLwRtPYE+OZzW3tsjKnZc3BU3OKf23dtwSLJhdNLpr824sy22ZsygTTdUR1B3M5ds3l3gn+cwjaoZ5hzlmmqXxFmUwycVja6tfBbH2BOjaNbSs9JVluOX8jgkusjXxXn4fFNhz8G/BPaGCC/F9G9iXZPbJ7gO72fx98AC8e5yrzkOPi4sHvWjIooMk5a5nHTta+3oFKdlBnb8DgRcythBbPhLC4vRfU0AZT3F2AUOtk6rccrAuufllG8ZMcNOU86ogi0Xnf67HdnbnuKf4rzBFuPuQOy7sid9i++nY9ouWYlmOgek5UUnQm0XIejaS33MV6amiiN9ORJfizv2KFfMOZMycRTRriXIfiR/QNQmNs4gE2V2SjuRUXwepoGhHAxNzJE1Tgu/IncnEwix/FAQJmVM75ecW5G+zLEQGZR2TGZGZhJE/vpoc0poJyKnUnNRxHapPGNONs5r36HdFEEZ24PJSmyL08/PjP9ezuasBB7ESUcoKJiyjUN6mdMJQYGqPzJmMRHLM+pyr/oNyttn3kwaxx6eMz7yFeH5U6HW8GSCMqibEf0V/vkuOv/ZyNcgzrzx+EEETKu4Xa2XxYT32DGEBtc2qweOJOYgCG7Svey3m1+pMml16UfNZpTa759VxYfml1+2YvMH7jCXlP5D3BI3sLyrwwbWTmVySLmoM5zuRRRQWuTdKX9VzaXH6edJXjMWNfxRJESmaG9HeODD9en4VKUD0N8OOLXoiSpT+uGa3rnO/dZaMfkXjNErGpNLNXmlU8kbMp78q8K7l6j95bMmoyviBdrtDr5SNZSh2pVGozlso6Zt02gyTm0/ZMP4oXWz4LUDBv1bPdw7BzMICNP4cylPgFt5FPhna5eoacQjzzmG8fYbFcxAu5PfJ25j7Oq5EnM6IzojOi8ZpLOFhOcuKpQ3HdUn2CGhaMvFOOxEvmhIdwAS3pEJr5nVPqrzIK+j5xeFHfPbqAQmIKD9dDtDmDRt1OZ5rhr35G6ridDeTkvp1/eO7bZO0tJist49HMRPkQJQGrJwOJuFmn4GUSzWf+ApTheIsBB7URQ8zMemq/JjxediLU4Yt+gUZ6L5deeTh19OWXJRMRAnhM35xf8rvnzrBL9haQuT5jWObjZjhVeIizr+Pi4Dt4tRzLMqY825qm1LDTX0IAg1c+DFOj1afdFfgSgwdDMTWUUOG8oK/rl/rleYZDSaHDhl8kihRJkM9sF73aHaHH560seL7g+X0P7lm3ZAzImC9KDIKjQiJRFHX9iVnkyoTpAUoJEOV+hINg94SQnF7Pdp8dmvdIJAaXCmce1+sGHXnpV+QCnX7ZjWIwUobjDDN5mpQzMefdnIlo9qasc7K2kGEvcL+178hJJJJMUJ+S9eKTeyZXUMVuUo7qEJrHKiaEXmeGht9bn5tiRex5gIdg4s001pW0mruIPNmuR9x5D7UkU2PG8FngJc/99i29zjfeHUxp7qJcf+4iaNmv+S0tniU+bkfcV3F3mN74qSBov9I4u0Tb3fE+AenOrjMeCRH67g7HzjsRA8CBG44EAZtDkCAS/yaNMez8bmbw6WAXaXFVwGw2I2giSc4Nzni7QtvrzQTkGX7MuTR3V+7o/bdXNhmts0YQpafoGl0pUTSXDNZrOV11ByMbP8bz0oVPlsdTSQ2xbS8Jkf3pQ6HxK+PCYvYOMQkbUu2DKIKa20mkErPgeFPJUnnuyE/tVJJ1GrPV1S36Ou/JtfIL83gzZ3XesLwh//9zAmSlpH+dscO8g0sp1fYMwGL7NiFJzpd+i3fipRWNaIrix2UKof3X8H+33v+fIRLCGSaztEeG1lXzLe1RGi/0MwjhkjPHM4rjKdv+JPMowZpXmctnPCsxrNQtulRvp7+0ljZqtK/E0F0fphEV+jldpU57UCufM5cYOd5MYJUm6kO05HGZo/PsSs3jRso1KLcx26wZextedrHu6VdoTDKNdSWKYuWesJ6RC4u9DW8N+Fvg9gmVTjj7w+whofKs8H7cKc/JycvLzXUT/7rs/1k0eAD8L8MuCO5078aRRs52OYQn9JPmF1We4I7V00rW+SZKqikM7PI1v3YtNfwKdMCECXZ+/+C/RywgoGMx1ILzClV0IrGwFV5pRfKsqfoco/UjkHZ6KD3tJYErybW34ckdltc798n9pwWsrokaEROHSC8KeYcUOsubPG3u4EE+19dduJRYuWNcLSm0wXPE57gEsO4doY2HMzUs5sBjeBUBm4+PAGLWsZ5UUlcmc4wY2vx0mz5GFUNAHtJ+TLa3A8+wgT0GAHedLrCHIZ52mmDeMVPYjY8od7g+T5xOGXK1DBcrnxzbATBgDw61pfk+/HhqPfQO1duHxVLDJnx4KwfpTBnJmb9eSYBKCplML+IJ6Ea6A+9Bm91tdrfZDZJkHpNTmOTJ89zpfdJezVumBV+ZN4LP1q0L+C9qjUsdbhfw4sVr3wx5DJgD1/e3kaSIO4soPFjna97Dh7tQMnNjJ+7aCT/WVTdr/pRzhm9McEugzH1q78czbebgzMEgsfYSpjCUTaaF/crO5BNdKXeDpJMtxSPTiCOb4q6hcSf2ytDT5rx6668ouAE8RCFODEVsk27r+8s37jDPJzaVJUTRzGlqy7WDDbgzOfKfH5dejJXzSKMjp3MQ91FDcyqBaN4kpf9JKA7avUWoh214Yf0b2h0UdRfi4sHrXE0rNlKU62gRn8qDoI/SjKvNYRJrL7R+ez0wh8f3kWEoYQs7ycEPBElhFwHd1fo4inEko/NdoY1K8JvQFsAz4G/QGkRLqULwyxAUl8wWzfiWD2WWt06a46EYeFha6QNyKm8Db/+Ow0gb7ahlbMbDDuoAL5uoC7xPvuyQgw5+ACUeJ/4mwIJGbuob/Wk9fx91KBaxCzDE4Ddf0EQ+554Ob7Gbl3GWhA5QKr07fNrh0w6fsmTdceuOW3fcP4yX03hL+2otGcRRB9RoBTuKXqG9dJfK7LlspxZPyiocQLVtaF6Q+owXAU5BcXFtSzwkkmjqSJND5O5jn5E4mlKy4QqUIP3NT5pq58t2V1nJ878r7Qu+Ywux9OQIFgBrdY4+m98Tlf4yoVUAYRea2gfwgF4S6nG5pp7tfgkGi+um48dLnFPMN5Isz56WzetcwMm/7CaAwRjXdA7EuIvcuMyMzIzMDCptc/3AetkiZayWm00vShHUhQCDqCnsjEMtCT02o8TidS8FLOpEDkAp9dBZQG8EFJXjKZYsaPWMztF+0umpfnIkF9Ns5zTt5+nvTpCz6eLGsUzfYhF+QKO6+E6Lbk+VDtYl6nIHPmJQvuIVNumc77qTgpUBd39DMYoyA4Og5ITfff8Ba62A8jIewOFpimmEr+dUzyuetnr2mz/yGa/orQt7aay2kwzTSbrKTLPJrky7IW1a2g24BQ8XPFzw8L5ig89oS7cbdZ4cKvUJjbLjGeHc71xOgtxOVfF1MpNs/XzqICw5MmTSJXioRmx7FANOxKAR4VTZmxOgOxZF9VIgAd8Rn9gUhuqwIR4+YzunfHCmBMWVoWaTjmQZ8+0bHXLaPtj2QVg3c9NNm26q5+hsQAP+NSLjtja0PzXfhj0CGpNLAjX9i5mlK7lt2Qzm8p5uu3pEySlF5+Y5c0Ym7G76bouFDPe9HfNg3HJabeyVW5oT4HNeppQfwp5vyZAxIfWB9HQ1ZrzzBeuskQFSwfe61R6ig5nc+nyZKPNN8oOFZGBIHzmRWlJIsUNCnkbmxLB+EU6viGHM+xfq2ID/A2gwAPwvITsl7YPsFGCHwgW4WiQnuL84LxGzPTquj4tZgOHrU96mCZsZ2KcPicTRTKNCBxrzTVjM3pa7yE7aQXARqwRIxO+gufxEu2lXSbQaYstOJZrVHOFc5f/EjNTH3Sc9h/CxHY7wJPDk/vU2D5sxPIajn+hAMmUqafTG556Ch+Pk/Mzj6chMYi+4liKKCXI8XhwMj4Y0s5Gb0b/qMhq5eXAwWMRtQg3xqPlei/iRFg83kqaaxnL/eLmWOtY4fXNs3jO5P7p7btAzp2ZOzZwKNGMy5fRijj1L29mlnM4yngAZZr6Xs0ecjSfsqBk6OEZu5s7ZS4+/Cm/IVTX4BHUEcH3QgYM49J1X6Wzf0B8KWlBNHluNmsd8Uzxn2yxgJu9B3LKoV6M/wQkE3RPdt80OjfH/6FeL3srLrOiVJmvkElnfpRMekol270AJopxEhESpXtDXERzgQVyqgfP1Y12PfWOrHMxOFtESIRrVC9aWbkratIF39pYQPTv6kuhLoM6pOaWmp/Qiyxop1yuwwN1tn6c1WZzVdQlB3PAyKqi+Eh4mn9VPf3YCYOxdgFLjwOEU6U8fTed2dkuT0EuATnmL8mfmK/umwynXsRSTwieeW+RHhcftKL0bmGyXclfT5xHpBNwaIs50vw+1O/Vsd1xAELcHDorrQHOOofG2+XIuIxhH+CbPtM1ZUvBDfo4t3o+cECO3E2bnDv2l4rXxODikR/6XOyA0k5i+9dQ7bACwZ+NgUA8IdeAvYAU5lNsLdDXRWsab8pZW8Qil7CfjiLZkhtZqFx2n19IfGMltmrDjMlMuNc6ustNpTgJt4kP5lgPut6Hvy1xfT+2LQwf84BsoQRwfbOczejXbRBDPPzhEPxg++O9j8CJNV8lmrdLbZIVeJA/QVCZx9I6b5VR+peP3qxHSWXFyqDc8wUtDlXVu/IfWO1AIEpyI4CfoQw6lNwuOmqKv2EW68mmIYQtGGzutPDVmAv0J3UXsS/J6jDPDfKLxPBrcYK91pmN4RtZUCkkkUjJ3ATEU0+Sq/gB4AiF91ZMeftr3ZxT9HYQCssTOAoIEHXiP1hxxkpVXmRbsew9msi22E92zgx86x/quY6Q8YfNpyrSo92LfjPmKurpDa8bXrLAf04MeVAGJXMiOV1dwP+/IJROSKWY7NCnFgweCZeF1tN2etjsQKEWAiwm2Q4ijtOnPco4UUHTqKbRmNGtnIK1wiDKH8YHznbZ256RNT+uUlo8/XwokX9CskowXMofZyfZxXafHyeN8Rw6bvkgzI+hK1QensZWVOEPeJRYhyl+CBdTTJazBgdxwK0IUFodg8CiiKCPFd7hO0Uk8fl2JrJFvJWkhMp0kZuoUN8o+5uazw/eoec/05VMAHt53/XYynXudHqD32tPtFurkOw5ht/2BLvxKb6Ap58rs6TNRxhFzRSIVxFPVqhwHxaOzQ4YJCd+U7ZkTIhcbx+IAor9QQZCAQBa9aHvtD7xatZTYD3pqSfSh8rrdKrM83e0wzvLf4r036k3eDvsEBWlAA/7nEfFgqUMwGFOMSwVV9hMqpR1xbV0CIN3efTVlbttmmS0XnYpPYzVh1jt6jB1lSxa8nPVYxuOZ0VtftCscL0dXDpF5WqNne9+UwfZ5TksppJpiSe3UTVuwQbeccab0kG2m6dnxNCGRJkmiKq9ZAACAAElEQVTJ1AC7bWs8CI6JZANbsEevEBqyfDXgd9FgAPhfgr1NCuzFeLhKhrOBU6WFjZNUO0e+oEqfB7qaxjLhmnepIoam9MECQT0DAJFeYTG/F/OvoG8j+FDnVWopILg1j5l6uU6e0UGfJIgDtOc0SbALvIe7K8jGlxuff1je9fuPXc78InNK5uuILWQw7QjKq5zCueYLoiig3IUk0im+7BZKqKVF/JF48OBxbw7dRDuR2OIDdTnyhw0ItaGDhTcRDxsp/aURJ2pn3nw71V7LVt0BciRLpL17fVab9E8y4xmRc0j+5bmVBDkquEpvwpELzXTxGiVOqgU7mcdpQ0W3u2nEdMqOOoIqEvGwHQii3mBY11/3095/hEh9w7HP3gvDMayX6j36kE5/40wZKHHSFPDTDQ+/2LXBH9yLKGAWMBHcV7S1bYaRcXKK9JcoWlNHEOQxGtHylKcIOen2A1yUDiF996R1WX+gwzOsfmNCN1ylVFOHWX+B/kxQvD8M1sclne0gm8jW8baq/bFpUWn3wvq+BXUFdb8JqnmlsmvNlXjNKc7Rco7ZgMHgcWEt21jV7xWqKSa50ZdYXMptcwyC40Q8LjofoP6Rtu+LBy9qrqaUIpzaC/RzfVOOWHQbJWymNWfThEysfTR7W9barJvou7F3ztU5V/+2wdUt5lpOYhhvaltNYTh15kFqvJ+L0fvxNV4FBMK9bMAzNPSUHGi7RxCOUXbeww1vXpfo+9RuewFHWuFwZNjV/qWOmamrM5tz8trcws6523/3AKlY4ogYAEBRc2L4702hX5wvQv/VLOFvgYRcUZXrwvKvw4sPH+3x4hMvYDD64O9wc0QkbJO1UsUyaSbT9DKQj3hci+rW6whu4afSdlTjYltHDCHh+dDUt93d0AHffIyf0FewiX40bZGtX+izGoqM9uOX27v90OOknrNxVl6xYu3ya34zDJps8TvTWeC2YlzwMefb8EEf6kjjum+uIIiL5+Qv8WFINM1QwDXh9qfZAWuuAN5JSNhk14QE7KGT5WzzKSPj25JJF06uPIhtOkmvRLPWpH+WfimS0yn/2Px/TAL1TOCh4Ap2EWMSnIHaHQ81CGgeHXT7Rz9Kd9ZLx6v64+Lg8S4L99Yn4ac71kd71ByJRYCTaUGQLQeX6XQaezzdX3Sbml7c8fNoOQ+lwvTRTbqLe61T91CNv+YHXB5jlFboRj2XDaab+R4vxVTvaCzTidKNH5/IbkS6jgqNen/Y5VzM2vD7nQNTmzoUwWEkDi41QBXR/DJipXymx7m9ZyBv0JN73IPcbfY653Mu8p5oTjUv8WzGlanrM64E/0z/1+7nzPM96vvKyZVreJciWin6Ip+jT4yVkaTTdAgEqaXUuwIQjERCrAaHy7+6bwuGxrnvHhRLkPbSXE4g5bQ+ejPH81HfR/QkLBOXNBKVOmlmbq7ZIBM999tPydqTcu+fkHN8zvE5x0PWoxlkgL8iu9OlueiyhOvXbMuY6DxPHXMkbWcqh+hGRk17jNXSk4V3hwx4QesN6eNE1te99wnh+pkhGByMnsYvfEjB0XN0QZzotSfeQgZLdN28PlqlKdxtPjJRto37i303LSX1jbTxBAtKCs8pKDnAXm5AA/4aIgfsmrAh4Hg8uKBKEKFKi9kMxB46DCMj5JRDh9EScIONmEEjmm5PMMVuCzZUXIbBkdu9C7mJhdzY5HxqsDRpdB6x+CUDF4cUGnM7flyCdipewGOeC3v6nBnWI7CXXg1owO+igRTifxgRFk95jefNG8AuevKJeVLzzVZELTfKg1J3fAW7KSThqAcAQ1BfJxRbfEJYzN79FFkwQy5IanciBPECZfo5cdNKZJEUyNk7zpCVkiInO0O427bW5zWfOnOWfPHHpGXmM7PZrABZqUPYLhO4nCq+cp/gM86U01p8QDEO/UefhsETugVEUR0XinG1nnAZEy6j/1rp7sKLxXXPpxIv0aDLidHCx4cwTZIZWrdKxsqRcr2TJS2lloWM1GfMD5z9m+U/t2PhU3lluGySVIwczGppjwBBGUWLYUEqicb1bMfBov6ZoZtAG47RtbEHprdNCMkJtMEQJCg/sotMstaezFznUXPQlw/pQ850OR1wxc/1dr3Gc4LGo53f6vxW57dAN2mMHsZbvOsJ6g73DrnCt8Y+LovII4Ptx16JhOsY0tdzgHruqzeABnqFbl6AOmJoOq+dWS8Ha1xgpFlMOzVOKu3YSA5X7H3w3zNuljm5LMbwk77GFzzLD/oW84BisvlsoJcAdVQQ8u0wwbvC7+9b73qE9D8EIXSQS6QNKT/P98703mSj8s72neY7xHbmKY3VNkzUF/c++O/BB/YT+sqHrHcncyKwK/gJB6XMQKkmOaYOgxO+rwd1b/t72t91wn8/FJaM7pIWpGy7GiU6HEATQywza3Kkk7vtdw7+SVqplXtGRmVEDg6KtbPDsecRvbuG35f+95RudkS+GATcCQhReFiH4MMDSNhLaX84WO+Us1hrvzf9ZQ3f2OES6/TSL2mka0ndNg3wEAQMCu45f9O4jwvNXHY80eGxYKhhQeM0mcq3cjrIG3ws5+qcyrLyTrtPi5BJ/oa699yhdWuokUk8JJPsCHmMx+UhYDhvkPDNTpJoRBInYXEJ8H24vd7+G/RX1DYFogm61xNkJSmtT+BonS9bDz6GVP1IXgR6aF8ZZj7e5+Afhu0rM2QG6Cp9VJfq4fqgHqN3AndrC+5adBBbUEzeqHB26Z9D7w1OqKf+kXVhKaCI/1Q8CNWeYjZTzgfHNseSxHQAUnhNBjNXvuF8yKnNa5nXEjiEHjKPX6QPWcRTI30ZTBpQxqFUv/I0USQThFAaOg2lwVR3TT31TgxxdGijUKiUXU4CW1ne39FxMt95vcfb9hu5zWnCQLmXLznD5Lujm97S9GrIe6qwfd5TEHVw1A+ew1Eq1ctm+4rNlZk6R7q6bcwgHf/FYBrrSnI/e5AADiIDQ95pgVPD7298gHrHh8vJWBys/1MS2Y6PRvIw77LrquVyPs/TFWQ0P9CJKp+1QwIHkxZZl/aHnOvzyAONH7g2J/NWPByv97LJLuUmPVknA/3YqIOeyySa3ZTu/AHFweOcCiiq30WG4V5iPeGZrCsWJahLiCWWJJAz8Mh9116tNaTrKpD75DA66QhdK5vkMi7ypXvv9l7SsK9twL8FkVBXNxQaIKF9tjG5eBDUHhdaD92v8eMj2jOSWhx8rYtIZCu2o49GbMKX9Tnb8ZPY6DwqCFJtqxA8eN2rcQkS0FFhD76S8MF/aPi9kX1Bg6t/A/4UGibK/2E4a02a0xuP7uAQezdHmLNYq+31bOdWecBeBtTKaN687h48YZdTRTG6OPz4WeFy736qI+Q6vRZwcZxr8dOE7dubs1GyWfvcufTmEk4GMqnhbOs3P3sekjOprdxW/kbljj/WW/1arH1pp5dqpibIWB2lx+pW0DQCmnzjYygVFDYtJgDEuAvwA15PMn7AZ4LhsvbASvFQB0R751COh9pV77HeEbP2tVba3ekk9wKlEsXt7iR6yARaILnP5z6f+w9Rrpnfp+/IHCqNdajO5Ep3qnbROxkR/w25VNJm+CEQMixQi+L1Tgm/v6Z+eptK6lCizFACOPiAWn5gyVs/SYH9Va3/MHnNTtPvnVE6WRfq1ZyX1yTvwbwm2NXDVg9bPQzI4Vlpa75nWHCgxIE+6r/bnNMnn91sw9u7H7U4eHkYP4rPW/f3tLe5iwDg8eXiB+KARFpx2Efb+Jx4TgPmE8swXcxX+jrBCFv676CpvmHa8z5WU8zjbh1e+5lT4r2X7SzkpAHvEsCLQ8jHI8pzQvj9FfXUv5YABp/pRi1+fEAcA3XJt2XB54LbTQACNjDIbHI+9qTJffYbnt2v/n3ZzXwp5Ax28zxwHhU82WwVfvxociZ+hChCvjc+z+311tsP+Jzy0LhxbkTxYkD6MUIXbJ1Ia7qwDWhNF7boKwVSIAW/40+jr8vRcjSCl1rAh0MdAhTjI9ZUEaItDN1hep21odLk/z2lUx2O20drCeB425LMJs03s4mnSDcDAXYT2EMity8GSozeyBrZ5dZKe/M0N9ky+QUQGUjRrh+po44YwI/BZ/r8Pe1uavFj8XnyqCYKH9BSP8Zpc5PudM7nPLCTnCFMdhdKru1IKoP2VtuXbi73pQM5vEE/+zRN+ZUHgLbM5vNfBxIgSFJuHn4MXicBPxBlXvqbxs2luFii9Ex2E4UFErhL3z22QF+Rx+gP+rI8yWnSJHt8+jXpg/bNYpD3Wf5h+YehlMskZmuNPCNvyzSnk3wp78qn5cdgaEbqlz4CuHgIObv6ZPjf1P51BBGiPAOpCue0CBLL7uGzYn6KPstzEqSMS74terU7R7frySq/kXVKW5krowmyiR16uI1iN2e4CcA1ssgu/noJQoCiVXcSxBDneTI0/qW+83t4vnWepw4hSp/Ci8HjzaGQVP3wvC+IoR2DAB8dOFPWyEk7u+0ctIe7Bz6XMVyBq7skUX/gNTNCz5GOcq3nYRsl04BeciU1jwlJ4XmyGovPm0gA8Jmp9dQ/NM9G+UIeLx4giSA7RqyhC3Gs6reSGDroDfZJOVMuotyctGdd+gPINDtFArhSFkiIKdRpTJMb5GtnJM/JkfL6tqEU6w/6+cwcIBA2YRvERjiC9iYz3jOthVnMHwllB9AdFJJMs0HNxWG72T4wR+/RVrJGy6SvfMY0c2V5ccmbmy5As09Nten1zv3QgAYcEPb2MOodTt89D1DUOQrBYokKGeb0fCxesBW4+FBtjhfB6uZQtiRTHH7uqVDom+zteRXxCGog92vAX0JDCMD/ELqkdkntkgo131Y1qz4Ej5QwUi4yZ9if9FW22CvlKF0llcfGUCVwxOCHSMRLnH5KED/WnBZydd1v/4Qs5mJLEFzUgVYUaO70HbpN8yVp6w6G0phU5zbPuZ4o9wL30eD04CuOl7odXXbV/onzP1rkNrXjeZVOFOsc20aT9XAOjllrussj7G57PF3xcddCCbGN+oeGntozMR1obGhJKHGcexVe6gg2OpsUEqT5o43lqeAkW1r7jsQi7DA5tItq7T3ddqgqKe1SdhJBYM4/CpIj+FXfFj8OcbiK/kitxLR7i6up1qqtccQQhSf/9jApV5jFkzsPuMND97Z3EUCwMo/GBCRO3+V23c1xr4+jrSSSxC2U4lBjLyKdJZzBm5HHwzctUvdpzeU1PWQa4OAAAzle+qcV8AYBXbns3ZAzZ1nvMIv73PDjOX9Z33/UXHQHhiAB7zIqaS2Z2w+zj3MTRQvfl4vJogVPcgbP8oxdKEdzPfkEmAa88jvj5jUe0saygjy5SS9WCIoS2+JDuZ9Sfb9oOS1pQnD7QfhRxN4aGudy4O0e2jJux4eC9bMdkPjn2ECcnDnndV2C6JecTAweXE3Tg5ju6YHAbwz6/4Qd8ooO5ieKSWQ3EMBD0P2BNFrz3Pdf05YdtLAdqcOLn1pCiTEPXP9QD2wDDHW6GKiRjOireJ7v5JXcZCaxlauBWHzsVMsq+D3zhTPB9ra9sbQwbZ3VGg8EqAW5QV/X9wr7010OlpNWxAKWYElo3IlT7zSdYRLAfkRhtdZXJz1oKt2L4nSObJPJgdZ4qCGfTWQzS4/Wt8NP7XOTLm87O511/MobwbfdL3mQaFqQwlsMp590+r4n8eTo/HbJGLz4Sk8htCGqX7uHYMC+jaUWjT2IJDlWEjauavZ21/Upm8ksvnB1YWkfWtsMm0I7rt374Y3f5t+y8VvIapHRI30eXTmSz8xW059fqGZt9RQOIlq/mBVFNYaYkx/FRQmWPRx2ga6v/iF/F7HLMPhw48vIk+bS0zNavmOydgVSyWKZvUCfoI05nbbA48zf14AXe7rc7ivFrX5Fh/mX6BD8ODiskdM5S055aTMteUHXdP2KJrgEKp8hgCBmQXjLmfzX1P6n0aOIjsTgIeCcRA3F0rzmsJrcmpeDJ7UcXXN5jS9459YXTbzMl3zpG3lsY6vcFrlJ2HYXZN6e1ZuBdpWO4UdzN5NUEf85tKaHlj6dhIcf8VxwS+i58oNCZb3b3YY9sJ4iQABPzCAa47I52RM1VL5350qtbcU0ZrvRwc91lfmaK4Fvmc1TG+/POSTnEMh8OdPJWkxQu9gmwUL7StQMT1HCNs4pfqbu++0xn16V8Irng/iKqXkcQQwp3Y/EjxKsbh4OWamv/ochGHCvx08tmpROB/1RGvXtpY+wnm2LwaWGQjp3/qjzqM5v4QkbAvYbW58zPr8i5yE0e3dWeru78PG87ajX2t4cTBe28yrt5XEZPPULhuEh6bJ1FBFEG72BF4NqRXgdjrgsR/YPTsjjhOG4eIiyVTShlBwH6coW5ly9C0e/1rov0XXSA0uP+DmNylu3oLO9U3bSmUjIR32yPzSgAX8X/tEwIMDk3/6JgkSO8Dv/gB2m4aDfgL8FDQPpfwhpVakmNYBxXnf6ey7iXNOIfuRIqbnXvCWj9QN3mw3osx9PIIUYyo+fRB1BXNs2TG6VFxaztwEgEDowaSF+Aqhk0ZQ0grtWciWH6PPdv+MEzpDTt4xlNvOokmuZoXGs06dzVuTfntv+z+crzzor/by0N4kXw2dcRaWmcgR3yWWej1VsIdv1Mjpxts4Ry3yuJn7duILvNn37N+ShfzbjqIxnQw7imD0L91A2sYlN9CODDDK4OdROePMuzPs078J9yZEybs2cl3ErkbQb4bzhJkw6ZCMb1pfCpcmblHti3qT657fOnpcxPqsXHrzEEU2QCjaxi1IO5Q6G055adlPJTrlH0mUZbHghN2nj178ZAGy+9+Do71F+kDtkPs29E8qf3+Xn2tLjuw49ahE3B4pi4xp5kbQR836ekogufau8Pof/PUi7Iu2KtCv2+TlycxXhdNjTPgVPFzxd8PS+cuJOPH57y4f2zCuRZSwt0s7hMjK+pWreJ8233lgvMjQAUlNTU1P35Vbf+2Zpj/6FhYWFhYV/R8s1oAGQ+n7q+6nv7/NzXLiM3EXuOYgUnlJ4SmH9kzDSvmfLNj2+3bNORA5oL4TL28NlUbiU9cu3Fq04ct/vLfWK1CtSr9jnu42w5kdcSiMGIyl8uvDpwqfr/91m+tqkZq/dE6saCSp6I1xWh8sLw6Uv119UuLHjb+tY9tjMYNbReEiRBBIIslY3s4lrOEa6cTA9QqzYjCYqxEqx8eKcgpxpf34d3B+yR7X7ud3PxIf/DK97EuEwCZMNasRAm7jx5Q3dN3SPrEPQ7eHmg5sPhoqRcbvjjsRQhw8f1txsP9f3ydcHZAxX0JVkytlNpQzhC+ZDzoK8yrx3D1zvds0yx6c+CFHPxh2UfA+GG7WX/QVb92zNE+VJ5nXfSdFL4++2j+IjmgR+0Bf0Ou2GCRsA/nB9TD+37eLUOMSz2pPmSae1vYfD9RenlvXsJs/dJW9zMi0nd2Azi6TjNWvxEcDr3hYKZXRuC4vZOz1g5Lu5k9AaMhiHIDFU0lyP1Y8P76LfcpuM/j4DP00Imgd1FJ3sJfbW1DfTCtLOJfiNfCPf/H+w221IA9iABvyn4b83DeD/B1PifxaydqTvTN8JMZme+6Ln4qn+xK3yX2LeIZc4rbSnMoqOcszRD0lzppL35Q00YhfxuhWLF5UlhDZfJ4fFRTZ2e5HkuBMwGBznPiy9dMnD+Rg+lmNuzCAWocy5irc5WFPdJ8klhcZIzvF57+S989c3bKlrMjq0v/EfNpgugofbicGlhovCsb8Rup0DJVcCD4YgQh7lZFAlN9CTR+hpTpci900ZESyzz3gO1nf1XR4252F8d5ij6o5Hc0fmXpt76b71apOUtrHjTYi7RIPmOZRPyKMXid6PTafgs7zDXDmNu2lNPuU0x483/P4DRRzRbMEwXT+UXeyUoeK65TLazDKdAjN1Lt3pJ+fQk3Jq6EL07hUlPcqSqS19rvS50uf+ob1zM9q1v2afjXjLcPlxuNybPOmAIR0oZz2OxnOKFFPsrNcPgsfJ1U4LnrFL9GCOYSo/MFO38Y44eHJW5ifk7tj/TVBY/wgiekY2jrPC5eHhsmKv//fX0ZhqShDGcRIPUmlSdbt1ONQZyWrXxxdyp/VyNoOYS1tOwKvieU/GEMipyY3J/Z3klL0/zu7ZfgKS+IFZhRf1BfkBh9g1tYH7KWWu7cm3KK05lwTAT0UkBecBogkp7AJu1Ae4j6AZanz2a1r6jjBNA3ANZ5gFbOct7aTIVpwNkzdclP/Y791onXfCeSdAat2nsxcswfCK/MLHWP+6xNr4Tgxwrqw91H84p7NGRnEalcRQTOnfEALmpYDtKJuZy0Q88lSwsduKUuee7V1Lr+ZxPpONcj41tm9CZkw5smlIScmmIfuO2/Se6anpqdD00dLj8wth2cBeZwa6QdpZOY06xfGG3iaXmhvoSRKVfEA1LoZGf4P+cVgsQZYQQyxNTG99k+k8U/eDtJbjeZAHJIVmeHJ/yLXrJhOMqft9MVnjMppmpGPMyYg7Fctg4ANSAz9Q4z1edtiPaOG01SVcBzwC7AKa1Fv7CCLfY9NwGTlIRQycnsLMvA3rH9//d5v5fOZ9mVPAE2cr5So8chXCTwTdl6Q1Q8l3b9Ax5iHauCK9xMsyfqCcz4ljM4aYes9DkfkhIWz4/Y4gQYKcH/7dhEklbWFa3pr1j/z2YNsn27Zv2x48Zb7C+CswfKaF5GOlmb2w7hM5NPiSbPQcpa9RiEsspfgAtx7rVAR1GDy4ZFJFCcnup5Jo3uQB31R7iNuFaQyniF9wShO8N0Q/g7t76IYTf7lgXzFZWRk9M07Hwxx9W/sQxCUZH5fo81pt5ktMcLa51Jukp8kOVulOmupGounyN9xoh2YslwCCoRHleIliFADK9+HMOE7hwXm/rn/wz78v/rW4d+LegWbvNklpmkCM5JnHJEZm0IsuxOhI3uVdnshuRTOC8vmPY6nGJT7x1nC+n4zwSIrc3O9NYuYnlD0iGyVI0BQCfhLfaSrLdRlTz9ylQeYxwXS2g0xjvdbWaQ+3WueSn/9CwXn5L/z3ewI0GAAa0ID/NDQYABoQRvaFGe0zhuLYs7hBDqO3bFBXz5OvWI5POmsMy+Rl2r03nSA5lJx6MX48uO4yBAWn937ERm64o3FDPNLEE6Ci8nwe4nHade8rZ8r5DMq9QtfrNirkw2CnQL/ghTq0oKJodeFB+9/4ZR2RuTALhEL7kH2UGJRUkqmmhXhkphlNLt+yXB6mDqhjOZmo7pLxhOjnnD1M4wcCoQrFEORQfOySTF0pR9FKL3X7MJdfeZi2fKen69W8QiFtSGQdNrRF3HhI/t35d/92I5HVJ6NxZhPiMQTxUskxmqcz5CxmylFyrnmYMmLYTS0dCGiJnBdO71W3R5MDQxCLxZBCLHFU6yfcQTq3u3WSq8PZzpUy0t7hvMonsk5byfsU8yiv6eHI+jc3JW5MRzNXp+/KqCKWXWyhnGo5Xa6XYezW7axjsbNRDiYLoT0eSnWrHIdi8IRv5PUAD0CKRbDhSPEEthJgIG253k2WRQznSsU911xiruHHwELfPN/LVPsuqNtWtw1yT8w9MffE30Rlt8ponNEf7CQSZCDxNMFPNZUyE7/ebDrzEVmSZQppi9HNtKQxtQSIDfuySD1mIEWoxuIhwCEks1nS1fAufp3jpusZ8gpH8ZLOlanSmU3yhu6kGZJ7Se53ud/tO16THkk6LGkMNB6dsivlTuLZRjkVVGquXaZV5ke5Uc6kg5lBAn78fE4QQYj/G2ZQJXSD6EU5ilT9gng7jR7Oo7rNOgjnkINXzw5uMTsJ5nYsGJh71r76Zz2VNjxtOPC4SXQSSMbgp4ZSmvCiXicVVNFHhjrPAi5BXiBEFlifvOi/aS/UhXkRsliH0E7Ps+vxSXP3XmmDsoVFzMTVy/Hmnpe3OPe8fT12ImRjdefW3FDzOtFaSxd2UisTGM25vMqHzGSw51qi2EJzMlC8BMKsKVKPA50i4W8hSB1+NpEi2XTSubTiOteHg8Gvb9KIakpplJuV907us/vnwMg+OaNLRhdMyVI7JCkDbTLNSEkKqe6TTHFmSw82k0G1k0cCUborREEaYowGDtQQJqHAKQJ4KadaMsllF4pHP9cX2anfuc0YQA0daEsNsQSIzW2Rtysvas8N+x5kfJpxbsa5CM/RjGYok6liEAc5E/Q+eyhJerAMMh5zBK/gYEwFYPHzUViPA9vgCGAwBFGqqKARQTYhkqILaEsSbeji2+hbH23cUvca98jgLdS6N9sd7r2YnMa53+eswWa3yjg041AMUaH+1AeZyLccbSYwStPw2BrKZJP5kca0o8acgReDn6/C4zf+APVWwBLEg5JAMrsoBEnWD2lKAu14VJJMjcxx81mpz/AlX+tsJnMFnpwTc5/LqSSYOS9zXuY8MMfZm+xNCDl0pCOqr8qFcjfDZSfTtQKfHqvXyTL5kidkGMMdSwlt8dAKD340ko/8L34HgkVQgsQQIIok1rCdKGmmz1FKAWUcok/op/q9HUA/qsjULUSTiENcbqf87LzkPZ5h+34Hz2YOzFyOcJm8ylwa2wp3Cy858eSyG3Hz5U35lDZT6niHOWy+yodLAOt+ExoNzqFhMXuHEkbmjWcxKMKZ+IkD+4ku4BRiD1/LJr7k18UPk4wQZQ53xsj1ssr+VHtb3cjaTtRsOm6zf3O9/T/+fWgwADSgAf9paDAANCCM7LPS12W0x7E3SEd+NhPZrnWonUBnSvm6zwrpL93lwsUHEUcccWJQLErE+XpKuNx7Ibeh9HrupXiIwufMoA0FxD+1RD/ifNpe1U86MIBMx+i39hctclt6Fvo2eGDL+nM3zN7w1v4P6Nk3ph+TXruPC2kkT/UH4XJNuJSND+V/kR9d/5vnvwvtfdknZJ+wz415q3AZ+eAiNwpmvX/jxxs/rr+rf30RyQ7h/6JqrFpgA5/jB88XUTvlOS7TM+zXFDGDttIHL0G5huWkwKYftnQtGP/v1v43ZE/JnpI9ZZ+fIy6ckYPNngPfxnEbx20c9+/Wel/0eLTD/E737zOO2obLyE3UxnApK65fN2jNLf8530ED6oeMQRmDMgbt0/+RvMoF4XLPOM6bnzc/b/6/W+t90ebaNte22YepYM96Epn39ozboslFk4sm/7u1/g2ZH6Q9kd4CBy9evP8QAvYm7+kcDudiRsq53BBKO4s3t2/ByPxV+xqU/reR/BzEK9h8sOGMGKrERp/SaEX8+3Qtnl7WY+epLA2G8tTTJr9Nfpt8KEovSi9K/3drD52XZrTq+BD4+9peNS0xdCSWXljnftntncXdbq52CW7iTSzgspoOxNILs3FIwcT88fuup5F1Qc9yj3WPxUcvNfKkfEcVv9JGe9OBoRS0G89mieOrn0bhoxW18d0QgnjoRMi8Ek6nuw+reSgfiLirEKrwOz10PWnEvfmNjLfZ9uNzjsJDa2lnemq2c7050ibKLfYKW8GCnOL82XnL/v3r/4GiwQDQgAb8p+G/1wDQQAL4NyFravqNmW/jOO/KY4FjSLTv09mbg7JYRhAEieF9PeHaB4mhDQnyGorFdcMLkfNEWMzeB/86Qpu1I3Dwos5SiinErTpbl2tPbnyqt8TQlDZAEqVssgt4k8F6Gsf4FwbeCoze/wEla2p6YeaNiD5UPTpwKkF2xq31XGOe0xISKbaXSjeuYMRZ23QBv/DLWW8RQNCK1pnXZWRnrHDOCYs50HQjwRB5mn2RIB7qotpIL9bJyQVfNYtK8LWumXB4RWVN7O4ODKp9zB1X/S4jNp6XOyAnldf2FrR72+5jak6EhCcTXo16XnJIZCdxmkWBztDbOv+oj8lUOt/2AJtpy87aozJ9GZdmPCBHh2IOpdWBKE9kAy0aCqqokyfxYsnUcXjxyl23h9iN3aK5uMAmuTI3Je+Z3A/1qYgAz1JzgmcpjlMR/76eJ1eTxDZa62Ncipe2aVtpJ5frg/ccQhxj2GTf5kOm4GNzJhljMlbIMfUbrboRsBjdiY9EaqN+JImj2HTvd1SyjZ1rnsdSh1c25yblXZl3kbber6Rhbi+3gkRdrYlcY84ljig89hkZL8ciZ+TrO/Rj/TkFuKQQKH8mc1jGmIwVTiRa+sANkIJF7BzqiKEu6mfpwTLpk/+eUxH8xgTvED1elnKs+50dYEptP+7MGZ8/JPc+7t6fuPKYugF1LwCj5FadKZUoFqPxLGKeHH7NLrpzpP506GhAkapPMkdmjMk4wRwo2eVeY8k2R/GgsW9LD32arEUr9R35hIVPXEgdSQTkLblfV8qFem7O/PwxucX7xjBnf5nqprp4bIHzuGehuRkvdVTbe+VCHuKMEzbqEgZy4UWjcXAJlE0O3Xw77/wN2itoOR58qPdYdrKR6G0bOF9LOey2NTSiFYHamZzNk+TzQe5t+Yfk3saQ/YnLSsw4MqNAEjgIJF0rWM8aXZ8ymJ0MxfvQI1qEQ7H3YLwoHvtyiEZOLq5XHURzsDj49RLiqKBZ7LdyOF/L+Mfuxo+PyqUjcXHwm9NzcvLW535h/zAKO/ObjF6Zj0s1itJcY3EJEtO5go700UET7sKDw6rAHBQlhlCiNZUjD7wOWNClBFEsDkn8RJxZy086mLm3FtCDKA4vuoatdGGnDDeJZpIp0DfDNFT7HIg6XNj2wbYPkhhY5X3a28wcTwqlFNu3ZJf2144XfqEfkEH68T8iBAlUtAYEcUaHH69PGqpfEXsTgo9A9ElU8S0919zEd85RNnviDeZl853WMtS+5x/hyWZ7u8qszlmdWbQhPmd1zuo9BhBP1GpvpW+9mUIAwW/H6nSdqp+dcTEpcjkbzplLLVBZHmI9MM6De1qxPvjF/oxFWBR1HElUSdtNQ51JTPSOnpAYH5W8OmmDXapb5Xr3Tc7VaXap/ej3aFRDyOqS/mFGoXxFEgV49Wj9mli2dlxDUGYSdcfV7OIQ/LVn4qMKMZeHvcEi+7m/7BFTC1onOputxmfqZBjKFpK509bpVFt+1+f0E8fE5K/GpSnbZRLPUsVuvQOY+HvyIoberKsy4zNTCHpO9hzFMdo7mBhsxq9ON3YwHc+GR/RD3Ub5q73kCDmYhDHdqAMC7ngMIM7+xlHI80KdV4BoPPSQNCrxnDWLM80ac9AjjSnkK9wflkudzrBzzQAd4MQ5A60n+6j0u9Pvxr9xXP6d+X8HhWgDGtCABvyXosEAUE+0Oyt0k2u/Z4bW4Q220BM8hSZZNrNba+2tnEsdWw9R7pcv5dgzu6M4NAKEADi3ENp03LvfFyiCug9hCOJx0G+0mPKXs8Qrb7B83Q0SQw5LzY7ABnuhfmH7eoebKeZj6nLn5+Xk/g49XLtXU1PbvQr2XpkTdPBJbuxYz9nsIE+X4tpGspIy3ks8R9vI0/LwA0fLwfgpy1yNFxDtE2brra8T3c7QAu9+Tx0G1zmCthTor/e23v5CxZjNfchCSaLK6SoddYoucb/mvH8W0OO8brd0uwUqOpS0LDsXQwJ+HjQzNAc/v7hIugwnc8xl8j5JctTw94CV4IYP4E4kHVbVn9Z4XwjYHSgB1Mwjnk7YNZ/IHM8SCWw7n/l6lf7KXI2185ig/cPP7DEA8KSO5ElE3pO2bDKlBAiy3oUEWtBiaBuiKZP5571HFL8Q5RaEPECcg/8GvUH1WQxClFzODsp0+c7z9Qd9WGuvTUBxyQLSJEXGcs3+RGTdkLo46wbgCkboLxxDB4nWi/UFOpJJBlCDlc/HutKXJewYeGRoo21vDT1tqv+Eln9QBwD3QnwIODOppYCUd25zyz232qGuX1JJINlMt1PU0bPsy4wH7vsX8trZn9xfOVpmeI33BF6kgi/4BnjU/cn1n1FKE+kmnft/gBIgYNMBQUx+vesBgLskVDqHYCSLiuCjcjHQjLB7tPRkiyhlul8XcXeEMcbgmEFMY6JcG2IN517NJ5GagxrJkazgkzMW4AIa/DZ01PHc/7f0g+gNRGEIyKn6K5WkFi3Q7/hQnp24neZEaWkt8iQdmCq3/0Pn/T6OZLH0ZyxttYRWPEhPXBng3cW30gnfmdnSnxikURCDgoZvfuXvuOFSNNgbi4PP8wGFNMG3oA/pQJulIed8rwmknZlenvqClYLZ+YmFF+y/IjKBlQzhKao1h2ZALD7JLj+WHMkkYUg1cbQikJiDEsTomlBPS/2+a9gaKuzwkDzzNZXyHd4Fo3HYwbMzABzEtOQEuY9prgKD/4W8cinX3XwlDiX4CAKt9DWp1vflUOnFdWc9jkHx29NClTYRssFm9eyKQsAikgok4FYcrj+7/ZwPX3rWVrmWxgXt8coyjZaXdZt7o31flwCjGb3HkBHUl3ifDXSljmJqgG3ypRyyO0H6UMqWM3eQQgqx+hQuQVS+CLUXhx6gwhFchcUC3xJPHFG0tgPoG5j5YQ/y5TbuX4iMwKBmsDPMecEpsaFsHFf8jgfDUn5gljYzbXWgXgN0phAnP952lXxzco/H+ZHtSKdOeAmgemk473jwL2n7exAEcWdRh4vrnE6sdNL5xVfpEJ6TL6+PphWNqTP5ufeO8B271HWz3nntq09zMDln5B2dl7WvISlHcitzS7Bpszs/08rB8VwRSIq+XMvZyS4aAQ/Jacx/6gR2E+CDC7uTiAPenwmiwJFhk8yXYXGR/WrEMPBI6I3uncRRQ50zk3zyccetoZITOO+8zrxLH/mAMfKlO8M15NkmJsek7iHF/K/1BGhAAxrQgPqiwQBQT1iPaexpjpHZdhZJHGTfNEn2DEJpzpaTK6+TKpXXnkWAbGI9P2MI4LrrCcW6RQ7+e1u6A4SW4iFAAL/zGR7aklq9VvrLp3w+5Q560wiX+7UTCazQamesfC/vssW+IucjKC246Xf1fdPb3b4Bsjs4RJ7A6GBzFp2da7idYowLqbqOvqOPYjPtKc98PcTH7w9HfTttwwvygTpxh3KTq30WF8XjPRVlt/5a8I5eT4K+89h0mjJTFwFKrNxjY3M8+bvyzmLV3oJKm+zOKnsM43nSe5fznKRyOlv0J/d+uU3f5YWkN4iTc+TQod9RHY509qBYe3x4y15fJ/RKQCF4NS6CRDXT7/RtzHMvc1jwUG0SfA0v7zPYeUCba7p+6Z4H/MhUyDw3TTPPBb2M9bzFxfIk79lM+wul1DEU6MxQs3BIN5JpTBHg4oJ7TzhePhKreqCu52HGBveNkAeG73LS6ILn40lyliSZHTtOAvxg7iDIMB1kXwZe4vt9BQUfkr7Bh8DZwnrnEEmkSo6QGK2hggQKWxxBiTajvPt4HLZheBfFi9hASAetf/sLgrqdCVKL40AXXUr3jx6mF1ls52ptgQX5Ji8jPzmvJ9/+kUC5yRnv9OABUm0fm6J98HES/X3H0FJ6SJdGmwngxyUbQTBut7+pHuF+DN4d+rcDXrrh5r6Ey3zgdQQXZDReXtSduMDw3026tkviJA4FWtKb2jBTSOjgauzD4XRaD4a+P/em0Hcsveqpfxh2OIJFvaH3Wf+9bMGlsY3CwUrI3Cb6IH+cgbSYiZytN5JiBvEQDxJNR0kr64Vf22jjop0YtrGrURqCB0/wRkBRU19yrxCXibg78GEJeNBaluNpslqGcziLAR9erA51fmaiJ33PgWT/B/ZEUtXRZXqddBMkmXZ49PmiRXI+zRi2ZBxlBGk1OJzIL/BZuP8jedEP9PsOzc4aHBOKCI+CZLbR7OhF9KIx8TPAUouj99pz3EP0TL4m5JL+096C1s3cdNOmmyCzOKNd5krbgS04cjZg5VDWfjxRjke1zc65xKOsazoHC0QHB4XeL53+SZ+/Djd0oA1ejIcqnIS75SwuoHTQXeygs1z8fKiFjMnTJaTrz+4+IQ2ZY9M18yX7Y0Wu/8cW70GTGbEDNt78xWT/QW67+LsXb6CIMn7t90Gonfyh+VydSCjegXJKROHBIMEgVZTjRsFsfY7ycz7GK2k0XtgKxUMMQ+04O0ebMC57SvYJ2VMo2yc0aoOpNC/TzZbp0fqrcwhlCN7atihHctE9j+Cwnjde74TgozJQBCjGiXiGRdr/r3JKhGYJ0aIwu8np7CRdLrzgVmJ4mpue9LKeEprlT898+zXnM0ceZQsT+F5v7XBhhws7XEjtupnrZq6bua9g38qKqLhqrPuUU+ZusY1kmIzVReYhvqMHn6xqxDZ9Xpq8eRE+OZKcc8GHh3h3YCjNsLO/faobYpFx5lGHRbibn2mKd1hH2hLQHg+eTH++pOjXEdwgGVxr2vCVdmWabQh9bUADGvB/Hg0GgANE1mNZj2U9BtqVNW46PgZoiZxoNkmt3o1rlxHNAH7u2Yh1ksQ5w6ZhUbyEtha6x+V/f9GXnnDM/12hSEcHoIrur5/DeM3QHWt+ZjkVuI6pHZz2RuMv3Uzf+AKneAPkmdxj8v5Fr+plbsC+hQ+vc4K0YCn3SGdauAfxmo5kW8KpfMsIyq50qMYigAcHvCbk6iuR3OnR/DXonjJkc59NNB4Mw2ivS6l5Lp8kOdcUln7KUkp41plbc6pcE+VxT826OH1DpoPkzMifnOv+tjH2nGmizJN4uYmuPGhaMoUuMtjNo6m8TMWJD2JpSkrqTxj8WPteaEPpjcT0TvmL+v9zPYREFEPAmUkTXNpUbZWjmcv7c4/Dq9dTw2tUkMJG21JuNOdLBpZPQgKiTPxETyr4X63ODRbJ2XhIdDrrVI7hBDTjOLJoq87hO6mhnCAgGKJ8q8NvX1TPYftF6FAoPYgN+aBwKoWS9eEwtuLDAhYfKrXmRWkjo/fclOw7QCvkB+cePBzJBF1mtmM1jqCLrtHboI8H5FTJbPwuikOMnRTqe8/j4cf71aMOgnIugh+PMx4ljZJgI10kVn/4bqnE8ilrAA+FtLTTs07JeCnrCl7LeT/vvJyP/sWNzwaO1PfkHl3G4SxXgFhsQolk8IFc2TgHH9UkMQDFg/X0CI0Fuaee/RFBR8AgrCVBH6Fix6PUyigyAMVBuIhDbAKTWMSn++uQ8N1jiAysEf90iDSR0Jmwq3PE8OjUM5Rkj/wzwv84LCw3M/x3hJU+wiXyh+uNTtcueiovR9mYrTEH0TW42J8eCNZOt++5c928sodIJIUUQjOJdVaH3//pH8n9Q4ToKG8lSBADcjjD2dYylZ/1ZrqwhiDlePUIOV+a6QMksJqHmbp/A4A84dzoxPGxukFxNzl+okmiaxCayiK55JtsSniL9weDFx/i3B6aX50I10Dyn1P6d+uhiDmdAA4uw2nBeooOe1De1xEkx5RpCV7iamLlRoppQ0FWn4xHM+4gLWdp3vV51+8rznnD3eJU6LNuirMi2N88QQIFNNuWSLT2kw+/m40rPfANBSGIyouEDNut92hz4PUApYpAeN3MZQCZpybrbfSW5s/DLhJoozucqfZ0t5wWwBx+jXhAgFxtWstr3Ji4Mypm2xbnZL+4yfHnuR8STUc6vrUMwxJ8/ULR5AFnQYgUds+6fKD7Ije0bptJePHgcAex0oXmQ4/R0xio393ZmEqisMWNGCj30FRSudr91rbSyj3PR5Bgrb0NR0spkiPcC3SWzDPb+FGG6BscPduVPpJm4298mkSKSOx5BeCAnQEomEhoW9Rf1D/S7hWhKHv3VWKpY3vyI9zMEoaMXShH0In5Ny7hbf2BHWY2cfIZr7pJtadXj6lJZjswk98xYAWecdoEvkedVnQ2v7JO56OSxiwa4eEY0KekN+sev08eoyUZwzsBZWx21gAOXm4jFGx0R1hcJPTKCeu8BIMQdBegGJpEHUECS2TSVV+ySj/QostCRKVWTEA6f51yBzYrQ39RPyYnL/+gPF+DJ0ADGtCA/3toMAAcIHSj7W9PQcx0AvIFbe0D9JMneZwsGUdnTpL7+IxTx31CFUlkeFNwcAm6VxCKlXx6P2JDGwBlIAYXr/MNNSSwO/CtfsXxevaUMqLlRSoALxW00t5RHxSeWnI4y3JN/rl5nj9eyBI/jCpqdC2B8qfrVpfNd8ZRiVLmIs9RKI+O2oRXHmZZu4uJJ5bkoBeL4jqnhDbIOiws5q/eLIT+v9gpWJSgM4xYhJgdA7lLxsmrz6+QVFLoAnyGYaF9I+Y0fbF2MU7OjPylee5vG6OM9RnrM9YDMWzG5Qz7gH2CIbaVnCEd2ML3kimDOHX48/jDcdIODmqfDN1sSGRDdOCx2wIQXE8Qi3jRr3UN+Z8cI1kyXKfnrSGbVrQzLfRpPV5esi+bY/UtGU4QOI6nobJzceuaRIzv3pinveeaNLz49GAXnaT3s+jYyVIlZRRFd8KLF18wMez6H84rzdD66a3fhtjrTQkpKO6uF6Wn3qDbv5xBOQMZx3BmEUNju6BuUPBxdzkBPt+PvLVyvjwMKEk8yyYCVBIA6YLQZeBXGGx4+2mwbnjcSMQr5UA3XCHObnGfQTC4HshnN2bl3Ymn5/Uyd63vWPzOES/a08B71OZ1coxOzk3IHZ+T8yfe59Vj5HDukkTWEuBDlCAkODSTdSQ2OhWhbXhb6weVcIseeH+Ent+NSwDXPkwjGpPowE65mNjtzRjFiRxJiLNfaVu8uPLd4nf/RT1C6dNCbRTJbhE5fon2/Ke/0bBHz57QlPpBbKh/xUEEEDtBV+Dg5158GA0ADhJx2P2XeFez9Vym+bfWlNb+YD6kjkqKbRbNSGRw8UTqEIRHAUHdx0Pvlfr0wz9A/QheFKjiI1o060aSVPEra3CJJchR/KLPynHE/ZEk5wFnsXMTlfqyu8h9wj6DDwcYq7sxesPX2dKZaHkPUFw88lHIo8WG57l61UdAbwpnFhjDLtKISm+h3WUxld0OYwAeapZAkCEEzaycpXlr867ff7fYi2Ssu50dksVAeU8KcQklY2vJMl03N5Hd+KX30HCiPusQ8sg4Lvx47IF2RLhfi/BgcfmRWoqk3+Fb5Aqy7aLWE6mmhkabb7cxzj3eZHk8+7m02rRavXbjpQXRBdGoFrpX2jOAz8z38qs9hTLiaMaH7GQ1JXOullHEsPHODkRRg7/ROiyC2LABSyKGqwM1YARCxrjgBXjwQ+vVDNaXaHxiIxklCZL6MryOg5qm9DBlstMtYvteEl6QKyQOvyn0J9m7uFJLvZn87DzDx4wjKziWXgyh+xMtyaUtP754BQG8+O3iEDeKRDwL2/1FvSMIzx9SQhQulpFyJN1ocuHJBLlIv33ycN0il7No02MEKKaXPBAzMGpg7CINh3jtm24vf1d+IH8XZJ6UuT6zGL98yNOmxEbzhn3XXWvOYgCl2B+bkyxHy0FvPUkZS/AMD40FdcO0ls7++iMc+uDcQGhtWUwOUTQeuY2WMkYOn3wVsawlat0s34A1CSWJsphjpS95OiCrQ9ZjWY9Rl3NdznU51x1gazWgAQ1owH8hGgwABwin2p5jBLEnmMP0E1Mo6yWfRvYkSjiJok5TyCGPg4afiEsppZTgxYNxvgzd9Oxh29+7/SOuqMfh4FDnwBZaa95skQ+1tby4Mp9yGU+xuVlbkaDF9n16S+s92ZL/BMrv9ceV96SOr+Vcc4browovTWMfoJrP1LmmPU1xSARqqUWd0AbOSH3JwkJ3k8qNgIdYHuEnOnLQjE85jgJmbPfRh51sd86qmebdGJfjvhlHnVvuR5lN8j/eh+W1z2uf1x6yjss4JKPczDe1xq877A760o2kLh35mEVScdx24ogiDggSQD2htF3CD/Wsx3eAoJ7BKH6iWCVJOJz3yuegs2QBbdiFh2WyS+JMPxnGgqpHa8ZVVwFjQgK8l0Uf5s1gGAl8ajvY08nlR24EaS0J5vzTviSZVrh0oo5afCY0TlR+rKfe4Zsdezl+QqMunRryvhrkniyPyU/FbclmKi3Ntc5AXaJn2J+9D3h3eNL+hbx57LY/MsnzHl7by70pJoGmdcWMrRgmJ8d2PmoHW6nDIWT6UWdBWIk/JE/7k5WZiWCAC3HYysELR1Wsz8jUd7jWd2PRJHnH6ak/M5RH3FDM+dl/QqRfRlEtU6hml+5WaMpxkpU0iyq81MY1Jo5qknQzFpegOYXQnfHdf0Lyv8J0LILHU0YlWygFeuo23VASx89icIAgBi+jdi8odsuf+BeSqqmmGsGLQwAHDZkwUNBa6YFBJORRACqfhEMAjq53Vygg5oJQujzGaBBwnSDvU01zKSeIlWZAMQG9648PhLl3FHTML2BNVmZGx8xe4g8Z7oAo0vAXd6eO3LBhSXFM+EZQ5kQGRv3qYh7dk0xtB41Y1zaZU1jI80BLghys6Xq/9NREasLf0H4RGB6oDFQi8pWuksl6B5Y8rgNJI0HaroRo6aGHbjqBIA5b2n4MKF69PKSHvFe/ThEXEDRoCFIDnr4UEIdn0HCSKSJjSYRb4rrMVRlTMsZxf27XvHF546jZR1JfBpm7Ee2gt7rtbSopBPgJiKWYDl8MZCkWb1kOldQR1ygLgxLQR0MPy0H1rEdxeN46mSAVxKZ8yEBeJTA4ljUkSPqLocS4PvNl6OD/WyiAudQb79QQ0MuCQ2xjfUjflFLtY07EkEZV/gSa6ARZ8clYdspB5JwN4OJo2LBk6ssFEGpfkWrc8Hd4rBwpbUa/QYk21yNePlED+iVLrV+asIjbGAucw72/ccTk3JuXlXsGZE1J2541BYdqetsT3KNlG29qFODVS2X0G7N1l7wielMfikihRaeleFGsHRgyoZjm9a6EwWLcIWxmNzGNPyCR+Yy/+mV2sJuo8WBxccwbgWPdn+oq3HiWAUn7T5PpHBts6ryCdZOd192trJI1UsEIYqlhMPlAZ77iuMfXsJTm+IZ9RYAKUpyjEQzB8HwrRAwNkf1TxKD/dWgGcOcQRAjEn4Ylj7IrR9OMrhx81SxKKGet6c9cPULGuq21q9varqMQuI4DD71pQAMa0ID/OjQYAP4iMr/M6JH5JcYtYDcDsTKTQnrK6STipZDX2Ugci6/YAOykdVQJDgZxZ4RdPNfsR2wk5v8RHAK4zlVUkURj/UTruFUGP3EOheInCmjKs9SwwdzLdbzHRu0eHCC7/vyNqnSghM+Mi5cy7WPRF/U98o5/g95SxNbGeQgONXnXoCjGRFwqS8LlgeWpRg0GxXpnUIOHuN0z9R7SaDI1nUqGciaQxG4KbVxMsM6tLMWz4YKC5II2+7KdZ9yTcU/GPUTRjo/kaGmFHy+wgytpwvIjp3MECbSs2k4lUFLyRJhN+KPw47vr1fmiH4TybUe9RCUBUvMuY7v0kdlfbNDPKdYfgd4kc6dbYqZrJ9aRtPXqrWO2/gNPssxgu1wgpbTRUmeArqAtFTzRvBcb5WitaPM4pTiUb34Cg8UXCLkYq5RGHj9AzTeHnrSH4EfQhBV6P42Imn2JgMvxhKJGXe7HG4oAzVmc+2rev3Ig7UG1zJVewUr92nlaqRwop8XWpQ/jcBLxxmYRRQu2bxqLlwBemx8is+T0erU/5IfawK4NhXYknkoHnarnf3Q/MTJSbgEUL47OY5qeadvSFnj4T0m+nlRSaY5LpvQADmU9zeM/4nH6UrS9EX4sJTU3hzf2kURru+tZn9cQHKxZSpAy4gO5LOcXuX/rT0TrBhTwkECVlrW5vc3kNjdD0cSiB4oe+B1JfelLX5Sd5NOeSfgJ3cNZfNK1bAaV1NKp7LUQCeCugtB4cD6rp/5h6BZqAI16TpKBqE13MV2O1+Pdt9mMEOANriCapboqzBm+Xw+czMy269puROjJ2fTlFCwOAmToR5q7+iOWy1DJKl0dymJQOiv0lBP5Pg5wftpTj+dCBo2YYXQkjoTKs51pujFwkfTRB3nQxOqF9kc50xxHxFl++f4k5Q7OfSv3LTT7/tRj2n2gLW1Tjw0cZkbiIZ9fKk6U2Vpinv/ocMoYyKyz38GDH2/pFaHvxNldzw4J+4LYuwCLN3EcHlro19kHUaLrZBdvEGAXB9tpcpM8y/170h3+so8kMUvs21gO5w426GxNp7M5RbKpolw/2eQRP9na68OD2IJHso/7GAMEK14MP3t7PesRNhy7D2Px4EueSEfyiO+1SrtKsRz6YhZFtKGzdmm3Lu2utGzyN9QVjCkYw8o9LPRfp12fOZQCOU3myUusCnFiEE0bmYF5cRSNOIiaoyuw+HCrBwGKyMvh9w880IEU0pvRCF68JlUGU0BJ6re8zSu0TL9KbpSdXJf/JOP0BG0jt4SOtr9lidkjaJjj6pm4zmXmk77b6WRdd+bSM0wl0WyldV087fHoBw9/RTwd5bBHTg9932U7Q9+3mR0W89dDASLtH8ryMQIvXtS3kDJWS4+jhPG6kYeTzyeBRtSUztJj6cN6aRnWer8GgA0jCws3jIQsT8bcLIegKXH71m2xa91ZzvbozWYUuyjntKXPyGr16fvv3kepHIE9CyCI2PsIWSVu3Y94Cc9r4wixzZwGtCT6/CtZw3E6/YkJFCPSfuN91MiVulQeNSsokaP03A6j2z7U9mpq17246cZNN9Rz1DagAQ1owH8BGgwAfxKZGZkZmRlAb/2VeDxyCRfaT+UdXBqxxh1CCgPomXUlpVwinUZdR0KY2E8wiBOJFY7c1e9N+ieABfcSlBjUSWA7xZS/O1kWyCTduqSMIJX4jOhjdp0J2DJ7q9ym2wnmtiw8Jqf7n6+HJEm1rLGXUAdsAT1SU/SSz2vlYTlKD886mGzas9O+SA01+OTw8JHzQEmRCG/f11FKHcoaXuco4oJzKbbL5auqc9xpbOEpDis/p6aX84q+mFQXd5a78l8cdEcxilEEvQ84D+nj7hZdqS/QDAK5OpnPXq4wNzGWda91QfGTyGgUwfJyPe8Gw9AlIVJE05liyqjyj0w6LWF9dJvqaeVbqlJq/XSoe89/WPBaUoIdgJVYYPY/ifiVwbpLa/lUF0gCIWfLFSWjJc8s1Dn97+QMvmCp3UQpq0mWXhi8YTaG+iC4h73AQbB0lh7sYHDlbjmB83Q9MJgmfGtb2vPkSFP4xwYl85T+yJF6M3mcxiaQSbxvTiuqsYX84s7oezAFkswv7nt4+ZJYuQ2IQxlUjzpYXMoREmnKIQT4mhd0JOt1kbu78gF260WMBaI4U+60fUU9b3p/4E+zYktzvZcJ9gtqacFWIF7nyuolO2njlNmbOuwCDmY384AqPKyCPXfFB9ojglJKKn58jNbraMMWLfDnmja6oeJWeZccMpgrCXzGwTapaEL+A0XH7ntDu6c/BpgBZgB+zXSHc7y7EEMUCqyTmznzhcv0MZ2P742NCA5oKaFDyhN/Wt/9IQaHOspYzm460lzayEhtaa+Ivdks9jetqtND+IrXIODT+z1lf8wOb66J+jRqHgp2gHucm0gAL9Egt0sT/fmJPjqCp3lg+kSCePDqI2Hash71rodDgCDVlJBJa95mhB7KeBtvJgey7SVMZzlf2iFgHjW/mDxeBNrt9WX/fjefaPoFFrPKSdJYc6mNlXa0xoLG6S1MunajDDaz9LBbbiKRFCrsBlyCONK7nrVRXIJANck0RfiUJ7iAhXpIINo/QV/mENnhPES2Xu+87zzLwfj46PcFbVyRd0due8i+N2tL9iMskRvs+sCLmk0cqzkf6CktzCsXHUUWpXpvzDWAwWunh7SQ+nzv4QFBLQF2UU0XWnEhP2st2TbVLPa/6/+U1VrMMzLKdtbejso6krmSMRFvKwBrvGfbfgS9bwXedubYZLlfH5dDIXBT1OzAeZ/eaca7A0yjdkKQKAJyeYhDgRvDjycdsN4hGsNYGuOhVm/nVYREc76+JI2ktNrQlAIW8CRRuKzW6fsTk9sit1VuK8hamzFTvsbru963sOZ728Ssdp7TU6Du1dqDY0e/PI65bNPH3z2CdWyljjVE40M4LuxxeKD7PCVADVG0JYvD+UnTdTynyetOurTVl2RqVTwOXlzgR7qyRnsQ4jXa+keCc4J5PXNc3Kx56XdnjqVYvtJiHc+J+AhSx8t0ZRcnP34Yy6hg2Vm/UkM8deazkEfCHg+ASF6XyDwcFV7nNiEouCMpRwkkrKIlpdLzyjGM5xmSr4GFHCUTzZX2djZrqRuvcb5NvjHU8SJwQ4MnQAP+RxAJjXEI7R8+IJQGuEvoZw1fEMqY0O+yNvT/JEL+HNmXyV5lAxpwQGgYQH8S2eekdUz/EnH7Oa4jNDHFWmKbOKkI7Ylzf2Q2Xjlu8lW4bMZeM4UgFnU/Dj3tRFxt9ybPC7OiMwvBi+AlwHbqGKuf6M1s6T9FOpFCi+8uBlphzZmkyjZ9yX5ox1PLWmrzxuWNy6svF/n/IDKXZRyd+TYeQpNX5EB2FQ7JeBhHkJ0EaEfoxiRahpvtMoHanJycnJycA3/v342Mk9rEpL6Ih24czREEKWU7O7hCxpqgyWMLR2m5CnO4jCnyME7ufZuG5P9EfdnJ6432U9OvzboXsMSHI0IFL0k4bONDrqCW/vIlkwBDFIZ+elEgH7u+b0FdQd2/W/t9kV2S/nlGqz3zVmSjNiJcvhku97T7xpT8wXlb/t1aN+D/KrKy0m/LytrjmRDZwEVIMCNZGCI3v56cnPx7c3L+vOHqfwutz08dk16OsN1p7b0WxadddDlNyPEuj8qnK1Fq7WS+JiCzpRqz+ZcN61df/u8nV2vfo83i9j1A76k5YnsBkGlm+fqBnOB7O2EcI9lhTw3CRwjRJLObKHnSjELWl235Ln/Df85BMK2wTaBNABLdpKZNohDTW4bIK2jV4Mqryy+TrnKSuUQW6AY+14+YRZ220VhdChsn5SXlLPx3a79/ZHdPH50+GkdbcJOZzGB9TnbpILmY9bTgQj1T7qeHzPlwAgW0IuekSUAAcTcSIpvM3o/YUFpF1TIMik+asIMK1pXN06U00Su6zySbQRxe8I7EUkUPmW6PDQ5zf9DL8z7YdGLhef95318EWSnpX2fsMO/gUkq1PQOw2L5NSJLzpd/inXhpRSOaovhxmRJqJ/6ONKkN+OuIzB+RnVRo/6/2ORQX5IVQ0J4sQnFRyvAgWBoRwIOwHg8uxoYMedYcEpYYMT1HPGQPnNOqAX8D3D6h0lkaKmcPCZVnfRj+vTwnJy8vN9dN/HdrujcaPAD+AOlJaZqeBO7hzjWeC4g2JTZg75FbiOF7KXevYwMZMj7jUSrkA00YXUMULSgGwMVxhhGagHfuR3x4grBTUAxqVuLqdpq818i85HzPqO9Ooz93MdCY4E91y+0Yu8Lp6z3DmU4gb1zerJy396931rSMYOYyfCCX0wu/XMskuZXz9SQ9Rhc7xxPUpRRyDJUSRyOZRQcOYafMQoAgoSOT7OOp8GfgIFRgKSfAsSzgaG50L+FUmauf2wEk6Gs0kqSEKmeT87M+VVMTIi93L9cBOoC6jTk53tx/iNnOmpf1ftY8YLr7te1CIwwJRFNGS3ldzjMdKdJfKTJBAtKFaq6mHcnUyTMEcRF2hJ0CD3Sc14ap1bqym93coe1ow0h9x81nnEyVS/X64GOl5cUHkSlNPF/67kI8LRq93yiSj/onyB6ecUbGmZiNr+e9M7kKG1fZ6qp7s6DFw1GvlTxrLL/oJo40I2gtvSmU94EEqkkEXMw+Ft+/inL3FxboNIbQlCC7bDZn8KN+5d6jyqMcz7kylgzOBGopR5Gcq/PrCk7aV1DGiRnHZxwPzqf6ivQgUQtxqKBcG0kWz5psuQ8/g80p1NGYdTKTWlrjx4vBH47XP7A6hL6QGrwYLD30Iq4gWVPozmX6gbuFI3hGN+k2ggRZh8tPVMttODm35O3I2/HHBpjMzzOuy/wc42y1/e1WHC6Wy+QKAnawVMjpzqm0pz3zjUOAKOCT0M0SCQfYH/9YrxAJYBQBDGewgF7stD0yjiubFXuOe2PZPd6XA88gxa1j4/xfYnK35J2cd/L+65ORn5GfkQ/mHM6Vs2kS9jDYpd+Sym5zqmRRSoyTEnpvOEb7N7KzA0eIXLIWF8FIZ5IJsFuP5D7ydGIwnwoc4viCT0hhEL6cN/K+y0vYN7Rnb2QdkjEh8zBi2E5LkqnhaJbrC2zDS74c6tlCAruplhFYHMweCrX6bIQUwrlaQgSWO6iiBa0J6LLgzah+TJyOIkgSUSTm3JTfOi+Z8j8SGj7Q26xxGeMzs/EylEN1GYs5XY+QexjMNTKfWaY7O5hKvFOW5ck4JLMVVSjmH76YAwltiCSCdIBEYDd+/ZSFbCBNM/QWPYXO7q9EM44g3cminCpicrvkD82du6+nSWy1TNUE1L3FtLAf4siJPI7LLhkSLK7uy0XalBvlJhnMLpaR6GRnDcqIz2wp9xHAg6Ew/N0cSP9E6uHDkIyhgN36PDs0n+aM1Ud5jWL3XrlbJtBBh+IDAiTaQXaY3k75+lML+q0fClnDMw/JPARHK3iS3bh8QzlPslMCOtx5mCIW8SSO6cnXxIvfic1KyuiZ2YpNuHgRPEQISA9Ef0WxeHDwUcYOmmsaa3Q5lfquLpNTOM3dxpf6LB/SnSwaE0VsbkZ+89wfqI4IKUgt8hZ5ISvXW+AtwLCaaKJxOYazOVhT9Sb7EkkSTzMZzn2s5hV80swh66qMbpmtpD8QjfBtuB5/SGK5V/srBg8uQhWlJGLYpqtorF7ixUcJlgWczjH2Mu7Sk/QGexsJ7KKMWE2VQVJNde5heQfnHvY7wo/RDCcFVw/3PB3YzXwZ7Y51PpIbgRoqFHws1bTHj8TI0XLxSWBJJMGsBoK45IX7JHLB4vmnUqQJLkLAvZcWJNO+0W0yGCOFYx4gmc94bwK0R0gxO02eZ41X3WBW14y+WV2QnFV5S3J+/c8xADXgvxK/HfwVUD0Ig8VjpuGlCUZvwk8RxWv64SOFmMJZbCNAQlwnUtlK3UG1lNCYqkYlODhE24V4UcTcEx6ZkawYgXB5IPv1BvwfRoMHwB8gq1GmP9OP6GDbki40k/YyghZOIgFywd3AVOYjD8+nFW0oGn8MAVzUvS6Ut925Pyxm7xi8yEY+lB7NweISTTF3MYpH6H7kZ3oXr+gRC45DqKS5ecu8KxudxXb4xjNz1258ef8HgdY/tXyr5VsQ1SPq45gxeNnJLt1KQE+34zRW2vOmvMD36qGKKspZzft8zKtI3g0F/vxZ/3kLXocBGeOzP0fs/e4wOxeVj81Jkkq229q/IHgzneRa+ZG5fKAP60F6Ik7OlVu6FTr//pv3CDKrMy/JvGSfG8CjwuWKcLk78v9zY3On507/U6L/V5GmaZq27+iIbLjsXiUFUiAFDbNLAxrwH4GW01pOazltn5/3/kL3fOFbx2wds3XMH0n930fWx1kfZ328jwdQJLQkcnMb4ayRnBNyTsg54d+/rmXMbftT2gxgIflMAyqoYztxjOYQXmOevsRg+yoD8GDwYTzZpm9UFnbjuII3Nv4HevhlFmZclHH/Hpf7yEHnNcowCG1JwKIcETZ0Rudm5s3Iu4Xa/cnLKskYlrkMR9+wD9pHGW1e96hvi3yo8+RtGanb6Rq8yn/6ZzfhkW7Sf/ADQBC/7Q8IYr4Oi9nb0B86GIn+FLrYkL5sI4q2O47SI3U0we7bGcfpZG1bSwqx5MgItvElD+ts/1fB5f538RdNLppctL9kzf8GNHgA/Ffgt5t5QVFbhCJ4TRuaUMmunz8li6Noff2C4EP2RU34pku8n6PtuuBzFee73ZudxmHepzzLdtU1v5RxLOby6y+nQjLkkusHU0IcleYZPLh4uClsnttfaHED/lfQ4AHw/y1krB3PLXhYyW1slAtZprN0vns/3UmkRdvpJFItrS5aTlA6kcQxCC6YKyOP70dshKTpbgyKY1ySKaFmXgX3M4uXFhzH7fxsusgHchpN7DD7oK6zWfZJANby8v71jd4V/VZsMzy6g2c0jdv42LSW+7nT5JpHTHK0h1v0R51w8U4a60J2JY0kSBye4LlZV6XbzJ7yxQE2U2SDlQJ4EPsawi407gk2yhHEzXuDlnoZ3y2aAbjql3XMcu4wMdopJ5gTzAnu6yqacXHGxRkXQ01uMLPuJ7xer+cYr9f4GUuiWruRGT51Ovd/WMcwhDuP+4i1ONxRdUfWVemVmT1NZAN4oBOiYlHQPsTgQT3N+JKdJJSsC060K3XX1NnSQpbwpDvfPCpLaMx5ua/lf5bXk5ciAiIHZuc4u82Op5v/duniPYlb5DM83MXZTnvdGPxi+D0swMgRHW4gBqip1ayr0idn9oywmx8wQum4sIcieDCx44hisy794SOqZITc8f5BWOJJkmNpqmdqY12WMzF/bN6FlO5PoHlJrjE/E2dGySvyrPxAKZZq7USW/sLbR77PhSTTZfAK/Chu1cZwP/xhzPcfwqKIxhCHF7+3mgX8Qstt491iHSSPPn8KUzmHD91lZr3EawqX516W/2juZTz7Z8VnXpjxQ+Z3HOZrG0h0n6edPdFcKOXMcsc5RSYw4lL663Jy27enDh/eujtCC7qM/RvqJWCPI4YAEtOP1+Rwyn44SM7Xthz5QT7dKSRa+ruDZYHeqxvzGuc1zmvMtv3Wo09mn8w+OBKrR+rrsg4Xg2g2K8giqe+9tGYXNSfODm3Iq7qFe/XvMNEoaC8UD+IJ4GUXgZLFZOsY1j6/hSCJOP6FFMsZNOO+nMV5C/K6MeEP++WNjAmZ9/Ih79GXTE6mmii8cZXi4RSmXPIcGbqD8vjDqMOLcWNCN8zy8p9R+E90znhAIOZFRK6k4N0zUV6gzc/ZgKAyLefJPM39Rf/yETkrKmNw5lh5WGuIxqM3UIcXT2ZPGcN7LDp3HY21lOrAGwRwMPJUeAXpduBVAYTV5KE8TQu+xkcjSdHV9CZ62kLaMYnmuxbTm22UUGdGSRmZe0LV9ntwzvwu46TMr/icOXTiKAZTi0ei4k+VfCbrsZduo6PuID/2CGrx4HPHhb+bCOfEgY+7eS46wfYPcevEfqSXM07ff3uIzJQcGf/LKcQArrwpR9fNdttpJDRoj0G428PNBzcfDJUXxfaMS5fnqCCZaL1UZul1elH2a6yU1nLNub1J03WU1Laljmg85oYw18SBkunBZyhP8ynxdAZeYh07SNEr9WU+46wZH4if45yDdkIvmuKj2vY0K4Kn77mp369BO3NM5pjMMRzTamrutLoH+Wn33MYdPNWU1jyauM459KKp9NKdJLUpJUAcjv8TBItKz/DjB77/e0iFt+0wPAQIxqTypVzHcd9X8KxW6IBP27GNLvSQK3WnzJO1Oj3r1KxTs06FnLk5c3Pm7isuUBP4KtgKN2qer8w7mVdslr042Fte5GqE23U4z8lmmT55HjfjwOAHKCUIclo4+n9RWEwke0OkXqH1X6UTiuC482lFBQXNvpZKeZuzxkRzvp6vo+8Gj2TQ2HSQ7XzmTXc90b6oG+SRPTer/3YDUgP+q+CE1iO7GT8OYtrQhmRqF+/iQUboruNS6MVyyssnmbvMIbJCjq99TN9wnjfHRwU91xUfqxuDNTJQY3bESgmT5NQbP5YcfQR3YzTN5VoSp20AElAtASzIvPB7wwfP+pLhNuD/ChoMAPtB+ur0n9JXIsHRBoWAU6c3yi+mmvb0lykuejfv8/aYFJlHF5onX0wtfqrdSxEE4zwXFrP3whFKzwTzUfwYeQBLS3YDIxlL1hMBRuGlJ8gsjtaO0rd4THVU3W36XZMOca/Fbkfp8Pv6Zo5JOyHzQsg5Nm92oI5g1oiMHzxB5228tj3vuXALt2nLk9J4EWXrlF8pl57U2a2hLAWmOCzmzzGm7x99QizprKKOKGqCN3Mth/HKO+t5jtHcBzjUyOkyMuq9qG5R76nlZE7m5H0FmTxeNjlgVnjWeFtzCev1MvdaO5CvacNOzuBFOcX5ZGI5XmrJPypEueQJ53FW8/3fMwrcKzA4iPM0Qbaw+c0ozwznGGn79GWAcq25SF/Vh/Unm8dr/BOjuu8+50NnHmJdncUzkux5kxOCE/RssjhbFjaezRTpJmlTzmM3lrgmt+MAVr8OjRipbz+UYjCIO5AqqqhzCmjMTjn/hg76hP6itwJ+lDozxZkhGY7j9gB+91CbNiftzbQ5IN3Fwwb6stTeJ1/wKgEZQi4QlCts9c2N+Zhl0u2E23HxErSNQmRapuyvKL0fKLhPAFFY5x5KySfu/e+cNDPFznpuGbdwNIWmPT+5n5r3bNFflj5RS7mPm+s2O70833GKtrRzuctMcvI5Q18YfzjlcjCVPQdgCWJsO0Is1Kf8DfUSCBYhBFFPPDvpimfKdN3OXXz4wWC+pQo1J8tLMkoK3Cf/sJE26SbdhEcG8ZGcb5JDhhgXfQuXxQNGyZEY0u64NcQSHvwmdATzDPg7egfR64nCEJBH+ZVK2hZNsUs4ly9f+16aEWC3Hx7Rb3le3mQx8mf20/IOn/CEjKYt31GjhBzzPRfyEa1ocd0EVkk3pG33cAjCmeGn/gQt3x/WBnDfC5XOTaAb6VNzEEY+o+Dn0P8R83ObiW0ubzPRpej2otuL/grX/XX00kc5RCaRSABIpBG1egnLWSn9bmxGnXTBxA1BMKgODtcr+i+84feQiyConUMQPzXmejH6CFkFh7CNDmx6BT4gA5yz/aPdyuC54fPmU/sXKJO1n9zLx7ZP9GOVr3K0PO96PEsq57IzsCXq2JHvs166E3fwEASLx4ZIcNU8Us96hOF+SCgG/DlZpKvl5LbRJNFcl10A22kmzcwlbv/oyzyj3Qg53D4HaHmaFL2WMprQlLVAP3mWhTUn8xbRLB/3ISulOy2SsxEMlRrKXiJyVD0VvzsUkmYTCBBAjSvRxDJ89wxyKGfts7AIB9cZynq7mh6uB0jmXxgAnJudm52b+WHLz+nZvkWOl04kEuvCVzqauNRS6SodqLzjZhQLbt/wU5F61McAKKAnYPCDfMx2OvB5vtUCk8r1PVaxg8ulU1lXjv9/7J13eFTV1v8/a5+ZSQ8Qes8kNEEpSlERsCBFwYYFxa4odsTesXdQFMSGiAqIFQsgICKogIgISE8mCb0HSJ+Zs9fvjznh3h/IFYjve733zfd5eDaEnLXrOXvvVb6LCRiiPBg9y55CPDAZDoyxX1d/w/Z19aFJt+DyjCFY3mSqXmrftb/brma3xLlj3F/kt6nL/AX+Ju6SWQ+hLJFWpz6OEEDt0BjZoSknz9z/XBuIqfRNGEsK8UAei5l4fZgh+in1Xovi6ss02ubThjI0sl7a2YvcNFrqSgJshYN7LlSiEn+As4hisOZr0oiSHL2SMxnC8Ft+IJsH5Nq92dxFbfb6TzPbdYr2jQwhz7Rmt14fHat9TX+OMXO1rUk0x+ir8quOd4Zyq5yvl7wxVH/hUWnafaa0IMraC2Ikq8b19gmn8uJficNCpQLgIPDdJ69IFj5drsfIZOmlu3iN09yXpRll7Ki5XpqyDLn2eOLJoojzEOLwmZ6wLwM3/PH4KmqfAHz4zFySSGL37Hu1QfRO58bpz0oHWUItftCAMzc6xj5XIy9pXsL9mKzmoW+zxv8L13afuY+v8WV2SD/KUW7Wt5ybfGPdpvI0b9CGm3g++kik+DbFJ8dIe4htnNHvYrb3fWmnph7hcMXFDjbRiUQpgzioSpwuH5PF3XqFvPLbHJQfOde8z5lSqnPtiyv6rLhkRZ+DC9SxXKy3EyBeH2KOWY5Q5oyxIylCSDnuUhnFs+w6qRMRElHbHcVirUcCpxW5QCvKIgx+/HYcu9nEZgcKNUvfeGs7WRRSA0iiBqncEErMrZnj30fmtQ+2qr6ho/EBWZJgqrIcK81d2MBSfKdtJR8hrkYRLj7cSLvYzJpy9c7CCrQfRNuhQNh5kxTSaFA4kWbskYUfD5QXpBt1uItSXNbbVWun5+zJOubgB5wqWaVvlY6CwuKEbkmLZZv+IhPtdn2CPezBVq8lCayR+sd+TYREkjgRiwWbHhvJCs0DEEtaiLg7iCJYB53JQP1s2gu01M+lChDlS1TODcXnTc2O8Oxh15Ai77OYkyRHZqgFWWRq80D8WiIcR420T4mwBYdfcAmg9ryYZl+fPux6/n+UxCyY7lyiRIj4ZqD6qi7d2IYJJP/DzihbQyWhKTl+Nv6pxG1sYxuKkkALylDK7QBhjJ0EOPi4MzYv7gRP/toK9sMTYx8FBPWjShn+cC5zKZMWtkyXAztAPiKiTx2UC+VAkTiFskU7R7oX3lO2mTMkZILmvD3XO/64e3yy80sKyWJLw2IMAXzRLYCipqLrzYNbnl7wXMLSnLW1MijBsJvfPZfLxFrDE1+qNRzZAGw4DAuh3sAvkqEfmi36G0fzPN24l105N6qVBMKLOtMAl0DXfjFPjcgOrx0Tyx8/4i4pikZr4SMJ4iCNi/WzUy6nuTwlX7//K9WpRV3Ed7S5zsz36EJhzUHFpUuCfstLZm1Z06Tezt10w/Cg+x1fy/U0/mAdfgIUHguFRCiNXIyDYHx/xfwI2AFYolgHyqQL7snFXMICmVW1JVUp4ePdq803+qXOlLoZjwUXZTTXLaGHc44LrUaX3rV1xtYZkLErmBpcqCPlLH6UWWY2EXwUbkxlA41048djSGOrtB7ojXmkV6zTziNeG4703OQpJNyvUPwQgCIKmX7xedGw9LP3vjaQlrgMdVv67tUEcx8nZr4WPDF4F49k/5TzU87zB87/2uDa4NogezLPTn8mI9ueTjJvybnMwM8r1HhlMQXkadG1ccTRlO31yoAI/mgKMU+WBz0xR3px6IsQj3EbU4X1bE3Po5WWSecr0zmfC9GXwVIHnEdsme9W2epGMx4O3htUJPRYjuTIgf3J+j5nQGgYkcyNwVuCTZhhJph0rWF8ppGpow1c2MRP5A5fz26ScE6FPZQSkW0xQwZfeGLO369fsfOJSGdcyoi4r5NEOil1LUPNOBl/XSJzqMn1T8DX/MQQU0/ekKN50c1qlNugT4NPKF2XvuGrDV/9Bau3Ev/diFn+twE+HAPVdCVl3x9nNzp3y1W/vCtf66M610kvmJ7WMnlF5NuUJTtXF57Cj+ZjPU7HUOpEdIauZh0t9BG52br0kWF8I0H9jhsZAGymBf5xMyllNZsv6E4ipRSYWlgMDt6+Rb9/9zBU4j8DlQqA/ZC5OH1t8Ekkq92OS3POw80srFE/43NztuxiAlXdL/VX3qP3dcfJyUQJ1t5KIQFK3G9jLoJOb0/M/unBosQOb1mAH5/kYdjFHqAP1Wg47DH5whfvfsCzvEN79hpYbVP1GftKZKK+HKmFC4xg/MHbbU1krU7HOi38X8njzgfyoDsxOtzdzlR9jZIzO5EkzWTlSVMJE0dUvXRHgXJXwHJXycM9CIQ9kr2rCRMB51bqUw0tXU8bylj8aguelJ8YA+SxF7Svm+i+bHswsF3Pdq+3ex0WX7/4+sV/5Ei7mG+II15ukff1atlDvpZSALpAEuSWi34kQm12+pqTgCXBrYVFsb5E7+kjjV71YgZtd8DF9QeIowY1ly7VB/mWkjkXM5sm/AaMkuMZbPdmzkx/KiMTkz0g9/5QNrbJ4IwZGTPA9tAxei+tZZnOIFePZSdlrOMzfpSztFGfU0hCpQMxG0zY9Ix5Tjh3eu04UjIzz2XRNowVUsw6sgnMv4KG5EQH5a4giI+jKdBXtMyZrw9nftE4LnMwZJ+XVzf7pQMF7u2ZXCs5AZ+zwL6u/cxejkPlNhce1V94v/05BDmeRrWfZCsu+XY3fsDne8i7KPU4wn7geZI8TBQl4rxEdQy19Uk5jzlywVwfJ1KNa4AtlLBRP8vMCZ6T+SwmO5jzeXbwMNjHp+sIXSoDKCNFainMYrkuSHyKFMmXq6pHAKEIMFjE8RR78qfkb3+CZYCLypMY4vADVeQ0ab3jGS9tpge93KNj+/MoVD9+/MTouiwpHvFYLA0p5jnAoOUKAMebF+e0CvbDgzmH2NFnpggG62zTBSgRjiYOCPM5DoJ76PuN7o5O1XoscnokvByoLRMlnilYvZ42fMee/P4YMvFDzKXZ8TxNzF8VtZ63728uTahfrwOprMPHF8RWZotfc9as/3X14V/I3fP41XbmQ/lGTjWXOpsJ8S357l2cwjaGzFlGgCqkdoW9hCk2ybGLs1Mew3vk5JMGMKYRUSwRrqCKNJauXR7gbc2V9YH3yGajfhe+TAZIspnLT5lvZAzIfIMTs68LvZ593R/Im8NRdERowTJO1A9JwpAGdGclZsaLLKYmb4QdDFASN8gjASxnIVjklYdvgRYUnBwsBrHx+NhDND2NdZxA3xN3s5A4GkyBUpQyWWCqO3HmJm0MwP3/FALQVZtoPpt1vqyW7/EDfhxgG9uk+offyykIdQdehR8XJ1ATRbw3Co58f/Ey1TvPEiUM9GAvdSjqkubrrUWS3CGOrZQyZeEw3pWztcz0kIcZg9/66EULnt/nkr4PzXc33918N4Snl74Xvl3nmxWmE2HnNHZSyNodk0ghlZZvjMWwnT1DoQTFletitKzOlZ6Y+H2tOzzEEtRaczdKlASQq9lLrRuflhzuZNIbZ3AhSXJ2yVH6mL1Se7FRX2YVrUn3no8cVHJ1avI4IvnSk3T30vAxZam2M+fZm2w3ve2rM+M+jp/qpM69h5+Zz64uo2IttzfG3khz3j+t+n/uV4L3HhQSwXoeOAXsGDRQ5zCAx0cv4nPq6NgdX9NXs0mW+oG3Asnx32k5x8GfkpdW4v84YiS7p+N4RsBCacq23zeZH92ftRZQSiK92JEyIP/2wltJMafbt9wECrJuzeud970noylu5qj0qzJ74HCyvka2PVqeo4A4oB47abSmOslyO+HS14mQhIkvRLBAHU9CpQKgEoeESgWAhyYj0h9NfxTUoZE8RFzmUdW/DL4l1TVeV+ho91q5AktR9ckyT16WuOvjSKAqYbyLgSm3lHT2yv030mjsZ3YuoLhmHbWIp/WckdlP1W1ZWOXLm4PXbbso6WReN/2j18lIO9p85DxjFDfUIdQ7t/fB253ZLv2SYDGO/iLHSgt6yXn6CWV2mrxLkPpgS6Qqe28vwEe6d3yJYmzz2IfKKc+je6SumW5sw42ujPEk+6CYPSRNyLcD7Mt8v+xJ6tFCe5gpgScDnZ3eto1slIFMo2zxuj+++GcUBgPBAEbO1TEygqVkMNHUdNOxXMXSpMVyOo1sw36NiQe2AFEsSLJ3YfRcHI/YomG9efoCIYxroBdJuuKjK2Wo3C6Nw8Uk48dxLpRPuJKlbq+sG2MX/3IB9Yc37N6wO6zfue7hda1ktT4jI7WxfYgANXRTlS+lPdVMevf5lFBAKkfFYvTlZC9fc3kM45G6Znox/HYPiiXeQBQ/oa87spyuzkhWsIQIAedDlumDXOyOzP4hb9C/ShMlP7u77XlY3pY0uY8WCD4CrNNZcjydTymTk3FYDji4+Ozs2JHQPOD14k9jvQ+C2GjgzkcwxDkQYQ/rfu8hWe5E952V7+gP8oI8A1wvQ+RK+3B2MPe8UJBLD7um5hg5Rb4hwm5aKFQnVQbWfIt5FFMU/w5+AhhCXouGeE9V0Bakn3vjMx6JsYaQTBXytg7B4BLPMO9q2Ts4LTgtOA1yeuX0yun1L0QmkEACeAcBd98YGkD0PcqtbTGX+a7eCjuRvwR6fkyexC5oouchGAw/IMi+rMdyGBfmX+RifZawxOkPMkNeJk7iKVNIpitfbHqBXayjkdcjtV4MsDm24l1BQVfj9/bGIr5jXfVmcqb0pTrQgqYYvTs4vXH7jES65UzPez9UzPeHKr7KRcXHluxhd1GjhKFJT+liXCIo4LCOpt91o6Zcw84HwaEKjtMpli5KJ8WellMOtZ4/6BfAHbH3lF1sJ4WtmWfoaLnLjm+1kHSKCS+GfvRjqHkqdHno9dAxB9ejSRteJYiLEmWtPdHOYJPN4iae4BseWHanWcsdxv/rrewlCTk+FjJl3CdjikGnw6E1+qD9iGAQxJ5BPhFKzUgepwh/31yu1fWkTkmgGlEcmeBudMe4/n0H483lHgBNa2Q0yNxC2KbqWh1uN+tofdK5DTiXXOrMvhsrn7nNfhuFJY5VbdcDSsD10ss55Z5ah39+ir2VEQwORBdRwB7wTWM+KtdfNJ1SplJvYTcSKSMszXUgTXQpvzcZkT4jfQabsm7NPT339H+IW111ddXVVSGYm9E32IwIl+h3OtRa6lOfNaDv04yf3rhBrqFE9txwO0I+1WrviuVWsKGYFFOelvJwOXO877REY2+5241C9rK12ffagDvod2lfROdrozfhB8YyzZkU+cp/tPuY62ZcltE1YziE5oTmhOb8geB87aPNiepDisLb/tP9aro76wnThOdciNNLOfrlrfhlGt92OQo/tfDTHyUCrCX2xSmfp/LzgNc/uQPFwbh3Ek8+tv7LXMQ8jro6KM/o+xz3HIwRB7+5yDztvlza1R3WpGl6x/SzkKy1uUNyb6jkBKjEv4BSG0W9VddSfw0sYQd+eQAoIkBV3STH2Qw1NLBjnXjnuD+QESVka+Bob9pIVTIow0cNoIQQ23yFshsfxjSgircWY77B1f7dXa/EfxYqFQAe5CVqcRQwlB+0Ez4tlYvkDXOqpOJD3fc4X7P162t+IZkkOjV8jCiKdefGDr5OucZ5f5Kg8hPUrJiLmrzCLvZQwkBdoS/RbHjNjFWbhyR/CCSTxBTnBmlOd+a5JhJxr3BbE0W4kisP3u7sxbnjcxJxM+sFP89INo/rcLFE7df2U6roht6r5ArqS6PTmiNY/LoVENSp7T2eU979Ixs0uqJYIr4AFh/VIw1oyNFMeOl5c5N5UJYBifhJ4bLoW9EubjIFcSsSTk04FcuFjGb0gSJDyTnhnDA285jgLRkFTgd8OFrqwmY2kdhzFjWowbKMIURQXDsMH0KZedR7/I3Daf4foDYgGF9LIkC0ZAYhHc+cj3pzjpyiS1lMFB9J9lV3Y3SXvY9P9xewKbzp/g0JQJn+wFhzFkUop7jjpbX0lGknT6YKORTWfZMU4kiy43BRwibdG8+KuWQr/WIJp3x+DMkURXowghc0e0o/PuNLljMWoZia9hznO1815x1itr1/oQBwrpWvNY2rog/ygv8t92wZwWZ1mG56MMG94JQbcYijOmAQouZTrx+rKzgPsd7AR8QObxdQTTfSft4QPdo51TnNzaYzhlKnin6iDZjvXs3kI6tErpY79AcWIviwHIchhZJal5FCihznewilGD9PAQaVNO+xNUdW275an4/1S25DvFRfzfVWWm+7hr20oswbT9E+Ob1yu+f04q0/Hayf9Cf9CXhCLpRbcFCPf7uA3Vomj1NGnDSlZ0w1IEu9N375XzJLyEWx8QEtJYwrLVhElHyqEsGnuxlOGcJLB3hGHVxsrraV0ZRIX7mBXBmDS38Aftdnqb/1MWrJyZTxkpdP+SZi37AKzgvE5sW8haUMuJYWdIAaN8obTmf93qzmRF1Ikm1uBujtUof7mM77HIYCoOjpJF+SD6GmXqif6WDCpPIroFRFFx+PQ1UZsGUNfiKk1VkNCK6OBUAqvO4KEEDdmigufqeUu1gvL3W7Vo6ihNBi8GGx8lEwErw9sxqpOf6c4dn5B1pqrVJfU8A5ObrM9uJzM8n3rLPEeZkbibLAvZMzdCN7vtzKTmlG4PjY7BRxmzfC5d+HKkfeFRScPkTxocDx1Kdur0xeIkyHhPGsJ56SkkvMyzwlk/ZlWala/ribwmwtROMyAk2dB+gffrTsetfv/Mq9FBB2W3EUb7B34nvkUxfTFlwcSvkwpuDi1/3lHRmc8wCLAXbxG3EX3C5JnGGfHNpWPydO+ha+wlqO5Vp2Z52auzT3nYPX5/zkljpdKbOrfKFoZ/1VLne/MC87N8lNxBHaPJIacie80ZHtCIUPgUMSPs0jRrNa3p8jvUB45xyx+5SO8bTCHZytX5nOtsl7Y7mKGgwuvdK/NNrdGcua0JycN0NzaHYwgaFjc4/NPRaapAZXZqzBsa4O16fdi4tfKbvVXsh0f5yvh9nwWbfAtT6/ZCx6jqoI4ePupgxQ+07s+2b2l19+znEBizW/AQnEg5zDEjYMqi1ny4n4XzuVnZwjrQqGucnmw0BA/BLUq3WwqrdDR6lEJf4ICoiU4fNU8QvJl37H9fN3ND+b0UyN5tuudhg93Swt1tq0d77jWfMyP2SsSy9Jr05EJshWScHHLAqYTFhKac8rznms0imsj0JDOY3T2ywmDR828Ggs2M+29tb7+//u7lfiPwuVCgAP7gi6mJUETH8a6p0UyEv6un7gCl+RQMdqRbpCakmTG6+klLrUBgJEiZrJKILwpCfmQMu/AticGC+7WcpufNT4afTb80+5rem0z28Ycs4PnbMXMWB388gAd7lbTUN8I+fxep7kSV72n7c7c0T6wOBL3GBLzc/mKduUi/RFfR2kpl7IiTdfzUaSyeBHBJdo8XhAEKeu9/jbFRgyRd3TY7HySVCFtaz+oB9d+IYaSy+hLtVoZ77dPnv7ZXvOsj1r3VHrpyqd0RXfrJi84rd/0Z/s9BfTX+QEnYAjUzSJKuwlh5nyFB/rngsyyKGI5sQ8L2zJkthTTvnBpSLp/wTcjxHCkAQFnEJg2iCOYSiZq0Ns0vvkAtmhZ0k287RT4lOp05LrHXgQ8K/3rY2rT6L7aOT2kj36LPEECDCeRmyTt8+oThZCS2KJ/3wlIzyL2G3e43960fvXM+K+i+AQl4TuYY1O/P5LCcv9/kfXxHMZKTKGHTrVPlGWrreWPRNOCo/DcgzsW71/ABviZWkvg0yY4yLbtQOtWMOyYEOuoak0aDoeH1mkheNQ4oi6twCKSMX6AWtjnhHupZSxh6IkdBrPsWbacKL6ui6hAw4J+GjnJJmAb5SnwjiS3Ak7GSftZazH8g0OUWz1k9lGfRqSSxQfTnFO7P9NwV8yT3B37OJqniKOVJzwabpYJuvbWxOkNp9KB6CAEor01EOtT6pLdakO+PQXtrAOLwxJTpSjJSPahGZsJg7PRbHUs/z761WwH96Bx15BHILGvyHplJFctliXUIW+vCMN8UtP4D0iejNFhypWhslXeiml+j3xMo37xQAuV9JIurB8/X2sR2hAzKVaS86OPeWr6Lx4PbJXAg6aUIetbMeXeLJtFv1Srk5uG+Ma2QtPcj1tZCAA0w/dIJi9KzQ1NBXNuDXj3ozj1C/17Er6m0tYSRrb8x/gU/Fz6tw32ckStl+QE+O+KJ7iKZorevEwsT/uy0AESUKa6Ies7vwo2+Qa2r/0tkZII9FGTVO9XCeRSSz8ZNX+gnLeynkr5y1osjTzuiZLKeYk92LbT08iFT+7gSSm8+LXd1EIPPJgmHwgzTSNrcpIfU/MSxXujxJF9Vx2UgVf42toLh+SfUIIZRcyC1xuJslsBR7/pyylhHJCOaEcaJTYcESjVrj+mr4BvhMshAnSEGjKUcz+CD7E0PSefPzsZHdSAMWHLxzzCNAjJp0sXzD1YyEs9gSiGAKNFqmlhXmu+1fqoFz2eV9aUA/rtG8yItgueIUrWbfmvJvzB+l63VmmsQtqnrJPyHuU6JvyJtVshE91IfWBQWTScXR/arCCedfUlSDJpNQaTRjFlnjkhHJ0BfqjQCEWg7qGfHLwt1whe3SgybvoNmbzLbe8C9+yiqjTN6NfRr+Mfq4v9Enok9AnB79Q20+lGyfh2iKzwVbhuqTL4iJOIyeZFH6mnWt0M32Ql/pLK/by83uQQBIOX3rhGuWu0OXZFMoVkMZTXE7AQXHdEoopQoPzdZfOZMPlVxOS0zl+JDxMAo4ZHx6XVCdtqXtB5s7gMLkRshflDAm9U8HVW4n/PsQu4jWIICjH0YaNFHVcFNmtU+1nZ/ajtQxm+9fVTBalZkagmn6tz2qPyHSZSZ5kaCuuYZE8KI0oYwEfmVH2V3OOqeN+m/zCzsieh6Ve8cBqiSlTBz1H9X3+dGGEi7yaj6tAyyvxfxD/5xUATR5s9HmTq5GsPsfPJYdwZu8Fd9hPnAv4BsNaFxrpZh1/1XbWUJu3G0/Ch0vUHRG7+DvlrvP7+0rG/i0sB1wiNEJJoSbQgnO54qVzr711dvzazdxAPdbxppNqUjTVLHBf5RouIAOAtzkEBYAewxbJYZXUi06zx5JClGJG+gbzoyxl4O1N9S7pQYvbxxOgkDCNUYznlAsViSm1WFyGkISPZCeNtvSn3caL2c6DFDGCFKLUsbk1v6tJ1aNxs3JC27Nz/tx1zqZLmZSxiwkyKnqHnUcW9Zkor3CX4hz1wGaqEKb70GmE8ZGvtRAUhxre4xVlQT3Dy+LwHEpdlm1JpbVUMd2BOkzTFfppZFBZVfsiOaH1OeuX/8GFM/G4hAcSbiKS/8Du3/csspdIpvwmv0JCs7hqgalP19Bt7OTn4e2oiZJg2xNF0X2WsEO2kP7xYiAWSuCYhSyiHnn5M3WAXeGOAY6VOrqL50yJHC9bmbju8/Vp6+ocgsyb9HS5Q9+nAdWpAXoOI/TsLUN5QtYxsvNYivGj7lQcLDDam+G6hyD5YH2IHSZ9JOBQyi5dRwHP0kyX8nHe3TSljrwJpEhzEtz0wqtKHiuszewjrq8RZ+lTblsCGEqB2gQIfZun3flZarSsTYhijnNrEY+hkMdjF94K5NuNucK/ShRLVJ6mOoYaNotNVDGnbrxcf8YSz+eEcHWDjqA3h2QnDXwS+CTwCZFo3dJrwi+680iSNKqA5HK+xI0dp6P0ZG6e9gN+EghE746xYkuLI+7HP+YLjD5FAEuBOYscUukajpPfpZdcWmRZTDHzQZ7VeXyt5Wkh/5QMsPaFHca3uZ3Ilu4/L1x6oivam6qkAp+ZJ+TudzrznJZp5jf34iOBeHdw7GLOhxXuT4xF4XkscRTJySTrak6IPsIJnGjqF9XHJVH3MILN3MQTWp9+XMd01h9uJe4j7tPuZn5yPjCNnDx7ASfhJ5HxnMgW5KapZFGTZY80iZH3ueWeZVccbj0H9M3B4DKb3ZRSVbbIKHmCG8O7Sn6PpMYrbPLtLGt0i6ZlvlLHrO5DgFuAs/+FwG/cPu5AYJDxUWKN7OJbXQIUcA/Vf19rv9bjTctjJjKJmQz23UUVktmpfXCxOBX4TsRwLS4OcA5J7MA6J3Ih96Fb/RTgrU0cjM2jOfzRV8KXL418+WDr+W6QM/W0tC/X9i48jviNu49/vepzoXGJyVt/jcxrN5RGfMKehPZESMVY6x2/Kzof6fhwiOrTbGcv1X3zZYSeSZedt5AhNwpAmABJ7mBe0l02m1sOJqhcIZN5arAoWEREHuBpvV3f0LvkanmVKdyhH3LLpjPoICcxv+NZeidRNNULwnPreKN1+qE0+l/AwWKwXEwcu0lwXiFMgJV7h3GX3iOjGCEp5JPink+GPKwreObPBIa6h7aFtkHmF+m3ZhYD7fmFLu5TekZ0tvM6t0ofM0CvnLSXHeZRt8odtWgkLdjddhsWxW9LYgpCE9nXvhjKDTWpMVWAOZ4iAjgsJlsayDE395Cn7a+2/zsNiWc+04ov8PuLNu66kp/J5Fz5gZNYxBAqOQEq8ce4EoMi+it78RMW2Msilo+exkmcyF2n/SqrZZL8uOZYBtONJ6Sk5JyyqWWLqRP/ftyLgd/0Eq1hO0tV9zK5xda0WxlYfFO1rslnPj+O6igju7bAkoTfzokp7valHS+/h1RmA6jEIeGvyAP9H42MMU3ygifgSPvo3XxAoczTrowige8ki8XJY3S9jJbffruS9dSnWqYQIIrVDjFLmpTnn91fkeIpAOxngBA2/YgHWi0O0dne6svoMI/R0lxGupdyrtwWbc1ke7Z9yH2b83Kuzrsst2OFLNn/K2g8JfPixnH4aKkj6EaUJ0wP7cFCSXeTzGQGs5tWbOZHBukuxmBym+R+lNv1MMjZ/pfRpGHGUxlP7XsfyhUVDb2ynCSp3EVfstaH7g/d//eJBWxSN/hQ8KF9F9PyA8+9XrnZK8tZYn1Zm3Mez3n87+vK2OT99JubvH/AfJQfgF/zyn3tz7o099Wsw2cA+F9HxphgcjD5gB+XK+LK2dfLXXJN6OqcwpzCv+97U4kjQ2ZCxr0Z9+47qJXPb3mMf0evLM9q4c8uCT0TeuZfkKb9m5ExJTgk48x95KXlF6Py1Kj3eeU+8r/QGTnDQl//jb6fOxsXpa8/YD7KyXHLA4z2ebBkVc9Lym14qNL/99H8++CmzFU45i5mSFtc9zp5UCdxc1JPu8ncyWd6NufqfDbGn2rvlqrI/BfWdVxr/j7zsT8aa2NtrOCo2eO7Bb+cw/VqnC6kUZcq7iwWUoumV9yPMpHhY5+khN3stLdh8OE3VxFTLbfxxO2/r6yJnefsJcQRBbOIlhh818/E1VVseuN0oJCI04cLZSWfuTPcVppq61OW2ya3TW6bw+7OESMzLX12cJv5BJd8im0/wGI71aCqXCHHz9+On3pUoSZKGJcRXl8vrmC1lTg8lH+n/TEFrt5IHIIjoyhlI+u2f0d73U6tJx5nEpfJdZ+0YJ22s0vz35MvzRdyuu9GncdZzD/mJqbyLt89cCV1iYPesygmgs9uwKBYUx6SWP7d/T9v0P33wPX2a+fnWPlx31h5gccV5ezNzs7JCYXc1H93S/fH/9kFk7E6OCE4AcD9CXC5V3ZKW2eixskEEl2oSV22DDiOJTQgM1PwEcG6EY8871tPzP6atn9c3GOxgtcRxQD99Ec66asjekl1MydSx13LGL7Hddo5O0rnUOieqx8l3G6W/PlBP/Oe4KiMAEnEDilFOHSlrlyB5RvNNUoxGyXAbmaRSzszhTDViOP0WL5x9hDbEA7d0lxOuuTHYqnDdqpSRd/SHJtFH3suETqRQI4QfVEm2oZaKKLH8SPFJFFAvP/c6Je+ooOnmWtS1qhrkx8Q2zowOjwHh6NYwjlEpbU71vexuY1t9NabpIiZrJET5WYc9lJXHgUMEe9ieyQW2ZiluQg/PpQuulIX8LO+qs8wjbPcAppzK7toS5z2o5muoYxtRIhjvfmcrynj5v9fXObk4I3BMClsYwtbKOAhfYBH5RwelZ9lkhHWsZw2chXvsxMrH5BIAEMusajJI2H9V2IUiH4M1TSZ3/iSKbpIx9LQvZbfpJdO0h94kXqmtf7A+WTp5wTcMrvePZmwF1F94Hy81ujOJq+BPuZLcV8liXQSiFLEUHubnCWfMEzu1UfM0eSRL33NtSguYY88USqseS7DIhia6kvssC9qd32eSfSy9/Oq9gGbRDF78RGlPe3YRiD0eO7w0OuHb4nJOCW9S/pMxMw19U0a8VrCVjZQwhmaomnOtWyjpgw2NSkmTCJTMQi2Ah4z5Yhd6crtkz11Niu5zJ7jO0Nuii53T7hl1zHT1o2A4ZOWrsqYhgBL6PXnYoOFwcJgIZhOOll6URMXB2W7zqcLBeYuaUyIOKe7xwxQHvRR+88l/wliIVAl+CkjwjG6geY01mNpZY6S3dG3qKEb2MY33MGV+jCBUP+cT0P9/3y+jhp01KCjBkFZzZLLy7aTyAp+px3FMk12yufsopTPtZW/ES05hlV0oYwyAuTHLH4V9NCIeW0JYKhJBEOAayllefQm8nGpof0oxEeEqtmP5nwSCu2LMT9kRIvdp92nsc5MU9f5iHh+xaER35HBNnbLPJpRjd+lSPrRjSnOWZm+4JUZJ1KKejHjMRz++xYbnwhlhAlQjw605Dd9gigrUL2W+4C57s1cqa8zl0voJT3ZRnz2iznzQkMP/h2Xj0jXh3B5iVs4HbAUcDQPaB69JShD5Qp2cYl5FaELz5jmmU2Dl2acxA8YDP9w0dkWcqgAAFm3SURBVD4yKGUxiy+ZdKY6W3Uq2TTWaXaBfZ4UxtlHKSKZTYyXkRRyHP7QpznX5lz7D4WK/cR5xEwFdkvsy3gOk/meuUyx6zhXxss9+gzjZBxt5Wa2mI8ymwSvyugifXFwUXZ5Yg7/PCVe+8OAnxacCjpDfyCDJoS1KSHe4yebxg1cIhfpBAL48ZNS/FNpzZLHKNh8/ebrN/8BmW74Qt1ru2Hrf+w/qt442LvMNim4hFf3jBMtvFbGcS/fM5c+e0sch4mmW2ZG8KqME01HAkRxWOplPYg/3O4QO/mUYXHx0YxUWpCnfnoR0N/1JyK4EmQrtTheOrh9cCllBe/jUqq/4s++P+fcUNqBiq48yZM8gYwN6SsyfkdIND+z0b1eNpgLpQuz9DltLfUnNOcxO8M2G/I7JezBaf0ysbTL3rnMlH934va1NYbGMY8O2UapN4erCcOtyzhPTuek9x7mab2VWSWP6QQu4Go+911umps3uLB8uCu0fivx34by/afYSz85ijLA6iSExjSqcRTLpC2Bl2dxPK5+8cyZ+PlYNm26X8O8xKLkNAr4kEDt9aSiOMyilFJUT8BgsKY8feeZXllpIKjEEeH/nAdA8NrgtcFrwSzjeE7Fz51yhyhTTX8ZK6V012/pxtdx9+qT9mLdvmgva1jJ+lYj8eNgNMmLHfPY1g+4uJV5aUCq4iOCSAm7acmm32va1Wa6Nu/Qmcmapy+XTpZEnSb5fEya9JDBXBzqHkoP5R7cwpOxM3hWsP++JGGu98r397ar9t5F/U7v/wOhqjlf5Ez8+29MGec3uTW9Cn7vYhIhnhIMj1JCIu6+A+fT3v/7Q59lDc/d+/exhDVZnnlZk+UHWBSO8spRXllu2Qtktcp+L6vV33deyi0t+2H/78S+3yg/mP2nodmUJr5mUw6w+LX0ykKvXFfe/zVnZEXXnPH3tZBV4q9FyxYtW7Q8MECiXAFU4pX7PFBWrFqxasWqQxD8t0HSi41jfiZj2AlAARaHMaylJdW5WqvwLttAtxNFmoyo/44/Dc26NevWrFv/3W0/EJl3B18LvnfAj8tDw8pdza/1Sif7uZwbci77+3naNX0mY3OTEwkQ+8bG8gzBCmAPPvoDPpSlCPn4kbX3hNpnzfr7f5cyZqePzvgCg4vFxZJAgAReZBWbWMVD+HHwU8wDfMhDEFqXuzS06w/kTA2+mjEV3PsCGu4Ivvxwtn+J8z7xFFPkXsqx/ET3a2axkFLJfOsUlCiJNhMQrCkn6yznoCjfucq//7GMHGprEYfFMXuoxw6ca56iOq1oNuYBtpHPFqcll0VGu+e5q+17/n7mWdyc2Tm7c3b/z49jpQfAfyTK94sEQEHvQBGsTsZFsCYLwY+fvcQya6ViiKD6IwYHse1jBiunPP1wTa8s/35VLHS0EhVEpQfAfwziSsLvxhVD2Zvx35Z+AOYc65OZzge2gd5td7jQnaZ0vaQxQXLltFaD8CH47UWxjcH85InZ38JUvoF4rjnalDL8JAq6mWac+3Ke8btfS83SJOIplXedk3S+Gag13EvEF/1GpngX2pYHtrfFTfX2trgJwlncFq6OIzkM1MFswtCMpdSmVE6SyxvcwA59QFd1ygIUIp9nDgueHxwj5aRlR3pFi3oxz0tJwBKV71lNNanrnq9fy1dcM+MtqlGEWyr0ZD25PBh6IjQ39BVP/JnglpNaTmo5CcouKbmw9Cd8TJeaOoJ3SNcN+jOX8j53m6knXkoKHfSWui+guMRH0jK7BMcFraw7hLb/K8QUKFYNCUBC4FlyyZdq61+SX+R1Xl8wiASSiZfkrCmhn0Pnarnr5wEHLW2jtbUNDkP1LTtY6iFECOtKCjAkNnqHGjzF7R3ewKE6VSOaOSx4erBYylmwK/JBUJQVREkkwEjq8gvr7TYTZ3+0e2aM1uOZKXNLX8FKO1K5Jys9d2Xulftcig8K/yq9PfAJ8drD1zXSSTJJYitpupzP7VVmXPN3+UK+1Itaf4ufIhLL5mcOC44LFsslh9LgfwlBUR1EGT7inHhas42Fe18wu7SpnvhdM74ik972cl0jj0kVemf9mjMhZwJTj3gB3O/WisymhvnWV+KbQT3dY++xw/hNn7BrbfTk9bSlOyenLSRCmHC0UeawoASLpYLp/zx7udWVhImSELiGp/lKPlzzM91pybilDxHBJU66ZE/OeSo0WecequDGqY1TG6dinBUyz3lQTqWYCMU6k758opc3/YaBtJEBx2YQwRItiwVXiFxW4XmLJTu6Gx8FqPMlO+mLr+B9HeKcSaNvR5PCz7jR76SvncNuBoRm5nQJzeSDQxWfEU1fkjGWLrpL75FuzOVDfUIGmpfMd85QW9rjV7pzlU5OKKCYvSTZ2RgcLLcdqvyDIFxmSyhB84nHQiDMSeSx+7fNWOpQI2uKR7F4anabnOtzAjqrosOY2TeYkjFIEinRPcRpMS4lJNQeQFd5hWGdx5NGuu6I7iFKGX653bPkH7kTuouLsJFqPEWYWnzMh9JYPtB39Uoumtmdc+lKrcK3uILJ5PKae4K70t3KDdzqzfpB0Cy/Uetm+Yj7kvNtJCCdScCVZP1BxnA+mzLu1VsZrHWOa0UZhRSW3YBgcOQB7/GyQ2n6QfoDynDSsARMI94jkdziOe5kunPydzPJpUCXhJE0NshVXJP5W8bZmT14M3t6aHL29AP701TSu6dP516asJFEnuFH7UG3+GftLFNVQj0eJURL6shvJFCKy1BPQV0ewnOk++1eq/qtK9qEACWE/Uk0Zzq/LSygE82IW7eUvZRhJU0v1ito6u1LNQ993DI2BGcHt0knkhBEF/AuCYQzm8ouQlQ9tiM1KUVK3yeCAVOuwP5Tzo5/CeFlFmG1zLQnnhRJLxkga6WvUzrTx2/yleRGi3W6trNh2sow7WyHspx1nAwHKvpDvXNuDvWGzH4ZH2T2w8c2naYr3F4cY78kDfDLNcyY8CJx8hZJd59AsbQi0iwbQylGY1l+kM37WhZDuSLY53G0zCC8j2KtA77bzqWBWa9131ut82UbCyPjOJEapj/TfBn2F9I4k9k04fq/n0KpEn8LJHhl7DSNvBjzL5Pb8KM4NAfKUC0PDrwtxtUl1rv4l6cXr7Gf3MqLfyUqhP9zCoDw4rijyzoSMFl2qnmTV+RX5zz90b1ef9HzmRfXhWvs23L2bfWIUEhdwEccKp94LuNjPTH7b/DedqF9MBgcs5I9RNi7srGW2JOpPX6PfkdPGoHkSoTt7qMk61W04YzsjHVXZbf8F+2dFd+1rD2Gr207HUMrZstCZ4a5QAbxAhdadL3W1c0v9sLhWTn6wmKiKFH3qthGto8dvyI2WgHbHSGMmt1AR5KmD3JOi77K+V8Kp3EfDfnKHelcqfAp0ONQsqSXVi9qWJyHT0rN0aauNJShauUXvZTf1ZEZ1bNUZQ4zPlrOSmbK6/XOIgD49K6YIkaer/BCEBRxPyCCn1KnhDXk0PbOehrUk7lpQYzOyG88Fz93zP6PZ9ydcXfG3WAv1PE6kdpmCa68anpShKLum3o9PuKGbJBTGMkHtw3ExYfjxscuuk6xJ+bIXeYFwH5LFIuYGtQgjYIlZ4jfnCdMuYtrmM9GXrFvkiq/7XMiP6gCoOnNTW9uejPYLyNp7kyO0acZKIlMJllnIdSTO4kw7pkvyeYJeeqcj3CIYNx1XkhMo79gPgTcL3CJIs5Z1KU2MqW/exJV5MpvjybASlJllbzGT/qgPkwnJjChAvXdqT6znhv13dJCKWSouSsaiusvC90m8ZNLE98axgIWEs0cBkQxWjU24rK7gr30DrTuozF5Tg+qkEbSsxezlCmEl3os/WaE93vtDnn4lskyWYZfBksXrjMfE0aJulX1c4pk6Lkr5FQCNH22R+yiFD05tn58mRWeNwVEqxOHEJGwruRuGqzvxUZ3ExOPPp84DPl7v+M0SeV1WcRMYOahGywlTV5hMrfziflOT2YuwjPkmN78qkVUGZnIGh6QthkDUXw4eiIxdvZHKtirKIJBop8QpZSw7yJeZRPFz7yg83WBzrxvClEiRJyet15wR+bQ3tFZIz56MXvoEaujQIdynF7BCsLSlyLS2QnsSc2Wu9gsaR/E4VAqbeJTYpYjPvIe21PBfv4OGNQm4FJMmnlCWjCPXy+sxxaSKfsIhuMDZ7S8Yz4ywT+/3/gbxiX7G6LuwOijkS3yCRECWqC1dSxXyHmNA9zGM7Ji0qUUUISP4TiY8mzyQEXnrTkGi2ERBSSzl6pOB8p0x/EXs4mlUrQAUonIVyYhutH9PGpt7LvzB7ujPU2stOEY7Saz9X0wtcw7ZZ1LoYM7PeGM+5dSxiSKO2USxWBtfY/9e2gF2+9dENyuGFxw5rKHOOwbUU7UF9hwPaRQn4aygeFyGTu1deb6jDmZn5KVfV6oa/Z5f16BZHCWdJQcfLoeUXSxHEck0XA+ZTjvfYolzfOQjxDLEiT8g7vhSNEUgwO6gGL2kCJX6HZ7htv3vCc1iwa0/AwMPqLOUttcX7BxrtPt127aTeF7+V6+/4P5kVpuoezATTy7sEPkOGoUTUpR36/ONfh4g9HFb9OMLZw9aiErKWTpS10IEyBs74nt+87+nl/l/45d/zG1sYBr7yWf3URaP8M024mR578hDXBl/IRxXMyjHOtMtnXNvXK862b2Dv6c2Ruyp+Z0zK7Ad6AS/9XYfyU38iiPY+le//yY/h/oa1mJvzP+zygAWp1Ud3q9c6DofB5wnkaddzjLFjv36wtuE7nUhTWMo/pFg6lJhHptzqKMANg+MRIPs9ETE7ef2PKDy9ZYBLRuRymmTNB8HaGfvLLNXGgepklxKUID/M7IkjN2/2zbu6fHN6y2w/n84LE7Le5pcU+LeyDcqeTysvUE5AHzmKlvApzDr1pk5+gGdrO4Yzfqso0m56ewh92UaRYOPvySFTtU6atHOFzeSU9f9ywb1QggBICGzKLu00fbNU5L7gBWYHBN69DcnNdyFtk+h1qBuDLOPI1wAbWINz6FOF51oZ2cp0v6dGQCe2V0vZ2UESYu2icWk+t446WHXM9+KH9+JwaLOgsopTb18ofo74yi60f1cIjQmc1UZz077GnU5Cve5AAFgNxup/AKUF92ay7PRheTLqe6l/KIPqYT/X5noDwqt/T2ESafPPByu58d+4RrOa/2kbpuxlwVcfvFfFHMaaTqQlK+2OHulZpG3Atpg8tRjmb3zwmHctw/3TjCr4RfCb8Czg2yyOktv/KCzZC3tZ6uYg4JqfPkBunF1o5bSSRAADzuAo/9XG88wn7sq94jy1mKnwA+ziKOUprPfF5mSiFrACUZzNfZnXJq5tR0J1WwPrhK7rFvyhe2xNfR7lbsDb6USFnaNXIUP0r3pF6E2eW97Qa1HtmnOdJ1V45iQECTABcBqujb1Fv3BaW0ZzsnYXARXuMweSGknbSTdih9qM7RRHGIvcU18eHTL6iCwTI4pgCwLb112PRw6vhDxNIAXkgcBusgqRRC9DH9kTnSQN8iiQR2AHG6Q5+mkH9YQw4NGXoXG1jA205/PZd+DLF7dXS0OX4GyC0bCiiiNv4MYuPp3hYbX6ei8+RdBHQ3Sph4LsJPL2pWP0Zq8j5HAy47iGjB17d93nTcQDKAbKYSOuIKR+i78pm+1Sgzb2Xz9yHnk8w7l5++dr6T7Ob5jlral23UIKdjLE2lP/pLLEbb6ftPs3Ak8Lg7XIsQwTXT9DNpwi+n1pCT9GtafbQZZTfKDdrUjrDdeBKYzGQO6oG1vHDtT8sLIfPUYMPge3ayVJGv9WOQWjxg985ZYMO6x8lfuZpSSqh31CIEB9c9D1Ckwu9XTMGm0dMwFFHdDyWMl75901DmMX3BNvYAcXKn/xHfosClvNHg9ga3N7idkg3DNwzfMPwfgrJn5szKqc2AzJJg94z2znDt6JIQdW+nIXHUe68Zv1BMVqdMDBaf/Tm2XqSL9/gh5O3442XgrbxxRHGIAA3IJ+OcN2midaT5A99RV9Ip3JEow/QknSWt9DR9TWdruSXwTzU0bq2yD9hsI87t8dWoafLlY92NLquGagmN3mlIqZzAxkFgiWIi82Pj6Tvrn9bLkcBrnzs4dp7wQWNJ56chT8VdVHxnaNdnvYueinslM83tGNji2yaLyMt7IieQ+xTlec0PIKvNei3v+qzv0cxQ8Mr02fjJ1FdJdV/haGZLf96mhGZ6xbvjWU4qNw4+GSjFl15+rhnoDfdIT1z5t9YQe5fq4eBDaEoBO3GBMqZQclu/Fp02XBAqnHDpzOpHde95s/t5w1V7H1vdlwftuVxhfucZpgJT/77kupWoRCUqUY7/MwqA4qWJ/RIL8TkzXLUbecs3IbLe/457hdvRdxN3+6bpNlkYqT94HKVyFGHOw6AEuI/YYbCcbfNA0r/YQfrC2Cff7CCFKuzJuslUl8spGJdMfY7mWUr1YrZyjXtxwqNVzvJFGJx9ZeiD7DUH31BLby0eXDIf4zvZaeTPo43tSr/o27TkGl6Tl1gg12iplA1uz145jiLzAn4C+N0+Xl75QZ6u8IYjHC4TO4rYFURwcZ2PaEc+BTPW2Q9JhNm36MU0ZYc092XrTJLsQ8GPgpODH2FyLsi5IOeCg/cr8/SMMzPmI7JSb+EJLoqeaXfr1bYBDotYxwrnbfOGNB0QpJAwqUACflQGxC6cUh6De6Sa0DJAELsJJUoYdD0rqDrtJqmtjXX5uuF0kd50MOfqK6TKSTZmkXrzQEHSWW7Unfh1LMPlNlPX+ZEwJ1s4Vx6W146/RxpQzLZmj1MDB6Va7GjhtPBa/uChN/kAKPAJgg/xD6aEvUS5Tr+miF1fPS1G15NAfwIkIXpX6+drn1X7dFh619YZW2ccXKhvMJudAhwdKsdTKPnch0tYU80J9Ofi405EcVhUz+LgUKLtAcU45Xmjj3SdleMtLIL6+uJQhgBncgxVvp/ALGLu1VHiiOqCJs8GXwi+gMm6J+fOnDsP/0Camd74xcYvgi7XanIFX5HPLJKoh0sZUu0GorKRuJRi4j3HWiWCmDXEDvgV7WdhbP7MTYinXmggo9m59Qo2xWinvCvAF4ctuYgiigCXNAwBrJcJO4qLMn3f1cAFMDEXRORIFYT/gAKYfrgo8CQWRc1VGJKxnI0h3nPP9nnhAocHv7TjDJbLF+7xNJC3mUqYMv2EOlQndcdoDMI27gR8GPHGrcLz5PXMzEQ8grpivqKg9nNcID/JUUAVjkZsa33R/QLDGoYzDY5cAcDR2lNaMnrdyPReqz5xQo7rnugE3AxSdDLXzv4Mn3T3Qg19OMRYR1Qu955OrEAvBXW24PPy2qTSlswuK+zHztU0cb4nRV8j4HaTKjpaxvJx05/SQ8ExnL/2p9yMnKv/oBsvNP/l6BegZEL43MKaDLXP6RnmNudxSpnHZvchyaY5d3xzHdVYi3PU98RTSkTvwuJgZJMn5kjI52Bf9h1nGoIS87PaRGLvO7WpDAlEH26Fj7X2HbehPmpLokczIe5J36NxU7kYGP7PgpqOa9w/+CnG3sQlWteWonRlFVDMRvj8HZK5Se55LIlSsqiSNhvwE9X3YiMqFUvrqs4MfIBxE9lGPJtq3aD3mU5a98wf5CKiBN6FKN9zhTlWT+N4FruHzD5hCuMvI4G9PGzfIZ50/DyBALupzuYR06jPZqJXbiWehjjxtYEwom8Q+/79fIT98r4+vkWx1Iy2Ni5JlJ5UFG6UuCS47qyf/ZfrrzbyRSeNaC0wCwI94l70n2cnNOrUqFWjDkTX9VjXY12PP5DcygadL4joADM0+gw15C6s09U5iwjf8/Hu0UR1o7418jKMNJNBzxMjCLVXAwrObk9KeUx1+bnCiRlQTH0C+HA1FYfa0q3T3lXvNYhkTDzv5folBa+s/erT963IZjPcmagROd/JdWm9q/bph7LfVqISlajEvxv/9fkiM67KuCrjKsjZm11Q916iWkwWxzpvRKb7N0ZGgX1Ano/UOf9FkOasa/cBBhefjVmS1DQ/yDiVXzy8Y5O9EYNLGAjQXJePulb9lBFXtEPzWcKdzlN2aOTy6Pek6et6vj715xriwMSES6teBnasfu4uMQlcpWfL8fYdrM6XTW0bUyxtWHzhZAIIDnieCp8RO5Lne+XewyzLn/seg4tKPcpwSAIdikvhy4tlJQ0RME9TSJL8JDeF27hLeU+yZJbM+vMLmdSNumYURj/RTP1S3nM+laPppc84X0sHuaPlA+xlG6mnNMCPHwNYLDiXH2F/9i/HYbBYuZkIfpKAbJIoHt9Oc+RmUdA3qSPfyTJOtg/bReQdrB8axxq5EGQQ8cyU++R+YCrIF2xgYZ/xpBJTN7goxm3p5Y2+qYLtz49duGxdHFygmGKE+GUr3WO4ntJfJ0Wf5QIKQJuxjYA9oXBK0pqkNYfgWxbyPSW3YOUkkgjJQDmFZJYBDqnau9tSknEoIcae4NhyS0nPCvZnD2ARezYOBsubuBRSY1VUf3BLZNjv67Wh+5jcDvq8lnC3HWyrSLIkHznrbXZu3h15d4D0l+eZIl/LIJnEBJBb5As+qDaQVKpTnDQElzCGt7zRueEvWn+bPFvt4/i8Q/GxnMYlWwZTB6EaUIsANfXwPRxs7E3x1tn/t1Qpj5D+x7+j/0NlufzIfv/+5/Lw8B2FmscSXaNvy2wzRbN0krwLVKEeq7e9iPUywcfIlVr+RfPklRKbhxhTe4RIze7mrsA98h3k/5oTVzRRL2QbpbqcY4+ob/8E9yup7b7DDpJ4Ve7TWlThHbkXEOpTZ3ZNBHffNd86z3vt/LrC/RQsyJmUZ7avxhb8zVZLZ3sq21v8ZDrrBHaCtGUdSeamg138y/H7navb/34nSHP6yiy2UpVODNETqUdXngddz0DSvmxKnGfhtijGKfHaM6aC/SlXsI0HFAdwKGJ1u2cZbe8OP9vuat7TSdHlwEr9iLfMBHlPest7B56D3EecBXIHVlexigH6BBk0lLFmPVs4SUZu/IIouVSZOhvB8b5GFrEr/6L1l+RlEToOwRABaUQhzoCRUiKuDgbpINX0E3sSL9v7qUOnppuCbtNNh6AYf9y9gcGopJlbdYRN0JU8wQlmumZzGR1XtuIUmmImXYSP8D4qQrUn8Q9SwiPpT5FX1o0FfGh1Cj3fwvmskB5DPgpPlkvLWoGby+7IIjvf/SY6xPq521/Xd67/7YOfU7OH5T2SPQxMby70pWD1GT3T3mtn6pN2jZ0C+hPJOmHMScRRwLZ1DQHB75wAgGq5Z9/+HArl9XWLrU99A7DsAQxf8NztS0L+9Qud9lzkG+NvJr3dK6S7uzZ6PRcX1Et8NvnsCmQhqUQlKlGJ/yX893sAhPmBHHyZz6S/tPEhHii7LH6728udyThdoadD3Cll5/iuvtVPxLNP+YnZWGKxOQe3/AOoPoBi8TtPUx0o2VAXvz7Gme/Wk51yGo+BfsQKSuxzdpZ8LBfhz+uR91Ooyp+z2EcHhq8s+Iyq0oEUBvAkUWph6MwGuY/Cmz+jLoYypx2WAIFICWBR3x2xp/VIWfJ9MZdeN5bIKeprrZtpzJ45fapeUFy79P6vvy7qGbcl4OeVyARnvFlhn3IvjNvmuEjovtDZodf+vIJoL9M4ehTJzg6pac4z0ylCibro3bpcd53fR44iSdr7nkDwo5HYgVB85el2vqvYYrAtsDFXZfysp2T1G4yjLjdM/02+YClnkUkhZzHaHWfHmrqylM50OYionjzCdMaK6/yu090BnCHfscU5Xx+LHiuP9M5C2OVdHOK89HgK+8jCjpS8JZYFQtxHiQARA1GakzHtJd8u+VV/j37KazjidzpxM98wxu2ffUcoL3T6n1++7LFRRx16yFhfbV1nG7BJ54gPtLmtjf/kkdJSWuHnNSCC6o2AIDpjX7uOvD8C9nOiuPjMlbTmcvIWbGOUeVA7hOvjIPhMniyUXqTaFtmDQjVCi498BTQ+q14r5wcgQBqPyyQC+PABljCbqs3AoZQwvVBKKYnGAjeMUx6LX0GyNx0ci3k2rWMx0O5KvU/7Mmn3NoSYm20CiZRyN3KY3+a61KUuYPHF+DooT/hp8NMVQXBYEFuT9hLPc+nEivXHg9gLY+SGDghRHDsMhwDwJQ4Bj/AogDl8xU12co7JGcv6zOpBJyNJsmL1AVEtoWxbJmnSwlN8+PHpWC+U5ATv8bjDre+fewX6FOVEqEpn0mr2d1dF4vVXf+2qL2QkJOVFrpF0ncu9HDJXw8HgK6afrxjRLsTZhTqQTtTUnUCqDJB6v1zEi1Sh3s672Ugpvuo/4kdQ2zn2ZktFLxzvxUinIvfio4gif1dppL11dOfvqSX95OrlsbGMk+UZoYadGz5IrVDS+h/XP3Hw+ZTvpat0xcpQezwf2/a6ky8oBelJDarNv5JS2URp1sXEUZuEJhMABXdp7GlTUVLFXoAQiD6CJUKBfwel5DGs13a5kY74FtUiQXpi5Ha3ix1ot/Mtq/mR2EUVgFBOKCeUA8G2wdXBkyiWbpzOJmlNK++9/BC/rvlgG01ZIk0GQIRSDHVi33q9xxNzxhG2PxZgJZLh7RxDEFx2d+tk22lt+emo4RzDXn5eWVdqmIs41VRfWy8ntLae/dPvvDbXIXoi1lxh6pgUdupder5+zFBc6useoBfXS5MRC5nLO+y6tBU+8qnqpAM+1KbG5kk++rN6DgLX8xgaShyGBPc9ithAabfn/aU6M25jz4cIYQl8U0V9lGmcKQs1ygmEPrSP/+mAddadbl9K44cEzvE11LjSd8Il7hbnZTawUhJ3Xc8AnqHlazfwFj+Q/zQILmJPIxYyVM7Svn96wAAgiGmJEiaijWhOdSInrcus07CJG3f22e7YSA6LJj8kSeYyCZiF0gKf1rOTmoWbhZuFYU1gTWDNkST5rUQlKlGJ/2H81ysAtKHvRfM7loGRs931zqeBQaWuEXcZP8uDknLWSEplKMETbiQAuNoJC6i5/2DivDLqxf7VpJg4Ch1ozo1ERk3Ux2UgU3adrPEkEuecqTPs83q2+21iq8R3EtoSAX46pIYLH/C7qaVzJUGOsp1ZiI/NbbbLIJaQdtn9BCgF3sBFKPN39Z5aWMHh+ip2gHHyiFKEADv1WfYOK9rzfULH+HeA+Qhl5njW6C2abe9wjpOpVDl09lunnj7iPMQ8mWevYJbbkr5cK08l+Ohoatv2lzYnzB72AD7CGN/jnmNqTgX7VeAdpB6jBHBAl+pnuu6jL5gpr8mN4eu1Haey0/nWeTt8WeQC93Snf8LShHP+xcV5Km2IN6Ua55ZJLwvvcjrJJ7SnDj+gx3wEGAK6MrZqnMe8p075s4YeFLGWPI0fF/yD2E4VLJ/pRJrxy5efs4f6WCCZYg3r0+YzudVpSM9DFS9r5QSmy5M85Bqpq+2py5d0TP9BPuYCadzhZly2AWAoQ30PEzskVTQbw5aYbVp6k+xxTAg/UHVGLblTWlANiGKx8q5O0Jba1fOcqYACwH+Tf3CjfNArGMIimnkjO4PL9BPdVrc+C+R8qYunmhAvDaV8XcF+4o3XEqKEMbhUpzGFe1+V5yWqb+7ZgaUUATYxlTp6HQBNmX+ownWEjtARCJPlOnkBHzGbNexkp26Uc4iQKC2J2eqt2euFABw56/q+igEx1yEIYdBSiqnqG8FKdlEqZyPEaSlQqlt4jmSgzuFVcE7uObmg65e0WDpYryfm4/AkeZJBi21dpSd7mUhMBbXHxEIAjJTbyhtXrHNmDa7nWVGbEnw1cuUZ/YiVyd9Tjb4U5EMd1pIi15FbPhhHhqyFubdmLUSbnJhxavAa3eM2c0fJp0akC0lM2j5ampp0PWVhDpAvzXsB+FB9Olap6XrEFf9/M2l2UZ7h5lh6ya29vqcOiznnDcgnlWLtqLlmoNOZjPJmH0xY4UUle0r2oEmtfMuTn6GxlvgWRnc7L+ksfqNOcReprz/LjdO7UV3aU9YkNn9+Vnokr6M9MUfOcm0Bcb4jDiEKcr60pNH5g+Jzmdwx+OQpZafp0b9H3FNMfdO7ZIkXkpV7YPYaaU4CbRG9kYba3R3DOpnHC5zLVhop37aXAt0jRaseZCf5SIsnAIPqYO/pNw+9wftXDCCluIC4y0hG2RC4Tr6ghN+vuEo76S96+r2QQxnxMqBZ34zpzfry3povQw+t+ZL8g4nN6bGuZk4PaDy0YcPGflznfN9xzjXWkeNYKKebrvIBD/Hpojlawj1cM/FJ0vCx/ZJzCOMS1YUx0kRTruo/8vOji4J0IAkfloU0k57S8e4a/idtV236DWa69tEr7f0ZVwRvz2jKPaF3c4aH1h6cxDb0We7HuR9DkxrBlOA1qJwslvX2A7YzQI8CzpDP2PvmBVhNlw23XIefMjLrvYFFKPM8Af6RFaVcoVbuW9QypojW0ygACgWK9HPuGTK/NJD6m7lxMr47Sm+3Pe1vvsSwj97c4m6MfBo9eV9YSWV2gEpUohJ/O/zXKgCaNA5entEUv33Y3aiX01tOjlxpO7kjbNvS/pEzSTdzUuLjj729P1DARsASIE7PJqbhLmdN39/yXxqzWOpkIlisM4R6JOFu3EEqx+ujb3WVC2jEE8BWFnGiXW2OMVvNnbByyupRqw+BpXcfduloCnUteK7qi+QELch/iLC+Tdk59YlnJ9vLPgX8BEwsWlmpVYEhU0TfxOKj1KSRzA5pVfqszGSAZC3IklRbJqNB3yJLs+xNcrRvjjRB14ZCpdmlh1HLheTqR0zTUtntOeXfqiPNMKrwkta58SwCOpKt7EQJE9AVgKCyf4ze4aIQi2D1dQKESXQulXoMkbmLplNVE9gCWLZT6EbcpXFp/oaUhOpk3bRm48EF6ufk6x7bD0OpCNfwE0Hici6WB/VaXd37BhIpIhyZgsUgUh7ycaSeGR5btb6DSxllJo4kMkkv68q1kmqazq/DT9JYCtlGXa7jbvvylh1br9lSnQhjGMnWQ5BfKk9SXbexljJ2A205ncvzU8nX2drnvEz8+gJO9HrAgX39OfL1FrNAryKMg5WBBNlLMt/KEqbIGQvXs4e67AbdRAKlbnuT5Dzt7CbCa1SMuO4N+YUPgGQdrb+7D3graiR1WMm0Wbk4OkoX9T4zdhGJeOtOyvOIHzkLr0FQfYUSwvhNEW1JZ2tJhsk3NTV9yzFs0j0kMUFb8bP018NON2hr2Vq2FhEnzUw1G2wLCglTAnzD+7w8KcoW2uu3y3NjaQDDP3hpAPcebj0HIOZpsIw4hDIzgk2U0KLoWWYySjoWLSOdgFQBsmmq/bWZ99Qhxywfs2detXnVoKgw4b2kGm4AgxIFqlFE4ifjEXy6OOsFAPZGhwDgyMve4ymHWs8f9kv1W+IBn2xhOZYd7s32UXbQo3gOPUkjnXHSiRNJ13IyvgpzKkiP8LO+85hqTvflRtWGMSRQgl+XaS6jBg+TFnyo84PbUVycyC/Evo8VzQagnufEfQTwE3CUFbzKloLBCUXxXycIT/vG+x73j7dm55u7EnZOZNefCdx8/ebrN18PzX5o9kOzH9hta4UfprnbF5fdlDBYf5L7cJ64S/rq6/rbF28AETS6k1isefl35UgVADFvPtFplCGUmMY0xSUz8lhZO0b8Uj0wjXwS9bcwnK/H8jq5PMpKnvoDQQ/QnpOxThGWCJe5ndyTZQ0fyEMsk/TwAK6Xx3Xm+bMZzRSqNqxHAgE0cpTHWVOR/RjKye+MtsZiKPSl0IYt0m/HDRovv7nNGctc2nONm2hL3Suc1sQDDx2K4KqTq91Q5VFs4Y97Gxc05hf9iPmywk7RoziVbpzCSvrR/a7+chyn6LRxJ+PDRzjaEEURKQ9ROlIPGzeWZUM34rKXsFwsrWguLbVzZLUzUz6Ju4jHeES2lN0gSTqTG7kWGM7thyC5PbeSSUQAMvVnXUZVucN5ga9tPuw8laj0JfPNY2jIFgofgQAJxNm82Pp3yi/+5Zq8f3zvY9lZBuMQRrUlAelBetetcdMLGthJZ/wgp3Atu6Z0YY9soLPZFp5bMjjymh2e2Sv9ovSLIHta7oe5H1ZwNVSiEpWoxF+I/7q0Ek1GpG9N3wo6jImymQBheVcuMlNRkoizp+kzzNVxZ54mT5Au538108sHf2dsLKTcZa+bV+5/ANkZu4i5SygjQsQ5lVL8BB6+T6/XU3Xa489QwGZCzmBfe/9lTok7JtwnPDJSwN7canlz8y79d4/OwZH5RfCRTB/IXdzCEKCRNKQRPr1Kb9Jr2WjSjXVqUZuNbNZNyNoLsidkJVfA5PW/jCbJja9IX8L+bMnlJFo/emW2V0pWYd67uW3+fv1rdlWzq5pddcCPW3vlMq/c1+4176x5Z807/+5WHxxNemUmZybv+w7tnw6s/OK9z1KdNS27MLvw393qSlTifwaZJ6Y3SW9ywHeqfF9q75XlHkX+7J9ys3KzKqBY/J/uz9bGKzK3HvB+l6efLPck2BdKlF07r2V27b+fxTTj6eCo4Kh9luHy8S6/bC/xynLyTid0X86NOTf+/fpxQL9+DvoyuuJQovkU4RKQFOK5ij2ay3aeQ3Aw1MQSxZIQ6p0bDK2hpOI1/8+iiWauafICPnub+5jbR65jGlMp0FGcyiVyWr0i+VQmUGvZUVQjDU3LI0IY1V9iBh5p44k5MLQmxsETwMGiJsxGDIXTw3KSrmB4zziuwWWZ9LFzpAtvaqIJsU5b8UnW1JydOXMrvh4y09JnB7eZT3DJp9j2Ayy2Uw2qyhVy/Pzt+KlHFWqihHEZQeyMf/G/ez4qUYn/XsTYecHxSFI/9gwCF3iGHGdvdnZOTijkpv67W7o//us8AHQbAXMGDt/QUjfS374ry821trO9gyx5HHzdtKUbf7tDFEMj8EhptgAg+9L47H/xj5HfiP4GOESd00jFJbili+awSX58fTqG6+VEnpEE2uo7do07I7rIrU1Z4oykW5Ji15e5f9TezGXpj6SXItFLnIapJ4H01dJobdSZYJuVnifL8VOXTnKuLqAWb0sXacsalpqMmCs4iz0qncNLrbVvsCgFBB+teEur2y90k4aZzzodz2Z9XzroRqbyioy119umbgvbDdhCUP+xbv704NkkPfhgMB+HBdzGybiso4B2tNcPOVqqyzze1pfpL9OoRj0ec55EqEIBrQEXH4VeOw/PEqTeHx+lBDDs5hjNJ0+36iM4+Omo9SjgC3nAfk0cGfyqO7FEcEjM3pX7TOgHjz/6n+dpZnBhxsM4dJar2IxLHtvJ4zguswt5WibpTzTgazNMmvET35maxFbYcm9+jpTV+p8hCFF3bjgSzaEqEWpTlR8plY7c7t5MFZ2BZRhRqgJ1EVwgkpmZfnvG5Yco3RJPhChJrCCTNuzhR9bzA885w72o1B3eb/9z3uQj7Q2A1ZWuqALVCeOnCo2IcrZ9lJ9Ip73WpCplFNDWsxmVZGam77s1VBBKlCTAR21+pDlbeUyGshqHHSbWPx8/eL+Z9JfMHkSIEEWoTS3SiPIO1WnIxe6tLCVEWyaTRDyFVI+RTx1BOikDuKRQAtRkui4hlztlirQgiT0migsYvvbGv+IbUswDIIIfIUx93UKUxjwm8VTlTvciMkmkhJ8pxSJU8dKcHX6/FMWShB8fKfzIRvawRvpTgzDjTCN8CFGWee3ZP5b3SOFiUCCVEnwIv7KJOlzk9qcFhRzDW5RiKKJ2jOfgL7iIl3vrKEqEZHz4SWcWe6nLIPMriSzFleEI4GduZmY6GY3/gvUZQykGB6ElZeQjepKuppAL7W3SgfYcTU2KKKIYi8F4Y/OvcSJRXUHMgholCR8utfmBLFoyQW4lnQXMN90RLA4/Z2amf59xWgWyGvwzhEjMxZs6xFNKY0ZTj1QedEfqOERH61dmglgZrp9Rld3SkPiyjGhceByl609df+r6U/8hyjzOJtoSdX+2tWQAAelMC3byuFwqHXWJacbXLCBFTsLgl17yYmZm+uyM0+VzQLD7skMcWTS48Ua8mOOpxi466wqgLnfaHPx8yyJtw0RpKz/oyyRhqUrcjuKds3fUoWxP+t7n91x2cNFuBxtxv8f1JchIpxlJGB3FLt7RtbxNPdkhXemkX5rTPLrZ/Mwa6Z9l9DE7qEZNEumLSxRLvvd9O5x9WhCiCBGi1CBMDdL4GJ+05W53AEW6mi2EdKzMYox+QwKfEdUihAhKAs1lPO9QEqoTqhP6g6CiaLXI4nBDXF8Nkxk4R8fbSZLu3uV0kBNI0dWbkkA/lP5vFhAnV5J1D8TjJ8G+Fsue4rzhidnfE8DL+mSe8PrblSR8VOsxxw6Wa3ih2wygLRd/fzrXcQG3mGWaZzfbl+3HTOWVv2RNV6ISlajEX4T/Gg+Apielv5r+KkSt5Pl+JGCO0bvc+8xnRCkjas8kgTK0x898J53lrG86UEwKCfoqBhcr5SROnbyy/IL7jw3AYDDuKIoppsi5UX/W5dR4PImtUleHPFxMfYKkOJM40bwdyXYvNHX148BOJOuH0PDQcwc/KGV8FXyySTsChKlCgDBteIwlTOFH3qEzPyIoypNESMaPP3R1zslZ3/x9LT4H9K93+lEZvfcdyMstueWW9gFeWR7rLKGpuStDU/8+lveWk1pOajkJVly44sLiDV4j90D9/EbV4vKourHahh2RmhQA2YRxwXeuvAEQXp71t7eTVKISlajEfz9abM2c37QPPnazl71ESSGJJO7nNh7VB/mKEziW9ixlPF/wKbLql+wVWRf/ffahcjS9OZPMfygSwl75gldu88rnvNK/9tVssisSeva/jCZOes+MpsTpNlKIUiaN2EUAqxdyPSHOIpNtxPEVT3KmbsFkl+Rm5PyLrDAZv6efFNxAPLOYKN3lHn5nI1X1UQrYwN7Gm2SO3ImzeDhJOBRWew4XF1HPUi/l47a/Aj/skakeRxSD3yzjeITSL063L/OGPHX2TBnMdB6VsMnWCdGBepRO5h2TSV523dxTc/odgQLUQ6UHQCUq8XdDpQfAvx1aF0s/jBmpz7gXc4EdKj1lhH7M2RSwGMwrLOW7IR+ylzrUogNxuFjrbfFO9YOIjW0EoqsAl7BzIwGq0Tg/iW/kaE54oyUJ1JAl/MJetpNlc7nOXh/ogpN1T87voecO7vKVOa3xwsxpiBREZ0sLwjrLWW6f4nG+02slmTP4SHba0U2OJ5kGVEm5FsVF3eMyM9O/zUAeoWLw2Nf1ZFzKML6JvCm30GpXMZfqqyzITcDBh8sn2Rtzu4ea0O9wK8g8L/hUZkdEnqfMtqC5+VbW28dYqll8IhFnm61hN5j3m9/MM3zPwMAqapJEvv0pMzPdZjhycoV6F8t/bqmiidQggbm+tTqTt/TGjVfJKlkou7a+TwKJ1GRzdtuchaE11D2YqOKHC7sW9YbMK9L3+jqQJktlqqxmV/Ri96aSrXyemdlotqMtPKN0/ExghN5vgwAZyEUVnKdKVKISlahEBRE5wS10A3osPgKs9/WhHS11/daxfENnWm1cyiLSKWaGNDB+KeBMYAX/uGAfgMx3MwdkjiDVJpX4bF9q0kXak062yfSnyaQWJ5JGKl3jnyBAMsa6KJZ/7AdHfO6yU10UvQZFUOc6OvOGtNoW0Ps4j6Yb69OM5vodz8pqeUTXcT+v8jnND7+ejJHpt2aM5GSeYyafMpt8iij0ncBOnuPDltOkPQ1Ik2bsoZgiinAwmH2K/iPhbhAgoj5K8ekAmhNkp+8NO0p+5uF1zbhbrmT0jiyu12lM41PTwP4s/bmo6ZLGHzX+CLs2Me+CvAv+QGobeZZZlFHALHldX5cW2tJWcY6jKYa0vHqaywa5+p3WkkEau4c8RxzJBOwnKBZ1zjxIW41HfnqLl6r4WX5jL5GzbjP3a6Et7LKYXVzL53MDmsqtJtEMYixZ0sO+k3F3xt0ZdxMNPRd6LvQclahEJSrxb8N/jwLgecY4LVEe4Ty71txofDpWr7Cd+YE9XN21NZukh3Tr+QIOBrgltiE79bzH7/bK8o2rXPMfS4vn2nsRHJKcr6jGSZz5zlgZxPt694YL6aR5cpTTQS/33cFmd6gx4fmm2yGku7qL+tyFo9c5t0W/lOfpT5hz9HZKZTMNG2zhJ+kgZ84byQ6SSK3xGH4sNtrFS/t01hEOU3m7ojGXbrcODn7cgOUxUnTBFbeTIbfI6blgcRHnLjbCkZDYamPb207AT08zSD401d26WsMZbWEldUlr15pGciwT57Ujlb2Mkca4GIx643/E/Suft7djBxJ9kr2UUODzSV/9mAdOaUBdfUY7bI0FPvjMJqAGRx18upyB5nffG/j4QsbYx0wtrU4iO+wuxzhnmm9bX4CPa7l/wSNEKKZm4MRY3mb7S6wbR9yPSlSiEpWoxF8FAXAboSgmcBPfUYWfZ2yU8/R056Qev5DKFM4h2d6rtdy63By0wbhgHMNyGuSU5fxBrgzXRK9zfyPqLIh72/xifmMeCxCbQiIfsOm2viTSiBcGnUKYMqLh1Bh3kNPfe7xingXqXoFgiAuk84Pm6J6599DF90LKZV0RR1Pdruwm4J5fWIfrmjyZ/kj6YkZnPZDbLrfdodcrL1MiL3O0jjKjI8tkA3UYLr9F50mC7eSc+3QZDeQEys7Ygg9IDMckW+ck7/HDoQX+/4Y1lnTTXUwKPjRQJl9yFI0mpusWu1dDF8NlUpvzzNP0ML3kQtvczSDb3MMK7/kDNvLAoLJj4hag4RGBuPCX5LOJBD60z+hsgkznSqmqT2FenUcVeZmCa07AoNSqMo8oEKGGF7K0qVycV5afm6/CYHFtMiUkk2TKyOF0rh78vO0rO8zRc69mAJ/rb/qS85aqlrCSkO0hrzCXmJfGYadFrUQlKlGJvwr/8QqAzJ4ZcRlxOA7R48OPUSs6xokEruYJXchGuoJ5RE/Ue2+7inziSQcCuLjuKyiCOOU32z+K+RegOg5RHKeQElIp2TtYHyeR30Z2pwFj5FrAL8PpaG9CIzfqdVyf1WnduKxT/4XL/9706cEVSHbq1KTslkQz7znjkeByE8ZPEoku1GGUXHVDHlFqUlbjMXxYtrmTYxJ931Vw3iLE8tEnxNjpnShV2cnu358wi0yZPPfhrTpPJ3E0L2l9+uNzP6Q6sJYOh1pBxs7gUcGjgEs5RT6kBg2pwRtyNGVsI4XvdBlRal4yTDrhY7PvQQIkE3Uvi2nUfas9MUeaPik2n2qvQAG/04W61GDr4jIzxbziHjunru7VV8wpoK9ylXxmN/6ZQJkoc6iO1V0slgelKxYhzCpaUI+aPfdg8UH8TQhJbHZvBQTxjfAeH3iE/ahEJSpRiUr8lVDnGGKq34cIUCi1u7a1p8tc977M06hGhIzsE1iDpYb84Jti29l2OhyYz/wD9/PU+4Mf1J9OcVFqXu7m+9iIIUAKcCwv0328sJbX6D0IwGF7oA8g+GkYa8ehMfUfHM6omCKDfHzSlmpdnpW73OsL7ut4DTN4W7f+3JyAiEkxV5FCK33M7k/C+KfIXpP7ZvYaXs0cGayd0VK+pwqdSdRudJNZrHt5KDvJoO4ZI9nNerb438ZHACM7UBTo7okxh1rffv07hfLw1BDLKbrgKzmamYx77g6sfk3i4ulaAho2F8pTPMIjdiVXAzMPlLRq5KbUVSMh46vgCRlfENFxJSKZeqWcHf8qjnMtx3IKe3KSiKOERmN3so6xFN0WGytxR8ba4ZRf/P8oOwCIed7zBJjHDjlKWp17nvmJKlrrhPlMw0+XefG6Q4ykmf7ykga41vrTH0pfkn4uZbltctvktqESlahEJf7X8R+rAGgyosmIJiNAh7rT3dU47muO8T9qTpHHeVMdO15+5lu2HX8ceRKl0TmnYoh4+lYf4gwl9ul+8CDibez/3WGeqx2aQwNdMvZ2eVRfkKtC6cyjFJxknSOn6mx3KI+bedL0X7gMDsscljkMuMv9wPqIy6zSu3HGZulHCQPkHvce4pjInnrHUCYJmnLtrzi4bKYjoMSbGI2b7mN793N4KN+4vDzL9lESUeIcyEBpM7yfXW9T2VCWQR9upsjpJ46OoJF7EnDh4VRkrtb6Wh/DdzLR+PmZD+QBed5twCn4iSTfyrkasmPPi8Nhd7k6gjgZ4rWy1+HU9QfYCwjYL4AI1kAthBoT37etdI6vrb2NJDoS5/wW94NvesLZ7rE8xdQ/ElRrSo22taaADtAktnAOF5t67jP2K9pQU54GButHpqxvKfVo7K0rJUA6MfquUzwx/zUcG5WoRCUq8R+OmCu+jU7ARwrV4y6mE3VlRI+tcimFNHvtWxwEx6SUfelr5Mt1/TzHfP4gFGD3iFDv9a+A/3vzin+sHcujpU71c8BeXHXe7yVz7zUFZWvqsGgWVQgSOO4bLFGMC7ELZVdPzJEr8g0C0VQiFFDFdzzz9GZdeHFnHSQvy70/Qxkp3CVHO2v0ZPsWVTPvz8jPyGdX9lOhaqFqf15BcHJwVnAyRj7QkXKJfdn9wvRwX5IUMgnyw/RRpqUuNyumD2QB1Qn3ODaWnNMdu1//joz0MEb7K4ibzg4MZU4uYbmQdYPPZTiFUnzFdH7XnYS5MRI2V5Q9y9cZ/dKPyWhHaeiT3BdDiw90WQz1yZkXOgubOa9xQeY8HNrLZXqvfZKqNKQWbxHPFuqNas4O0lg18HX2sIOixIs8D4DyNMRbvLLcYFR+Drs1FhTgjqYQcJ0TCLGZbYPP15d1o86e94ZcK6dLX/L1NO7TQbRzppnmTje8mOFKT4BKVKIS//v4j1UA2GOiPd33cWSUEyeP0EzPdu9kLLukiu6kJ9DbbGfn4JHsZTqOaY2DQ9T6Y3lsTTnL+/79L7f8H48QxjhLKCOdgoLpLORVNr/aQa+X5ToESOI3GtpPCTBeBnOWzDW3y/aDa9g1ZDNsDwTlRz4hSdrJEApMGfHEaQcXpjGd9wYlUJ3a7Kk1CMUScN8HBHXyPDFVj3C4PCdGrYfBIM4DbGE3sjyLX2yafj3+ft6njLeBeVKbGu5N2k6ycfiSW4GxhzEvhZzDZmAvx9mrnetwFaIu7ECY37OvrKG2/Nq4O8kEqGZfxqJEzfEACDd7Yg734uxZ/umEAeJ99ShCWVvcS0/WuZr28YWMlyqcAJKEj7ZW8i8L/1TaxJuvOw4UWOXjaiurfIyx3aJj3d4yinxNdIJahwx6SdNmyTThN13X6TWKKGUXNyIIPme29/h3h9LoSlSiEpWoxP8abOxqaVrhoxiXi+V4SnTJWQ04Vx+S3a+BZRVRu9VXxebZRbQA4EKW7i/I39c/xt8XyIo0l3W8rMUJL+y4zvlJ3iwrqOO6J2ptjXLXh50lQ5rw8XGxq7Byu7fjfOSJqX2E/YjGFPnOXRgUh0v5XU6XtHMfkCZSz85/aD0b6Cg9C+9wE7nYvCtE20a2uC+q8BRwCJ4AvkL3Sl8h1r3P6RlZxZdmh75grpUfiMcQr53opCt0xvB8lkgXad8DyhCsSfJ27ls9MeXcQYfLCRCJZf1wBhFHgDhASZNTLjqOH/RbfXFYHz7EJXHJyf5q9qzAfcbICDMZnw00/rixNu6Imyd5kvcHpwjd63TTm7EyWJeqo220uu6W000e8VKPxDWN5Ueq62sTJrIbK8dfcx6CD3XPiHk2OAfrh0fq58xEMSiDiBKP6bdL3pEkOafdBfRESV38EZuln5xhztNHtLlNtn87kslKVKIS/3fwH6cAaHFDvaIWN0DkSmkVXopfV9q6mmIMuXIST9lpulHOoV6Hs6Q1K+Xa838gGUMtOsW2PFOeP/lgH14fMdevUSgBog7sRDj9ve5yp46k+VqHfGpS28nUZxNW+c52z6ao9NTomYSz+2f3Ct1z8HaHXs05J+doNPPb9CuCj8kpcr4u0h3ux1TRVcytdZH2NI1l2zWprERwgACC2OtiLdVyFtfDtfyXowjB4LgdKKWYXXFQQ7foG688SLpJoH7p51TFJcH5kGn6iNzsnrpviG49vIp8p9iN4WdJjX7rXJxwoZ6DD2UHU+RKVttP+u8mge2kETuKRSKTABBnrff4kWasT0AQjBtLs1YSB52oQ7UZZ2g9jiEndA2zNIVdpqdvjrNaVtnzk4fop+7agwtcO2Zt2dox2MzGwU0ZG8wXGAwRF2brnZrecxNJMorNgRQEIVCWHltVTrnr46Aj7EclKlGJSlTifwZeglhtj8XgyFSqs1lqdezDbnlSbSMXi5KyzpE+lHGieBd1PYBeLtuX/WW2DzLnBWdkziMsp+ljfGYLyWcntYCGnCB9PjkKpVAbDj0WSGF7/AOAi9/b91SWV6gvwq+An4i7FR8hGjcezPu6x5zVczZ7WE38J8MwjGOQuSPv3vU78ja7Lx6q8LUD1q1bOwAynwx+mnEmaq/WeTrUPur7UrIIS1350tRj87RT3TxNo+6sOdSnGutOvQCLxVc2NNZCZ4EnruiIeigkYbFEoruIx0/1+A76gAyUWTf/KAHaMG8gJJJAhOfsq/ZBBvJhXu88yevEwoOKtPKoDEX1MnnHPZld0tJ92HmI1tTQEzBALdrITSMeIF/exn9ZEQWkURJ4Fx8RHPp7aX3HeeL25wT4GEHB/YoSHKxzEZsZiHtLNjN1vc68+iOqE0bki9Dm3Gk5Dpo5O/2pjGRM9sm594cKKz0BKlGJSvzv4T9OAVD2UnzTskzEXKZPSB7tmKvb5TSaSj9e4nKWki7NeWDwncQToabTBUsA130PUMTZn+yvHOUuY+0BUGcxJURxS3J1pb7G3FcG00i6SSqIIQFjV7C2dGZ0AUmhITktclr8+Yc745ng9oxk0jhfP9XbZKK6nERUfWwzTZE7txPB5eh6E0kAEt17Y0cVf/GfyT0kqDaO5YX35VGDeqRkd9bH5GkGvP8u1zCVmnzIXUxkuHuWs1nr2ak4azvnnZGbfPjsf+53zkdx1UxN+QWfvc1exwbWs/SYG6hGPTn+7EKKEKrh2fjjqnqPvVrBHq4ALFHjwyWOVCBbF3LuB8ZcKJ3lTgDqUCA7o5e663Q82aF5uTfm2n/B1XBN+nkZ1/Bi8vDUBaXPum+X3VnyeSADImPC1hRe8CUp+IhyCVEi+Pz1EQQ1b/0l81WJSlSiEpX4n4EQi06PuBMpRamd5mcJx4j2ncVWFlMwMpYn5yczJfbAv9gGh9kchmHVJYegvmA2O8P0HNNKV9JGXwldSE37hTw2YyjpciLO2f2wKKqfxLLwOEfq8fb/90VNJ1yEAAuYTxPsoKdkD03l8U9gI9s43h2SMSj90+DbbA6Nzk3NeY7xhyz+Nz1RlxF1fuMOLmKK/Zp6st501L16F0nuZgng113Dk7B8LE1PBYhCoCw2wuKlx6Ji2XDE9yCgRHlCjmUT06/dpWtYqePfGi+1UDIWDJBU+Qy/uaGxNtbG99lfPA+AA/b37N7ZfbP7QuYr6WsznyBCH87UZ21r3SoP6YemDw4bKF3aVobqVolMXMUqacaSy5vHLv7u1TEpzsHmKxoLGXBGEVMl9WEts9ly8Xz9RpJ59MVhtMdPveVDMmywTfBzKaMm93O0pjRq1KhRo1MJr1u3bt26dRUarUpUohKVOCT8xykAnKtsWHfh2GHygFQ3JeyWOtxsx+k6ClnXtp90YgMNL3ofg59SugAKzjfe4+UsvPsrAJwYi617KX6EBAfS9Hf9ZeIeGSS3yUerJrOEpwg7bbUWC7Wqe7VeQiqp9An2C+YF8w5BcxukSFNpKsgN8rMdZUba+ZIN0aulxF7821xpTTVShlxOmCjh8KgYa7CUKwCOkEzHg+iNuAhu/COcwiLqLyqU2voNXxU11S1yJhnyvc5ijtTSC6L1zSZ+p08wL5gXzDt8tmKtzxWSrrdJH1ZSk9OohV8nRcawFsu4+84BhEjplR55jkfbo0fKGuz1jw8Ag2vqoZRSrXSKTmOL5E1rjV+f50FgnDygCe73er1U4SEuDT4azAvGH/xkp7W4Qmtx6t7Be9bHj+AOfYSpui3uS/OcnMyF7y2VzpSx+eO3CePHZ/t4iYEq1o9KVKISlajE/zQUi8FqHn7CBOLv16X8SsvVn8hpLGMj6BRas8teE9wdzAsuZufBBFkIW4Ak/CThtzs0W47Xl6Q9X5HC6bqR+2k69APpSJTf5zyIg4MtC8dcyqXQE3Oknn0xFbZwKn7ANQUsJkRh8Xj3KqrZeXFPksEC5pTV5wZ5kUv4PnhfMC94E4WHWoH7j78oRTjyOqcz0L3SOdb24VPOtg/I7fw0vQfT5RV8V1/OFuqgqXH4iIL7qWcxP7sCcyUgzxHGRd3LqU1NkpLGSjcaSF+3Gi9Rj5OAr6jLHr42y8wy8zpne+eXg57LrPdH0nmTrcTj8oRcznppi+pOwMc9tH15DkoSJRePQ9hLNf+TgCHKbV7LXthv/srP059jcFD3N4opwBf/hdzBOu6+9XVtwSg573o4llp0ll2mvjvHPUVrBny+0f632AxAj0pPgEpUohL/8/iPISnLyEyXjAyMU91Ukc+IcydqnN1itlKX2gRsqpygP8sbb0XIl2b8eI0PPz787gsoijp3/ssxUM7FEsXhM+Kpzl77LR9xCVU7LOMlmpL16+0yRWvT13cRD/E0Dex8oAhTHvt1CAgQRYiQRX0i1JeFeh119Zm1M696Z8/r2hMeGbtzI7Q7u/Y7mSXI4snbrs5OqGC6IKDJA+krMq4kFT8+StiLxWDkTJoynF3yMkXM52itjZJGmbQGj+e+Yijxynaxwj7p/ft4r0zIuiH329Ar+36vwmjyWPqZGYOIx6AIpXxPXfaaTM4ljzQaxlzzWOb9evyfCozFHrqsJYcsqoqVXNmt3wVu838aqKpH6yqN6FZ2RtPcZ6J9MGvahuZlPVC5cVeiEpWoxN8dTV5LPy3jln1568sT/Y2JFcYrWeWVcX8qUDEYHOLZxS4NsY6TOVXe4Qcelid0PYYIEX0MhwhhqmZNza2bvYXdf3F/yvc1TxEtXlCi/OT9vDxd3p/vfweDi6UMqEYSTYnyok7iKb7U3rxoJ9m7qEoS9fmea+gqU3Cy0/La59x5BHmE90OzAemXZV5KHAVAGWUyhUSuZKY7k5AuMnfzCy4b2UAyQgD/IZ+cYgoKh7Xs4FOq8KqsE795XHvLMbIneg6r7RR3yfi7cKWt9Lj4OZQIZe4uQBAn7SBSyzzFzBkEsIT5lu1Up2VxQJfRl8/aO7icLR1WlsqxfK8fyq/2Y5umz2nnlGdKlxc3pWTp1K3Pbf2DXBGZaemzg9vMJ7jkU2z7ARbbqQZV5Qo5fv52/NSjCjVRwriMIHbGv5hKVKIS/0NwPU8nxyP1/LhvrLzgK+/ne7Ozc3JCITf1393S/fG3VwAcd+xxxx53LOS7u57bNRc/X+gGqSqb2coyLdYacjZj+LD5aaj45cFfP6MKVXESU4gQRmkbc7XjF0/c/h4PpbExcBegRBCnGykEdeWYDbpQ28ib1zSkjDxqmrPlJvOFLrD52eNC5LzInH/3uFSiEpWoRCUqUYlKVOKvQeY56buDJeZcfOyl0H6Gg6JtUvlVjpWjfzkJl6qk+r5GsFhO8B6bdxBxkVjhDgUU13mSXM0hbdQqXhCjL9x0FB/RU043u4loa/rbY6PTCdgrycmrlvtEbo8D1RiVCoBKVOLvhv/X3r1HyVHVCRz/3uru6WQmL5KYDCSQmQlhlae7QFZjeAQViIIgCCrKQ1ZEAitrNGpEV1BxVR4qGszK2YCgQsAH6AIiC1mJrFklIkiWRJOZPCDmnRBmJjM9XXX9o2siQdCwe3Aa9vvJH7e7+tzqW31O5lT97r2/30s3AFD3WwA237dp/uZDSRiXPlH4KA2FeaVlsSk5mmPZL0xLYSxbif94Mp1MIDYOpUofMX0w32O3OD/N82dvrWV3PY0iJVI2sJk0tBz4ejrDYuKtb2cwCbFhRpwbp4YQ72mb20rbnhy5u+OXJElSXSvEwJtpo0pKmRjuCyPoYEh6MKN5GrrnM4SRxGEQSYEx7M4kWih8o1ZOmss5JOxP49lXcW2shPYv/U9cyDY+tnwEO2iiPdxfPjZ8p3BIPC7v2TfQP4ikl6+6DQAMCU2hKUBxduHOQjPlbE7yq+wD4db4Sxo5M30zj3FkOG7Sz0IHr2bQWdvZk20MpVbIr1q4IK/f2j/z/3wBgCH5n+8NpMRaCTnWMHjysvA6gMnPrhfgg78kSdLLVwQ+SxtFMiAygWFARl++0S8Ad/yFcxTzM22kQKAhPY/1PEVH03XsxZNcOuNB+sKJbJ8JjZQh+WL3j8e2lm9I+9qeDsvbVhLaW9r3bW/Z5S40yTNCJTszQwW2s2sgov8TywxKf021OjPr8ufPule3AYDmfcdMG7OFkM2iOT7J2HBRPJlByalsIrJPCj8PP2TKRU8ylu0sHXo6FQJp+uU8C2t/+ZmG3fy6/mR7jUSKxGxzbVdg7C/ndkze7nbyHEmSJL2k9E8YdVO7pW8j0EdWWEPttr6/4HN/rqTnu8/sfwSokhLJks/QRJlGYEM4lUHnzOB3vIqnrv4Uj9NLwxOXNfzt+i0948MVyQLui4/G2Tv7//GMfXQDgUpeXDElYyiB+IwMRLVXMf/+l8CDiPSyUCKjgWayWt21ele3AYBs7zghnEYDN8bp8azwyTiECj9J/4FOniRt+2pYyoUsPucB9mAwQzmdAGSFWXn3GS/w6xqf8TpCMir/o3nbQP8OkiRJGjDP9Ri9uxNMhVrvMIqUQEzvIGEt2/Z4JBxHI6+44KK4ODbEiy+BsZToSSoNlxw8v2VBmk1cGNv5LGHFESvbOj5BjCvDceFd9LAjVihRC0+E+LrwamYyGihRpZda2cKwM7mlpBdPKZ/5h2X0sCz7PGMpM4Z/ryWhr99QQN0GAMKJfDS+hwY+El4Tbkg+R4mUSgpTWR5/8v5JDGMf5g67iBTIKj/IL+cLeff+rPPGPiVJkjSQevNF+UtpoESRk2hgO0POPY9xoZk3fnUk32WP8Lp1l/Tc9JtHV64JM0rfK9yX3BLn5v1jmBX7WMIchtNLCrXyw11fYixFRvYtYhuQlH5GAYj05xI4Z6AvXHoZ6l8BNB3yOmN/w5GxsrWFCstDMxBIiDzGBtYM9GCfS90GAOigj73Cd7gsfiG+Iz2RNuB3LRfyufDu0Py+95JRZDRrSKhSLR0ABEJ460APW5IkSdpFIBJ5igoFQvoVJtBJb/PF4TJ+HSbP/ByPMI3ZH4HrmRzmJXdUL06bsh+k4/Peq+M1YQTHZLezPq5jP8ZQARpXPhS+RSffePImGhhObPkRAEnMyxSG/mSCpYG+fOllJOYz/x+gSKQIHMSvwiEPL2UdCXtTWxWQ8TXaga0DPdw/Vb8BgEVhSjgjHE6VCBGOpoeuY+6ki70YtfFCEjLS336dWj3W0/Jej+StM/+SJEmqJykFIsTVdBKgvC/3s530oDeHMXFbtqHxmzxBYFL32bFIcyjvTGZ9GPfw2jifg8KKcGh4d3IzXZSodr2drRxI6acF9mEdxRbYQYVK1khCIBT6H/z7swQkL3zIknI9eXsykZRC4cc0MpawYxKB01m1YC3NZCRAJ+spZt8BrgbmD/TAn61uAwDxChrDXtmEZxxqghuWcBK9MG9/oBdYlX82o/2ojvUrFr/w75EkSZL+GvY9uXV22xDK+dvaXv0i50MgmRe+x2HAPAjf5l7g9f39wvFxU7iUzRwSWuO1LCGlh15gPwLJ3Fa20h0OPvtrFCjRlJTzCgYn5VNi/VULDARIL9yOvB0MBEJ1KmUSsiJxIdvifbctCZV4Qtjx2zI7aGRF8rXqgvB4+nA2jh9zNf880MP/U86US5IkSXWsrXvC6taLgJ7wYJjCYeHY0BWPSLpYzZvCQdnjVOMrmHzVdIaG/WmfeRcNVKj2LSIlISm+Jk9G2H+6/uoCdTsRKA2g/kBZeMb7QEiPJ9JHtXAvnQymad1U7g1ree9rZ7AsbqZr5buosohV4T/D57k7+UU8evmjHZ9f/uhAX86fqtv/+BNLrUPa/iXkyf1ibW9/mF7L1h8POLd2fEdbrU3mDfR4JUmSpD8rAsT5lMgIYWvcRBN92af5GKeyav5/00SFZNNTjKSLIr3tH+mY334tZX5Z6AinQfHsMDuZz2NptfqO7MpsNguH3ZPdxNpB12z6r9Kpsxb33DdoTfqmlg/Qzd785pRrGExKSNfWkmZzYm33crIBgBCeyLOVvyofXd0+F0gvgpi3If+3EYjE+F0igZiNADISZhGAWLiXIhWyrp/E9QyDdx4TpmW/j+eufBeTw6Hh8OTywsYQeUd2dHVIPD+dm6+0mfKMQp11om5XAExsa21pm1TYXnuXDqu1t51Qa9/2o/z45Fpb+MVAj1eSJEn6iwLTCAQqLKCXPprTbfGhuJrrD7+eYijQ9fBMGiiwKXlP+7COavvx2fX9XdvChL7WD1NgZjie80nDV8KBYSN9PWHTlC1zmTL4y2NPGLNHMcYH0s9W2z9zIIv4Jr+edR4ZRUqFKZRpoMAsMiIVrqAAFICkVldA+n8pzYv2RaDAdhJ6aYhLSBjK9vBaNgBjlgxhKqO59Mxvxhv5OcMefht3xgdiMdnG08yJk7MRlAkUaEzfE2+MJbpXhVVhVR0+bddvpC8QqNK568HsWXVN00L+ome3zilJkiQNpMCW2n1ucmqtrZ5CiSrFdBjFWCUBSqFI2Jnraqf2uKrUcSXpxOtastZpDIqP8so4ntKgY0cdvsdIeuOabHT1jOzTtIQLw5mzL4+F7F+zS255S+gKF3LOBcN5nKfDPm+YQonAnnuW6STSWZpMF92UuTQPBPTPWA4a6J9KehH0h7q2UZsMH8VQGhiSzQEqbO6s8jTjWPnIR2llJL3fuiR+MCzO/unmfTkyLORnPW9jUXpzGJK8k4v7SunmbATvD99jGcXw1vKO0t+xY1VYcdOKwwb6Mp9f/QYAgOeIRf5y17cxXwmwM7mJJEmSVL9C/CEABSYCkFAko0DGZLL87jeSkBGB9LlOUTqz0lm+i57K6vJplX0pxw+GBkZTZlU8n29kS8Or4sdjW1IJIb2OLz/ymfS48EZWvn97fE28I9taPLf4xcLVyS3jH4tnMZIPDS1zJV9nKl+lmVfQSZUqKQnDB/qnkl4EkUhKZCUJw0k4g08xhk9US+FsRocDfn9EcmHYu3jctsOG3ln4fvNWBm97d/XWNVexPBwRprB/ckK8i2L8dHYzvymeVlhDOVxUeCz5EJUVl6+YuGJd/a+lqd8AQCChwtBdDyZTnzX8N9VatwBIkiTpJeCPWwCqtRUAxSoldlAq3EKBAiWgECuUaKW2QH/Bs0+xdM7aYUvnAHMA6G2b3jq29XYKfZelLemneOWGo6rX9jRlybh7yp9sWpBcltwVl4TrwroRV49uqT5ePX3JBQ+dNXiflezZvM9RvaezduWc1T9tn11/e5WlF9PEiRNumHQwP2dJWFB9nCbGsjGu4sbsqnhV3xPhvU8dkI5fc0YynXXhirg+3RLfwqPx7uxhloUHwnk0hJt5MDma3hXfbz9lxbqBvprdV78BgG7WMS3evevBRUfV2qH71drtlVqbfH+ghytJkiTthidqC+3Dv9FJmcbqKH4RTuLhLeMoU6UPaKKX7vjK3T1h+90d6ztOJuVu1gNMvL/1+tb1xGR1Mj3Myz7JA/HiOInWbWM3rS3+iG+Pv73l/t6GMDj+PUO4OVze9qWWW9vOIjCKkXQTSUlJ6jdXmPR/EsmIxJiwOU0ohPcxLQQe4w0cysI4Ln4xHBPvihvSzcwMH0/f3jV1r/HlHqpDf7j2kd7R0DG5440dy6g9hy4b6IuRJEmSJEl6DnUb2Zt4Sus1LWt3Jh/Jk/yFE/P2wVobl+aflwd6vJIkSdKfFfLd/n0MZyNFRvMf4Wy6uTLbP/lK/DDdTORX3MQWjuA2iisOXjVuxUKqAz1sSS8f9bsF4PZ4VGE8z8r6H9vz9tD8wOl5W7eBDEmSJAmgVl8caKCHBohrOSWuJfL6QnN8Aw8xPG5gONDM7xj33AkAJUmSJEmSJEmSJEmSJEmSJEmSJEmSJEmSJEmSJEmSJEmSJEmSJEmSJEmSJEmSJEmSJEmSJEmSJEmSJEmSJEmSJEmSJEmSJEmSJEmSJEmSJEmSJEmSJEmSJEmSJEmSJEmSJEmSJEmSJEmSJEmSJEmSJEmSJEmSJEmSJEmSJEmSJEmSJEmSJEmSJEmSJEmSJEmSJEmSJEmSJEmSJEmSJEmSJEmSJEmSJEmSJEmSJEmSJEmSJEmSJEmSJEmSJEmSJEmSJEmSJEmSJEmSJEmSJEmSJEmSJEmSJEmSJEmSJEmSJEmSJEmSJEmSJEmSJEmSJEmSJEmSJEmSJEmSJEmSJEmSJEmSJEmSJEmSJEmSJEmSJEmSJEmSJEmSJEmSJEmSJEmSJEmSJEmSJEmSJEmSJEmSJEmSJEmSJEmSJEmSJEmSJEmSJEmSJEmSJEmSJEmSJEmSJEmSJEmSJEmSJEmSJEmSJEmSJEmSJEmSJEmSJEmSJEmSJEmSJEmSJEmSJEmSJEmSJEmSJEmSJEmSJEmSJEmSJEmSJEmSJEmSJEmSJEmSJEmSJEmSJEmSJEmSJEmSJEmSJEmSJEmSJEmSJEmSJEmSJP2v/QF8qk1nQVn/XAAAACV0RVh0ZGF0ZTpjcmVhdGUAMjAxOC0xMi0wNFQxNDo0Nzo1NC0wMzowMHEojWAAAAAldEVYdGRhdGU6bW9kaWZ5ADIwMTgtMTItMDRUMTQ6NDc6NTQtMDM6MDAAdTXcAAAAKHRFWHRzdmc6YmFzZS11cmkAZmlsZTovLy90bXAvbWFnaWNrLVNUaUdGd05oIhwWEAAAAABJRU5ErkJggg==" vertex="1" parent="1">
          <mxGeometry x="240" y="648" width="62" height="62" as="geometry" />
        </mxCell>
        <mxCell id="AwzTjOcbdcqCAVqEX9hw-11" value="" style="shape=image;verticalLabelPosition=bottom;labelBackgroundColor=#ffffff;verticalAlign=top;aspect=fixed;imageAspect=0;image=data:image/jpeg,/9j/4AAQSkZJRgABAQAAAQABAAD/2wBDAAUFBQUFBQUGBgUICAcICAsKCQkKCxEMDQwNDBEaEBMQEBMQGhcbFhUWGxcpIBwcICkvJyUnLzkzMzlHREddXX3/wgALCAFoAWgBASEA/8QAHQABAQEAAgMBAQAAAAAAAAAAAAgJBQYBBAcCA//aAAgBAQAAAACywAAAAAAAAAAAAAAAAAAAAAAAAAAAAAAAAAAAAAAAAAAAAAAAAAAAAAAAAAAAAAAAAAAAAAAAAAAAAAAAAAAAdW9QAAAD3O0AABP2dPgAdx+vfn9fIenADzovQAAAk2adP/6gAAB/LMClqyAAEmzXqMAAABlzSlZAACTZr1GAAAAy5pSsgABJs16jAAAAZc0pWQAAk2a9RgAAAMuaUrIAASbNeowAAAGXNKVkAAJNmvUYAAADLmlKyAAEmzXqMAAABlzSlZAACTZr1GAAAAy5pSsgABJs16jAAAAZc0pWQAAk2a9RgAAAMuaUrIAASbNeowAAAGXNKVkAAJNmvUYAAADLmlKyAAEmzXqMAAABlzSlZAACTZr1GAAAAy5pSsgABJs16jAAAAZc0pWQAAk2adPPIAAAeMw6WrIADiuuviE5AHO8+BwHBAFG/b3YuVAHTsovVADtP0sD5p1YAPa1b7mAECzCAAAABTt9gA43roAAAAHYuSAAAAAAAAAAAAAAAAAAAAAAAAAAAAAAAAAAAAAAAAAAAAAAAAAAAAAAAAAAAAAAAAAAAAAAAAAAAAAAAAAAAP/EACcQAAAEBQUAAwEBAQAAAAAAAAAEBgcBAgUXMQgVNTdAAxgwEhOA/9oACAEBAAEIAP8Avg8uEVS/nnLH7kt4Lkt4Lkt4Lkt4Lkt4Lkt4Lkt4Lkt4Lkt4Lkt4Lkt4Lkt4Lkt4Lkt4Lkt4Lkt4Lkt4Lkt4Lkt4Lkt4Lkt4Lkt4Lkt4Lkt4Lkt4CC5RdT+eQuQ8Oo1YVRKI0qVpkYxjGP5ooyjCta/0WO96ZRvemgb3plC1Mow1Wv8ARHflCMYRgNOSzqapRhkrVfBqy4JKBmZZZ3QRcs8pEl/MBCnEo5hTiUcwpxKOYU4lHMKcSjmFOJRzCnEo5hTiUcwpxKOYU4lHMKcSjmFOJRzCnEo5hTiUcwpxKOYU4lHMKcSjmFOJRzCnEo5hTiUcwpxKOYU4lHMKcSjmYiS/mIeaWWR0FpLJpN4JV+HVlwSUDKdpokS4h6JsRD19prYaTeCVfh1ZcElAynaaJEuIeibEQ9faa2Gk3glX4dWXBJQMp2miRLiHomxEPX2mthpN4JV+HVlwSUDKdpokS4h6JsRD19prYaTeCVfh1ZcElAynaaJEuIeibEQ9faa2Gk3glX4dWXBJQMp2miRLiHomxEPX2mthpN4JV+HVlwSUDKdpokS4h6JsRD19prYaTeCVfh1ZcElAynaaJEuIeibEQ9faa2Gk3glX4dWXBJQMp2miRLiHomxEPX2mthpN4JV+HVlwSUDKdpokS4h6JsRD19prYaTeCVfh1ZcElAynaaJEuIeibEQ9faa2Gk3glX4dWXBJQMp2miRLiHomxEPX2mthpN4JV+HVlwSUDKdpokS4h6JsRD19prYaTeCVfh1ZcElAynaaJEuIeibEQ9faa2Gk3glX4dWXBJQMp2miRLiHomxEPX2mthpN4JV+HVlwSUDMzy/G6CMnnhUSEZZRuBAbgQG4EBuBAbgQG4EBuBAbgQG4EBuBAbgQG4EBuBAbgQG4EBuBAbgQG4EBuBAbgQG4EBuBAbgQEaiQ/mIeaeX5HQWc8mk3glX+1Yr1ET5f4zNYuc3Quc3Qe2dKOXTKGUpNoSotEVFoiotEVFoiotEVFoiotEVFoioo+n2sqKPzwov1QcAfVBwB9UHAH1QcAfVBwB9UHAH1QcAVnT7WU7H4IVq0RUWiKi0RUWiKi0RUWiKi0RUWiKi0JUMnOlG1plcKVa5zdC5zdCjV2hqAt8hqj/k4CSLrlI1qhfKcKGCJsyUM/mk1goUTVN1oP2MdgfYx2B9jHYH2MdgfYx2B9jHYH2MdgKxYKFbVTda9+ZMoYPGyxQs36SLodI0ag/F+eppD7GqPgUpT36ZkRvanMKU3+lWo9IrxSBOq22bwW2bwW2bwW2bwW2bwW2bwW2bwW2bwW2bwW2bwW2bwW2bwW2bwW2bwW2bwW2bwW2bwW2bwW2bwW2bwW2bwW2bwW2bwW2bwW2bwW2bwW2bwW2bwW2bwW2bwW2bwUmi0iglZilK/71//xAA3EAAABQICCAQEBgIDAAAAAAAAAQIDBAUGlNERQFRVk7Kz0gcxc5USMHHTEyEiQVPjM4BDUHT/2gAIAQEACT8A/wB+LupEd9H5LZcmNJWn6kZi+aHjmhfNDxzQvmh45oXzQ8c0L5oeOaF80PHNC+aHjmhfNDxzQvmh45oXzQ8c0L5oeOaF80PHNC+aHjmhfNDxzQvmh45oXzQ8c0L5oeOaF80PHNC+aHjmhfNDxzQvmh45oXzQ8c0L5oeOaF80PHNC+aHjmhdtIkyFGRIZbmNKUr6Fp1J9ceTVZRx1PoPQtDKU/Ev5lOmzKX+AsiahrJDn4p+R+aRZty8f+4WfcfG/uFm3Lx/7hTpsOl/gII2piyW5+KXmfmr5j65EmlSijofX+pa2VJ+JBK1Hb3+kEkZHPLlUIjPl/GkRGNHppyERjR6achEY0emnIRGNHppyERjR6achEY0emnIRGNHppyERjR6achEY0emnIRGNHppyERjR6achEY0emnIRGNHppyERjR6achEY0emnIRGNHppyERjR6achEY0emnIRGNHppyERjR6achEY0emnIRGNHppyERjR6achEZ8v40hJERTz5Ujb2OlqO3v9IbwLkPWt4HyENvY6Wo7e/wBIbwLkPWt4HyENvY6Wo7e/0hvAuQ9a3gfIQ29jpajt7/SG8C5D1reB8hDb2OlqO3v9IbwLkPWt4HyENvY6Wo7e/wBIbwLkPWt4HyENvY6Wo7e/0hvAuQ9a3gfIQ29jpajt7/SG8C5D1reB8hDb2OlqO3v9IbwLkPWt4HyENvY6Wo7e/wBIbwLkPWt4HyENvY6Wo7e/0hvAuQ9a3gfIQ29jpajt7/SG8C5D1reB8hDb2OlqO3v9IbwLkPWt4HyENvY6Wo7e/wBIbwLkPWt4HyENvY6Wo7e/0hvAuQ9a3gfIQ29jpajt7/SCySkp5cpidH4qMxPj8ZGYnx+MjMT4/GRmJ8fjIzE+PxkZifH4yMxPj8ZGYnx+MjMT4/GRmJ8fjIzE+PxkZifH4yMxPj8ZGYnx+MjMT4/GRmJ8fjIzE+PxkZifH4yMxPj8ZGYnx+MjMT4/GRmJ8fjIzE+PxkZidH4qMwslJOefKQ29jpfOq0WBHW4TaXZLqWkmsyMySRq/cX5Qsc0L8oWOaHiLazC4cpx1ZyqglBGlaCT+n4CUPFWx/cz7B4q2P7mfYPFWx/cz7B4q2P7mfYPFWx/cz7B4q2P7mfYPFWx/cz7B4q2P7mfYPFWx/cz7BfFq1A2SSbpRZi3jR9SSgViicZ77YrFE4z32xWKJxnvtisUTjPfbFYonGe+2KxROM99sViicZ77Yvi1aebxKNopUxbJr+hKQPFWx/cz7B4q2P7mfYPFWx/cz7B4q2P7mfYPFWx/cz7B4q2P7mfYPFWx/cz7B4q2P7mfYPFWx/cz7B4jWs+uZKadQcWopURJQg0/q+Mki/KFjmhflCxzQq0Wewh38NbsZ1LqCX5mkzT+/y/hJchrTGX/G+j821hpTb8d1bTravNC0HoUk/ofzKgqLKNpbSj+FK0rQrzSpKhX4+Bj9gr8fAx+wV+PgY/YK/HwMfsFfj4GP2Cvx8DH7BX4+Bj9gqCpUomkNJP4UoShCfJKUp+Y0px+Q6hpptPmtaz0JSX1MEk1x2tMlZf8AI+v83F/Ma0Qqz/n/APWjvT/0DWmHRv8ABp8ly3OxPzaXFmxiWThNSWkuo+JPkrQr9yFjUPAtCxqHgWhY1DwLQsah4FoWNQ8C0LGoeBaFjUPAtCxqHgWhY1DwLQsah4FoWNQ8C0LGoeBaFjUPAtCxqHgWhY1DwLQsah4FoWNQ8C0LGoeBaFjUPAtCxqHgWhY1DwLQsah4FoWNQ8C0LGoeBaFjUPAtCxqHgWhY1DwLQsah4FoWNQ8C0LGoeBaFjUPAtCmRoMY1ms2ozSWkGpXmrQkvP/fb/9k=;" vertex="1" parent="1">
          <mxGeometry x="240" y="500" width="80" height="80" as="geometry" />
        </mxCell>
        <mxCell id="AwzTjOcbdcqCAVqEX9hw-12" value="" style="shape=image;verticalLabelPosition=bottom;labelBackgroundColor=#ffffff;verticalAlign=top;aspect=fixed;imageAspect=0;image=data:image/jpeg,/9j/4AAQSkZJRgABAQAAAQABAAD/2wBDAAUFBQUFBQUGBgUICAcICAsKCQkKCxEMDQwNDBEaEBMQEBMQGhcbFhUWGxcpIBwcICkvJyUnLzkzMzlHREddXX3/wgALCAFoAWgBASEA/8QAHQABAQEAAgMBAQAAAAAAAAAAAAgJBQYBBAcCA//aAAgBAQAAAACywAAAAAAAAAAAAAAAAAAAAAAAAAAAAAAAAAAAAAAAAAAAAAAAAAAAAAAAAAAAAAAAAAAAAAAAAAAAAAAAAAAAdW9QAAAD3O0AABP2dPgAdx+vfn9fIenADzovQAAAk2adP/6gAAB/LMClqyAAEmzXqMAAABlzSlZAACTZr1GAAAAy5pSsgABJs16jAAAAZc0pWQAAk2a9RgAAAMuaUrIAASbNeowAAAGXNKVkAAJNmvUYAAADLmlKyAAEmzXqMAAABlzSlZAACTZr1GAAAAy5pSsgABJs16jAAAAZc0pWQAAk2a9RgAAAMuaUrIAASbNeowAAAGXNKVkAAJNmvUYAAADLmlKyAAEmzXqMAAABlzSlZAACTZr1GAAAAy5pSsgABJs16jAAAAZc0pWQAAk2adPPIAAAeMw6WrIADiuuviE5AHO8+BwHBAFG/b3YuVAHTsovVADtP0sD5p1YAPa1b7mAECzCAAAABTt9gA43roAAAAHYuSAAAAAAAAAAAAAAAAAAAAAAAAAAAAAAAAAAAAAAAAAAAAAAAAAAAAAAAAAAAAAAAAAAAAAAAAAAAAAAAAAAAP/EACcQAAAEBQUAAwEBAQAAAAAAAAAEBgcBAgUXMQgVNTdAAxgwEhOA/9oACAEBAAEIAP8Avg8uEVS/nnLH7kt4Lkt4Lkt4Lkt4Lkt4Lkt4Lkt4Lkt4Lkt4Lkt4Lkt4Lkt4Lkt4Lkt4Lkt4Lkt4Lkt4Lkt4Lkt4Lkt4Lkt4Lkt4Lkt4Lkt4Lkt4CC5RdT+eQuQ8Oo1YVRKI0qVpkYxjGP5ooyjCta/0WO96ZRvemgb3plC1Mow1Wv8ARHflCMYRgNOSzqapRhkrVfBqy4JKBmZZZ3QRcs8pEl/MBCnEo5hTiUcwpxKOYU4lHMKcSjmFOJRzCnEo5hTiUcwpxKOYU4lHMKcSjmFOJRzCnEo5hTiUcwpxKOYU4lHMKcSjmFOJRzCnEo5hTiUcwpxKOYU4lHMKcSjmYiS/mIeaWWR0FpLJpN4JV+HVlwSUDKdpokS4h6JsRD19prYaTeCVfh1ZcElAynaaJEuIeibEQ9faa2Gk3glX4dWXBJQMp2miRLiHomxEPX2mthpN4JV+HVlwSUDKdpokS4h6JsRD19prYaTeCVfh1ZcElAynaaJEuIeibEQ9faa2Gk3glX4dWXBJQMp2miRLiHomxEPX2mthpN4JV+HVlwSUDKdpokS4h6JsRD19prYaTeCVfh1ZcElAynaaJEuIeibEQ9faa2Gk3glX4dWXBJQMp2miRLiHomxEPX2mthpN4JV+HVlwSUDKdpokS4h6JsRD19prYaTeCVfh1ZcElAynaaJEuIeibEQ9faa2Gk3glX4dWXBJQMp2miRLiHomxEPX2mthpN4JV+HVlwSUDKdpokS4h6JsRD19prYaTeCVfh1ZcElAynaaJEuIeibEQ9faa2Gk3glX4dWXBJQMp2miRLiHomxEPX2mthpN4JV+HVlwSUDMzy/G6CMnnhUSEZZRuBAbgQG4EBuBAbgQG4EBuBAbgQG4EBuBAbgQG4EBuBAbgQG4EBuBAbgQG4EBuBAbgQG4EBuBAbgQEaiQ/mIeaeX5HQWc8mk3glX+1Yr1ET5f4zNYuc3Quc3Qe2dKOXTKGUpNoSotEVFoiotEVFoiotEVFoiotEVFoioo+n2sqKPzwov1QcAfVBwB9UHAH1QcAfVBwB9UHAH1QcAVnT7WU7H4IVq0RUWiKi0RUWiKi0RUWiKi0RUWiKi0JUMnOlG1plcKVa5zdC5zdCjV2hqAt8hqj/k4CSLrlI1qhfKcKGCJsyUM/mk1goUTVN1oP2MdgfYx2B9jHYH2MdgfYx2B9jHYH2MdgKxYKFbVTda9+ZMoYPGyxQs36SLodI0ag/F+eppD7GqPgUpT36ZkRvanMKU3+lWo9IrxSBOq22bwW2bwW2bwW2bwW2bwW2bwW2bwW2bwW2bwW2bwW2bwW2bwW2bwW2bwW2bwW2bwW2bwW2bwW2bwW2bwW2bwW2bwW2bwW2bwW2bwW2bwW2bwW2bwW2bwW2bwW2bwUmi0iglZilK/71//xAA3EAAABQICCAQEBgIDAAAAAAAAAQIDBAUGlNERQFRVk7Kz0gcxc5USMHHTEyEiQVPjM4BDUHT/2gAIAQEACT8A/wB+LupEd9H5LZcmNJWn6kZi+aHjmhfNDxzQvmh45oXzQ8c0L5oeOaF80PHNC+aHjmhfNDxzQvmh45oXzQ8c0L5oeOaF80PHNC+aHjmhfNDxzQvmh45oXzQ8c0L5oeOaF80PHNC+aHjmhfNDxzQvmh45oXzQ8c0L5oeOaF80PHNC+aHjmhdtIkyFGRIZbmNKUr6Fp1J9ceTVZRx1PoPQtDKU/Ev5lOmzKX+AsiahrJDn4p+R+aRZty8f+4WfcfG/uFm3Lx/7hTpsOl/gII2piyW5+KXmfmr5j65EmlSijofX+pa2VJ+JBK1Hb3+kEkZHPLlUIjPl/GkRGNHppyERjR6achEY0emnIRGNHppyERjR6achEY0emnIRGNHppyERjR6achEY0emnIRGNHppyERjR6achEY0emnIRGNHppyERjR6achEY0emnIRGNHppyERjR6achEY0emnIRGNHppyERjR6achEY0emnIRGNHppyERjR6achEZ8v40hJERTz5Ujb2OlqO3v9IbwLkPWt4HyENvY6Wo7e/wBIbwLkPWt4HyENvY6Wo7e/0hvAuQ9a3gfIQ29jpajt7/SG8C5D1reB8hDb2OlqO3v9IbwLkPWt4HyENvY6Wo7e/wBIbwLkPWt4HyENvY6Wo7e/0hvAuQ9a3gfIQ29jpajt7/SG8C5D1reB8hDb2OlqO3v9IbwLkPWt4HyENvY6Wo7e/wBIbwLkPWt4HyENvY6Wo7e/0hvAuQ9a3gfIQ29jpajt7/SG8C5D1reB8hDb2OlqO3v9IbwLkPWt4HyENvY6Wo7e/wBIbwLkPWt4HyENvY6Wo7e/0hvAuQ9a3gfIQ29jpajt7/SCySkp5cpidH4qMxPj8ZGYnx+MjMT4/GRmJ8fjIzE+PxkZifH4yMxPj8ZGYnx+MjMT4/GRmJ8fjIzE+PxkZifH4yMxPj8ZGYnx+MjMT4/GRmJ8fjIzE+PxkZifH4yMxPj8ZGYnx+MjMT4/GRmJ8fjIzE+PxkZidH4qMwslJOefKQ29jpfOq0WBHW4TaXZLqWkmsyMySRq/cX5Qsc0L8oWOaHiLazC4cpx1ZyqglBGlaCT+n4CUPFWx/cz7B4q2P7mfYPFWx/cz7B4q2P7mfYPFWx/cz7B4q2P7mfYPFWx/cz7B4q2P7mfYPFWx/cz7BfFq1A2SSbpRZi3jR9SSgViicZ77YrFE4z32xWKJxnvtisUTjPfbFYonGe+2KxROM99sViicZ77Yvi1aebxKNopUxbJr+hKQPFWx/cz7B4q2P7mfYPFWx/cz7B4q2P7mfYPFWx/cz7B4q2P7mfYPFWx/cz7B4q2P7mfYPFWx/cz7B4jWs+uZKadQcWopURJQg0/q+Mki/KFjmhflCxzQq0Wewh38NbsZ1LqCX5mkzT+/y/hJchrTGX/G+j821hpTb8d1bTravNC0HoUk/ofzKgqLKNpbSj+FK0rQrzSpKhX4+Bj9gr8fAx+wV+PgY/YK/HwMfsFfj4GP2Cvx8DH7BX4+Bj9gqCpUomkNJP4UoShCfJKUp+Y0px+Q6hpptPmtaz0JSX1MEk1x2tMlZf8AI+v83F/Ma0Qqz/n/APWjvT/0DWmHRv8ABp8ly3OxPzaXFmxiWThNSWkuo+JPkrQr9yFjUPAtCxqHgWhY1DwLQsah4FoWNQ8C0LGoeBaFjUPAtCxqHgWhY1DwLQsah4FoWNQ8C0LGoeBaFjUPAtCxqHgWhY1DwLQsah4FoWNQ8C0LGoeBaFjUPAtCxqHgWhY1DwLQsah4FoWNQ8C0LGoeBaFjUPAtCxqHgWhY1DwLQsah4FoWNQ8C0LGoeBaFjUPAtCmRoMY1ms2ozSWkGpXmrQkvP/fb/9k=;" vertex="1" parent="1">
          <mxGeometry x="403" y="460" width="80" height="80" as="geometry" />
        </mxCell>
        <mxCell id="AwzTjOcbdcqCAVqEX9hw-13" value="" style="shape=image;verticalLabelPosition=bottom;labelBackgroundColor=#ffffff;verticalAlign=top;aspect=fixed;imageAspect=0;image=data:image/png,iVBORw0KGgoAAAANSUhEUgAAAWMAAAIACAMAAABglP26AAACIlBMVEUAAAAAAAA/AD8zMzMqKiokJCQfHx8cHBwuFxcqFSonJyckJCQiIiIfHx8eHh4cHBwoGhomGSYkJCQiIiIeHh4lHBwkGyQiIiIfHx8mHh4lHh4kHR0jHCMiGyIhISEgICAfHx8lHx8jHR0hHCEhISEjHh4iHSIhISElICAkHx8jHx8jHh4kICAiHh4iHh4hHiEhHSEkICAhHiEiHx8hHh4kHiEjHSAjICAiHx8iHx8hHx8hHh4kHiEjHiAjHSAiICAiHx8iHx8hHx8kHh4jHiEjHiAjHiAiICAiHx8kHx8jHiAiHiAiHSAiHx8jHx8jHx8jHx8iHiAiHiAiHiAjHx8jHx8jHx8iHiAiHiAiHiAjHx8jHx8jHx8iHSAjHx8iHx8iHyAiHiAjHiAjHiAhHx8iHx8iHyAjHiAjHh4hHx8iHx8iHx8jHSAjHiAjHiAhHh4iHx8iHx8jHyAjHSAjHSAhHiAiHx8iHx8jHx8jHyAjHSAjHSAiHh4jHyAjHyAhHSAhHSAiHh4jHx8jHx8jHyAhHyAhHSAiHh4jHh4jHx8jHx8hHSAiHSAjHR4jHh4jHx8hHyAiHSAjHSAjHR4jHh4jHx8hHx8hHyAhHyAiHyAjHSAjHR4jHR4jHyAjHSAjHR4jHR4hHh4hHyAjHyAjHyAjHSAjHR4hHR4hHR4hHx8iHyAjHyAjHyAjHSAhHR4hHR4hHR4hHx8jHyAjHyAjHyAjHyAeVkISAAAAtXRSTlMAAgQFBgcICQsMDQ4PEBESExQVFhkbHB4gISIjJCUmJygpKy0uMjQ2Nzg5Oj9CQ0RFRkxRU1VWV1hZWltcXV5fYGFiY2RlZmdwcXR2d3h5ent8fn+AgYKEhYaIiYqMkZOUlZaXmZucn6ChoqOlpqeoqausra6vsbKztLW2uby9vr/AwsPExcbIycrLzs/Q0dPV1tfY2drb3N3e3+Dh5ufo6ers7e7v8PHy8/T19vf4+fr7/P3+hKWwVQAABkJJREFUeNrt3QdzlEUcwOGVEkREQCEqiV1EY0fsDQgKVhQFxB4FFBEFEQERgYCFJkWImGBDShANkNz7/RwpA4RLcnv37kzOeX6fYOeZm7vd/753F8IFXfP0++vaDp7IFFfXX/s2zJ92Q+iza19rpVVRrW9c16twwypGObS6oUfh2mV4cmrZlcWJG4+wya0jU4sID1kEJtcW1XQnHr6BSs59c1k34m1Mcm/recg1zUQStHHwOcYf8UjSwrPEU2gkavIZ4jE2balqrz1tvIRFspacIh5PImHjTxp/ASJhK/8jri+ASFihPoQwi0PS5oQQWjAkbU8IYykkrj40QkhcY2iCkLj3whoIiVsXXJGm7udwAELi2sNxCInrDAySx5gxYzFmzFiMGYsxY8ZizJixGDMWY8aMxZgxYzFmLMaMGYsxYzFmzFiMGTMWY8ZizJixGDNm3HObPlOxNudo/FhQsSYxZsyYMWPGjBkzZizGjBkzZsyYMWPGjMWYMWPGjBkzZsyYMWPGjBkzZsxYjBkzZsyYMWPGjBmLMWPGjBkzZsyYMWPGjBkzZsyYMWPGjBkzZsyYMWPGjMWYMWPGjBkzZsyYsRgzZsyYMWPGjBkzZsyYMWPGjBmLMWPGjBkzZsyYMWMxZsyYMWPGjBkzZoyTMWPGjBkzZsyYMWPGjBkzZsyYsRgzZsyYMWPGjBkzFmPGjBkzZsyYMWPGjBkzZsyYMWPGjBkzZsyYMWPGjBmLMWPGjBkzZsyYMWMxZsyYMWPGjBkzZsyYMWPGjBkzFmPGjBkzZsyYMWPGYsyYMWPGjBkzZsyYMWPGjBkzZsyYMWPGjBkzZsyYMWMxZsyYMWPGjBkzZizGjBkzZsyYMWPGjBkzZsyYMWPGYsyYMWPGjBkzZsxYjBkzZsyYMWPGjBnjZMyYMWPGjBkzZsyYMWPGjBkzZizGjBkzZsyYMWPGjMWYMWPGjBkzZsyYMWPGjBkzZsyYMWPGjBkzZsyYMWPGYsyYMWPGjBkzZsxYjBkzZsyYMWPGjBkzZsyYMWPGjMWYMWPGjBkzZsyYsRgzZsyYMWPGjBkzZsyYMWPGjBkzZsyYMWPGjBkzZsxYjBkzZsyYMWPGjBmLMWPGjBkzZsyYMWPGjBkzZsyYsRgzZsyYMWPGjBkzFmPGjBkzZsyYMWPGOBkzZsyYMWPGjBkzZsyYMWPGjBmLcRUaHz2kYv2do7EqiTFjxmLMOKpjmxbMmHL/fQ9Om/3JrgLj/Pvj3XtqztmWjnxoaQfjXNvyyKALdv8jnvuFcW7tnVj8jDXk+XbGudT1Zk2PJ9naLxnn8UZ8Z6/zguknGFfazqv6GMrcfZhxZW0b1efk65YDjCtp9+UljBdvO8q4/A7UlTTDnci4/CaUOCh/i3G5zSv1MmLQdsbl9dulJd/43M64vKZFXKt9yric9g2MML6+wLiMno26H17BOL5jo6KMJzCOb2Xccw4D/2Qc3VORD5MsZhxdXaRxI+PY9sc+FHUj49jWxxoPOM44sg+in+7byziy16ONv2Uc2cvRxl8xjuzFaOPVjCN7Ndp4LePI3o423so4smXRxvsZR7Y9lniEM0hsJ4ZEGt/FOLo7Io1fYRzd3P/REaS/Gu+OIx5TYBxfQ5TxCxnj+D6Omrq1MS5nZzE2wviJjHE5LS6duKaVcert28yMcXm1XFwi8c0djMttYWnEQ3dmjMtueinEFy3PGJdf18MlGDdljCup8/E+X8VVQJyFrv68usJLfbwXf14FxJ3hSP9e4PKRvRDftKMKiLP20NbPV/jrAz0ePWZWxxfT94bmfr/G5qKnkQFPtmbV0dowrwpW+d2kS7p/VXpGW1YtNYWpVbHOf1Y/0zD0tO8V987+vpp+JWRyuLZ6Fvv7D81rN+44nFVZY0P4KVPKfgwhzMWQtNkhhPoCh5QDgZOXDatApDxEnfycvhVEwsad2gwtJZGsM3e/te0sEnVo9JlT02QYiXr07NF0IY0kzT93hLWRR4LWn/f7isO3EMm9zcPOH2QN38Ak59YN6z6PHfwhlVxbMKjYHzEcBpPfpq2Hv/uoXcImr6PH6B4vIcevMCCqvK7l43q9Ta+bswdSRe2adXXfT97UTWn6uuVgR6fi6jjYsuadSUWA/wW4cODVUgDi5AAAAABJRU5ErkJggg==;" vertex="1" parent="1">
          <mxGeometry x="570" y="515" width="34.67" height="50" as="geometry" />
        </mxCell>
        <mxCell id="AwzTjOcbdcqCAVqEX9hw-14" value="" style="shape=image;verticalLabelPosition=bottom;labelBackgroundColor=#ffffff;verticalAlign=top;aspect=fixed;imageAspect=0;image=data:image/png,iVBORw0KGgoAAAANSUhEUgAAAgAAAAIACAMAAADDpiTIAAAAA3NCSVQICAjb4U/gAAAACXBIWXMAAEwQAABMEAFZWm3HAAAAGXRFWHRTb2Z0d2FyZQB3d3cuaW5rc2NhcGUub3Jnm+48GgAAAeNQTFRF////AAAAAAAAAAAAAAAAAAAAAAAAAAAAAAAAAAAAAAAAAAAAAAAAAAAAAAAAAAAAAAAAAAAAAAAAAAAAAAAAAAAAAAAAAAAAAAAAAAAAAAAAAAAAAAAAAAAAAAAAAAAAAAAAAAAAAAAAAAAAAAAAAAAAAAAAAAAAAAAAAAAAAAAAAAAAAAAAAAAAAAAAAAAAAAAAAAAAAAAAAAAAAAAAAAAAAAAAAAAAAAAAAAAAAAAAAAAAAAAAAAAAAAAAAAAAAAAAAAAAAAAAAAAAAAAAAAAAAAAAAAAAAAAAAAAAAAAAAAAAAAAAAAAAAAAAAAAAAAAAAAAAAAAAAAAAAAAAAAAAAAAAAAAAAAAAAAAAAAAAAAAAAAAAAAAAAAAAAAAAAAAAAAAAAAAAAAAAAAAAAAAAAAAAAAAAAAAAAAAAAAAAAAAAAAAAAAAAAAAAAAAAAAAAAAAAAAAAAAAAAAAAAAAAAAAAAAAAAAAAAAAAAAAAAAAAAAAAAAAAAAAAAAAAAAAAAAAAAAAAAAAAAAAAAAAAAAAAAAAAAAAAAAAAAAAAAAAAAAAAAAAAAAAAAAAAAAAAAAAAAAAAAAAAAAAAAAAAAAAAAAAAAAAAAAAAAAAAAAAAAAAAAAAAAAAAAAAAAAAAldcqRwAAAKB0Uk5TAAECAwQGBwgKCw0OERQZHR8gISIjJSYnKiwtLjAyMzQ3ODk6Ozw9P0BBQkRKTE1PUFFSVlhZXmBjZGZnaWprcHJ1d3h5enx9fn+AgoOEhYaHiIqMj5CRkpOUlZaXmJmcnZ+goaOmqausrbCxs7a3uLq/wMHDxMjJy8zOz9DR0tPU1dfY2tzg4eLj5Obn6err7e7v8PHy8/X2+Pn6+/z9/lOF3agAAAl9SURBVHja7dz/f1V1HQfwswtuQEIEbEKSA7WwG2OWDamuuESp+CoSq1TwCyhJk1BsETEFUkI2EWktWBd2/tSatG/3wd12r/ZBz/v5+vGc88P78X497879uiz76mXV45U9r54c/HQ8L0jGr557+5Xdle6Vmcyb7+x+Py9szu1ar+E5Uir/5u95wXOpr1zS9N3TdT4PkfNdur5LNpzOw+T0Bn3XpP14HirH23U+8+a/t5oHS3WvpwJTWdafB0z/Ms3fyZoLechcWKP7iZSv5UFzraz9LKtU87CpVvTfM8dNsvd731i79bcjRSbQE73/zhv1VjO05X+XfPNUgQHc6Izd/4or9TYzcP/0Vb8qsIArKyL33zZQ95HRMeOylndnv5X6s4fW/+RMUQQMtAUGcKzuWnpnf0A8OuPUi60ThxbtLoqAY3H731Z3KWP3zb7ytelTf5p8B60w7x5ti9r/kqG6OzlTc+n26VPfnTy2rigAhpYEBbCz/k5erv2ocOrMraltlUaLImBnzP6Xz/ECf1fNtd+aOnN9+uClogAYWR4SQN8cK/lDzbU/nD61avLY/cV5LdgXsf/VY3PdFmsu3j99asfksZ82sOGxD//WYD78d0IAY6sDAjg650q+Pevalr9Mn7n54J1jKxf+FnG1977G52vdcTudgKPx+m+d+yncnxfNvPjpmaf+sXXi0JZPFr7e55sb8dfpAIy2hgOweZ6V7Jhx7QM1HxgM95/4uJH1rmvyc4qEN4HN4QAcme/P9i8XT176/S/6XfGO5kZ8MCGAI9H6bxmedydnOls+f7V46Av/Qujnzc34i4QAhluCAdi4kK38872XTlz+Erb7rx81M+KPb6Z8JbgxGIADaV9oXzr1xwZzKvFvlA4EAzCYy6wMBgMwovKat4Nj9b9U47VZGgpAu8JrE+u3YpsUXptNoQD0KLw2sb4g3qvw2vSGAnBQ4bU5GArAYYXX5jAAAAAAAAAAAAAAAAAAAAAAAAAAAAAAAAAAAAAAAAAAAAAAAAAAAAAAAAAAAAAAAAAAAAAAAADA1xhAwP+Y3QYAAAAAAAAAAAAAAAAAAAAAAAAAAAAAAAAAAAAAAAAAAAAAAAAAAAAAAAAAAAAAAAAAAAAAAAAAAAAAAAAAAAAAAAAAAAAAAAAAAAAAAAAAAAAAAAAAAAAAAAAAAAAAAAAAAAAAAAAAAAAAAAAAAAAAAAAAAAAAAAAAAAAAAAAAAAAAAAAAAAAAAAAAAAAAAAAAAAAAAAAAAAAAAAAAAAAAAAAAAAAAAAAAAAAAAAAAAAAAAAAAAAAAAAAAAAAAAAAAAAAAAAAAAAAAAAAAAAAAAAAAAAAAAAAAAAAAAAAAAAAAAAAAAAAAAAAAAAAAAAAAAAAAAAAAAAAAAAAAAAAAAAAAAAAAAAAAAAAAAAAAAAAAAAAAAAAAAAAAAAAAAAAAAAAAAAAAAAAAAAAAAAAAAAAAAAAAAAAAAAAAAAAAAAAAAAAAAAAAAAAAAAAAAAAAAAAAAAAAAAAAAAAAAAAAAAAAAAAAAAAAAAAAAAAAAAAAAAAAAAAAAAAAAAAAAAAAAAAAAAAAAAAAAAAAAAAAAAAAAAAAAAAAAAAAAAAAAAAAAAAAAAAAAAAAAAAAAAAAAAAAAAAAAAAAAAAAAAAAAAAAAAAAAAAAAAAAAAAAAAAAAAAAAAAAAAAAAAAAAAAAAAAAAAAAAAAAAAAAAAAAAAAAAAAAAAAAAAAAAAAAAAAAAAAAAAAAAAAAAAAAAAAAAAAAAAAAAAAAAAAAAAAAAAAAAAAAAAAAAAAAAAAAAAAAAAAAAAAAAAAAAAAAAAAAAAAAAAAAAAAAAAAAAAAAAAAAAAAAAAAAAAAAAAAAAAAAAAAAAAAAAAAAAAAAAAAAAAAAAAAAAAAAAAAAAAAAAAAAAAAAAAAAAAAAAAAAAAAAAAAAAAAAAAAAAAAAAAAAAAAAAAAAAAAAAAAAAAAAAAAAAAAAAAAAAAAAAAAAAAAAAAAAAAAAAAAAAAAAAAAAAAAAAAAAAAAAAAAAAAAAAAAAAAAAAAAAAAAAAAAAAAAAAAAAAAAAAAAAAAAAAAAAAAAAAAAAAAAAAAAAAAAAAAAAAAAAAAAAAAAAAAAAAAAAAAAAAAAAAAAAAAAAAAAAAAAAAAAAAAAAAAAAAAAAAAAAAAAAAAAAAAAAAAAAAAAAAAAAAAAAAAAAAAAAAAAAAAAAAAAAAAAAAAAAAAAAAAAAAAAAAAAAAAAAAAAAAAAAAAAAAAAAAAAAAAAAAAAAAAAAAAAAAAAAAAAAAAAAAAAAAAAAAAAAAAAAAAAAAAAAAAAAAAAAAAAAAAAAAAAAAAAAAAAAAAAAAAD3GoAAAAAAAAAAAAAAAAAAAAAAAAAAAAAAAAAAAPCl5frFd07UzTsXrwNQZABnn1s732RrnzsLQEEBfNC1sOG6PgCggADGny0tdLrSs+MAFA3AaHcj83WPAlAsANVyYwOWqwAUCkCl0QkrABQJwFuNj/gWAMUBUO1ofMSOKgCFAXC4qDMCsLA82syMjwJQFABXS83MWLoKwP8tB5Pu9o3mhnwj6ZAHQwHoTbrbfc0NuS/pkL2hAPQk3e1TzQ35VNIhe0IB2JR0t080N+QTSYfcFApAe9Ldbm9uyO1Jh2wPBWBp0t3ub27I/UmHXBoKQDaScrdvNjfjmylnHInVfzaYcrmfLW5mxMWfpZxxMBiAA0n/vD7WzIiPJR3xQDAAG5Nu9/VmRnw96YgbgwFoGU653dvrGp9w3e2UEw63BAOQHUn6+DrZ+IAnkw54JFr/2ea0n7U90+h8z6Sdb3M4AK1pv3Z5e0tj421JegPIR1vDAciOpn2I3XyykeGevJl2uqPx+s9Wj6XdcX5owf+Lru1Q4tHGVgcEkPUl3nJ+eeuCvhhS2no59WR9EfvPlo+k3nP+0QuPzGOg9MgLHyUfa2R5SADZzvwe5NbQ2Xfr5q/Dt+7FTDtj9p8tGcrlvxlaEhRAtk35E9mWhc0x7ef5sbj9Z20D+h9oCwwgW3Elev9XVmSh03kjdv83OrPg6YkNoCcLn0o1bv3Viv6zrHwtav/XytqfyJoLMfu/sEb3d7KsP2L//cs0P/URzL5wTwSqe0t6n5GO38fq/3i7zmvy8Htx6j+9Qd93SffFGPWf79L13bPoB7/7uOjtX+oru/nPlYf2vF/c9s/tWq/h+bPq8cqeV08OfjpelN7Hr557+5Xdle6VX8Fl/wfpSYCMnXpipgAAAABJRU5ErkJggg==;" vertex="1" parent="1">
          <mxGeometry x="590" y="635" width="42" height="42" as="geometry" />
        </mxCell>
        <mxCell id="AwzTjOcbdcqCAVqEX9hw-15" value="" style="shape=image;verticalLabelPosition=bottom;labelBackgroundColor=#ffffff;verticalAlign=top;aspect=fixed;imageAspect=0;image=data:image/png,iVBORw0KGgoAAAANSUhEUgAAAgAAAAIACAMAAADDpiTIAAACxFBMVEUAAAAAAAAAAAAAAAAAAAAAAAAAAAAAAAAAAAAAAAAAAAAAAAAAAAAAAAAAAAAAAAAAAAAAAAAAAAAAAAAAAAAAAAAAAAAAAAAAAAAAAAAAAAAAAAAAAAAAAAAAAAAAAAAAAAAAAAAAAAAAAAAAAAAAAAAAAAAAAAAAAAAAAAAAAAAAAAAAAAAAAAAAAAAAAAAAAAAAAAAAAAAAAAAAAAAAAAAAAAAAAAAAAAAAAAAAAAAAAAAAAAAAAAAAAAAAAAAAAAAAAAAAAAAAAAAAAAAAAAAAAAAAAAAAAAAAAAAAAAAAAAAAAAAAAAAAAAAAAAAAAAAAAAAAAAAAAAAAAAAAAAAAAAAAAAAAAAAAAAAAAAAAAAAAAAAAAAAAAAAAAAAAAAAAAAAAAAAAAAAAAAAAAAAAAAAAAAAAAAAAAAAAAAAAAAAAAAAAAAAAAAAAAAAAAAAAAAAAAAAAAAAAAAAAAAAAAAAAAAAAAAAAAAAAAAAAAAAAAAAAAAAAAAAAAAAAAAAAAAAAAAAAAAAAAAAAAAAAAAAAAAAAAAAAAAAAAAAAAAAAAAAAAAAAAAAAAAAAAAAAAAAAAAAAAAAAAAAAAAAAAAAAAAAAAAAAAAAAAAAAAAAAAAAAAAAAAAAAAAAAAAAAAAAAAAAAAAAAAAAAAAAAAAAAAAAAAAAAAAAAAAAAAAAAAAAAAAAAAAAAAAAAAAAAAAAAAAAAAAAAAAAAAAAAAAAAAAAAAAAAAAAAAAAAAAAAAAAAAAAAAAAAAAAAAAAAAAAAAAAAAAAAAAAAAAAAAAAAAAAAAAAAAAAAAAAAAAAAAAAAAAAAAAAAAAAAAAAAAAAAAAAAAAAAAAAAAAAAAAAAAAAAAAAAAAAAAAAAAAAAAAAAAAAAAAAAAAAAAAAAAAAAAAAAAAAAAAAAAAAAAAAAAAAAAAAAAAAAAAAAAADMyaeDAAAA63RSTlMAAQIDBAUGBwgJCgsMDQ4QERITFBUXGBkaGxwdHh8gISIjJCUmJygpKistLi8wMTIzNDU2OTs8PT4/QEFCQ0RFRkdISUtMTVBRUlNUVldYWVtcXV9gYWRlZ2hpamtsbW5vcHFyc3R1dnd4eXp7fH1+f4CBgoOEhYeIiYqLjI2Oj5GSk5SVlpeYmZqbnZ6foKGio6Slpqeoqaqsra6vsLGys7S1tre4ubq7vL2+v8DBwsPExcbHyMnKy8zNzs/Q0dLT1NXW19jZ2tvc3d7f4OHi4+Tl5ufo6evs7e7v8PHy8/T19vf4+fr7/P3+0m2PSwAAC7VJREFUeNrt3fufVGUdwPEzuwuLiHgBkU1RzAuolWmpIChq2cXUMiE1xQtppYhiJqQSJaYhKgppBqFJqEmC5gVEyQxYQHBNxQsoUCi3hfknQigRPHvOwd2dnfPM+/PjzGvmzDzfN/sazp55NopasYVFtUDzorwGAAACQAAIAAEgAASAABAAAkAACAABIAAEgAAQAAJAYQO4UgmFD2B8pIQmAgAAAAAAAAAAAAAAAAAAAAAAAAAAAAAAAAAAAAAAAAAAAAAAAAAAAAAAAAAAAAAAAAAAAAAAAAAAAAAAAAAAAAAAAAAAAAAAAAAAAAAAAAAAAAAAAAAAAAAAAAAAAAAAAAAAAAAAAAAAAAAAAAAAAAAAAAAAAAAAAAAAAAAAAAAAAAAAAAAAAAAAAAAAAAAAAAAAAAAAAAAAAAAAAAAAAAAAAAAAAAAAAAAAAAAAAAAAAAAAAAAAAAAAAAAAAAgAASAABIAAEAACQAAIAAAAAAAAAAAAAAAAAAAAAAAAAAAAAAAAAAAAAAAAAAAAAAAAAAAAAAAAAAAAAAAAAAAAAAAAAAAAAAAAAAAAAAAAAAAAAAAAAAAAAAAAAAAAAAAAAAAAAAAgtb36XPjzMfdMbE6rY97N0olKqCFmyVY16xknjPvF4FO67OLwa/qPWlBUQC0cc1JN5vHXDX/TioXXWyPqso3/9o0WK8w2jDsgdfy7jVhrocJt3Q0dk+ffd7FFCrtX+yaMv/oGCxR8m0c0+Wmw63TLUwlN3yd+/j38+K+U/xMeFDf/3v7vVzEtO/zT8z/4HetSOb19yM7z3+9Vq1JJNXTbcf4dXrAmldXsDjsAGGtFKq2xn5z/96xH5XXm9vnv+77lqLze2/4x4H6rUYlN/P/8+1iLyuy4bfMv/M1SVGZPF7YCONVKVGr9twKY1uT9axoWzGt+9ctWfbj2g/dfb4nnqpAWvPH+B2s/XLWsvgWea/7SNU0O+OGP5n/g5tj7Nk06s67gKt0QKtSdNXlT7JA399hy989i75rT28KF1BHxp3qHbrlrbtwdMzpas7Dq+GTcnOdGUfe421d0tWKh1W1l3KS7xZ8F/qn1Cq9hcZM+K7ox3oWCqy5u0jdHj8Tc+rLVCrH6mFFPjRYlnSRWSD0QM+oF0bsxt95osUJsdNzH/WhdzK3DLFaIXRcz6rVR3CeDKy1WiF0TM+pGACr7/4EAAAAAAAAAAAAAAAAAAAAAAAAAAAJAAAgAASAABIAAEAACQACoTSt0P3ngZZdfdOaxuwNQebX7xt0f7+nbOOe6wwGoqPa46q2dZjXztAIAFfOzf1Dc13ie6AVAZdS1ic181l9SAKACOuJfTe71M6EWgOA7Omk712kdAAi8Q1ckbvg2uRqAoOu8KGXLv+sBCLrxaXs+bu4LQMANSN/1c3EtAMFW/c8M+75eBkCwfTvLxr/v1AIQajMybf18DgCB1iPb3t+PARBog7MB2NgZgDCblHH7/68BEGYNGQEMAyDIarP+AZB7AQiyA7ICeByAIOudFcAsACobwGwAKvk0QLE4HYAg65AVwAQAwuz1jACuBSDMpmQEcDoAYXZptvk37glAmPXMBuCvEQCB9nQmAIMACLWzs8x/eUcAQq1mYQYAqX/sEYD8dnr6/Bt2AyDgHkgFcEoEQMDtnXZNwKgIgKA7cnXi/B+pASDwjv9PwvyfyrJbDAD57pi3m5z/lI4RAOFX92QTp4CHVkUAVELVg1fGXQZydMaHA5D/9hmx8zYRL36nKgKggtrtu5O2/xio/+UxhewPBSCQqg775iXXXn/VD/p33bXHAVDhAQAAAAAAAAAAAAAAAAAAAAAAAAAAAAAAAAAAAAAAAAAAAAAAAIAAEAACQAAIAAEgAASAABAAAkAACAABIAAEgAAQAAJAAAgAASAABIAAEAACQAAIAAEgAASAAFDwAE44TS3Q8bkFkOWPniu1eQAAAAAAAAAAAAAAAAAAAAAAAAAAAAAAAAAAAAAAAAAAAAAAAAAAAAAAAAAAAAAAUI4AXvqiEpoXPIDxLs9OaiIAAAAAAAAAAAAAAAAAAAAAAAAAAAAAAAAAAAAAAAAAAAAAAAAAAAAAAAAAAAAAAAAAAAAAAAAAAAAAAAAAAAAAAAAAAAAAAAAAAAAAAAAAAAAAAAAAAAAAAAAAAAAAAAAAlB2AzgPvnV2/MKDqZ43/ficAMgKoHf7vEHd8XTW0PQBZAOz/91A3/X2hDoB0AN0bwt32ecm+AKQBqH4m5I2/Z1QBkPKYC4pBNxCAlB8ADWEDWFQAILHjioH3ZQASuzJ0AEMASOyO0AHcCkBiE0IHcBcAid0aOoDRACQ2OHQA5wGQWK/QAfQEILlZYc//SSeCUh5zStgA+gKQ9qA7Q57/bX4ZlAqgw+Phzv+R9gCkXw9QOy7Yf//pV4QA8FEnPR3k57++Gd46ANv6/Pm/unt8QN09+ryemd44ABUeAAAAAAAAAAAAAAAAAAAAAAAAAAAAAAAAAAAAAAAAAAAAAAAAAAAAAAAAAAAAAAB8ZgCbY24d2tYAulz0x/lvvJmDFky5uGtuAAyPee710Qcxt97QtgB2v2ltjq72XjeqU04A3BTz3Cuj12JuvbNNAfRckLML/hcdkg8AcZtvLI6eirn12bYE0OPN3H3l4+2DcgHgxZjnnh7FfQ9rwx5tB6DdnBx+6WduuxwA2Ksx5rnHROfHvaFBbQfg4lx+7WtIDgD8MH7SveNufqVDWwGofj2XAJbVlD2A3eM+7W3ZsKTwRtzt4wptBKBPTr/52b/cARTuiXvZS7bcc0vsG5rQuW0AXJVTAMPLHMCev4992Tdtuesr8e/o3WsOK7QBgLzuDXBPOQMo9LpuefzLPuqje19q6k2teGbKfROb0+pdB5DXjSL/0IoAVjVrCPc9+Ox7Tb3qWVuPeW5JVyoFwJicAhjbigBar7O3/c+7oYwAXJhTAJflEcDC6m0HPaeMAByaUwC98wjgjP8dtOq58gEQ5XN7oFlRDgHM/PhT/hc2lg+AfrkEMCCHANb32n7Ya8oHQHRbDuc/LsohgJ988gTszJIddnLaErSfmrv5P1bbYgBK9+b/ssMfMOtWst/Bpv+qud2vczb/37RvsflHJftd6Gtddjzwl9aU6MDzM6zCcXnaLfaJE1rykrBFJXrVq4/c+cgnry/NkV/JtA77nzvy9t+Wf7ePHHhAy14U+mppprD2xE8f+uvrSnLoelf+JvVKaeZ/atyx+5fkb3Y/b8hJzS3FDFb2iT/4UaU4J/wnQ07q0RKMYEmTpy27TCuD8wCV3e9afwIP7dX04asu+RCANq3VTwStuTD5Mo+eUwEIGcCDPVJfwoDnAQgVwHP9Ml1ANODhTQCEB6Dxof6ZL/LrPuSpjQCEBGDDzEv327VXske/K+6Y9vzL85rTOgBaAsC6Zg3h5dl/HvujEzu1ybuxP0CLAJiX23cDAAAAAAAAAAAAAAAAAAAAAACGDIAASG6/K6YtXb4ioJYvmTpkXwAyAug8ZkMxwNaP7gRAFgCHLy0G2uJDAEgHcPA7xWB760AA0gC0f6kYcHNqAEh5zOXFoLsIgOSH1CwLG8BrVQAk1q8YeF8FILGrQwfwYwASGxc6gNsASGxC6ADuAiCxW0IHMAqAxC4IHcAgAJLPA4YO4HMAJDcj7Pk/6kRQymOOD3r+m48FIO1Bo0MGMNIvg1IB1EwKd/73VwOQfj1A9cjNYY5/0/Wp8wdga0c/2Bje+DdOPirDWwdgW13OuPrmUQF189Bv7Z3pjQNQ4QEAAAAAAAAAAAAAAAAAAAAAAAAAAAAAAAAAAAAAAAAAAAAAAAAAAAAAAAAAAAAAAAAAAAAAAAAAAAAAAAAAAAAAAAAAAAAAAAAAAAAAAAAAAAAAAAAAAAAAAAAAAAAAAABASQEUhymhYvgAtKsBAAAAAAAAAAAAAAAAAAAAAAAAAAAAAAAAAAAAAAAAAAAAAAAAAAAAAAAAAACUQ/Mb1QL9ozVn9F+WlS8+JmqUmgAAAABJRU5ErkJggg==;" vertex="1" parent="1">
          <mxGeometry x="90" y="653" width="52" height="52" as="geometry" />
        </mxCell>
        <mxCell id="AwzTjOcbdcqCAVqEX9hw-20" value="" style="shape=image;verticalLabelPosition=bottom;labelBackgroundColor=#ffffff;verticalAlign=top;aspect=fixed;imageAspect=0;image=data:image/png,iVBORw0KGgoAAAANSUhEUgAAAQAAAAEACAQAAAD2e2DtAAAbpUlEQVR42u2debwcRbXHv909IXsiQYGwKBAgCAghEpBNMIGwvwgBAvJE9ifmKSCLkMiiREQ+QtAADwlI0MTIng+EsCggsu8QQUHCEsImJOFm4ebe6emp90dVV1fPzL137kz3ZJb61YcPcG/fXqp+dc6pc06dAgsLCwsLCwsLCwsLCwsLCwsLCwsLCwsLCwsLCwsLCwsLCwsLCwsLCwsLCwsLCwsLCwsLC4v6hoNHBrfL37tk8Lr5vUWDwiWDU0CFfgxisGqD6Ffwe7olikXDwJzP/dmeSUzhOubzDItZRhsrWEEby1jMMyzgRqYyiVEMMKjj2U5s1FkfDt0A9uIC5rGEHKKMFvAh87mQvRlYgkYWDTHvpUAfxARuZElscLP45MgREJBXLSAgRw6fLIFx9RJmMZEh2n6waIjBlxjDVXro82Tx9YDLnxS36OcBPln1E8H7zGBMwd0t6nrwD+NBPePDgY8PbpZcbPBzZJVsyBtXB/habfyVwy0J6nuJJ/X0RJ5Vc9kc+vic7r7F5YX8W/mXz3OUsi8c2+H1hQwA+/AEAkEOPzb0kV5fzWvcxZX8hFM5hH1VO4RT+QlXcievsNqwFyQNpDQIZcHjfMvKgXqb+w4wnNlq8HOGYA8F+HLu5XzGs34PA+eyPuM5n3tYqv6y1P1ms5F+rkVd6P2TWIYgUIMlFYAU2x9zExMZFiOMRwYPD1c1T/3EHNBhHMbv+Virk9BIzBEgWMbJVg7Ui+hfj9sQCK3jo+F6lONZz7i2HN3txPyGwziOvylZEJEgi0BwO+tp5WOx1sy+PVmCUHo+j1AzVHArexouIaeCu0funz25RVkFOfWUAB/BEvayJuHaG36AHxTNfYFgnrFud6p8Sijkd+auknJgsvE2FjWDnJtXKDNNzko5+C9zgLrCTfBp8l7jeVmRIJQ2AsF0440sajj75xoCX87HHBfgJTz4cRJ4XEDOkDlSKcy1UqDWw5/h7qJhWMjXU7bM5Z1H83KMej6Cu8lYCtSSALMQdKrhl4J4JpkybXKnaNHnlFgGdrfuyDDTeHKeTgSzLAFqN/xbKS0c6eHJZcx9p6wkj+LkkdJyYLJhf0gLZEtLgVqZf99AKF+9j6Cdg3pcjEWzex224XDO4dfM5R4WsIB7mMuvOYfD2Ya+RdZ/1wvQg2hXaihPgGBXawrWzv3zb4TyzrexS7eiPxrKzTmVObyplm+lWpZ3+BOnMaKMRWQG2IU2FXkQ/Nu6hGopA3bjQwSCN9ih2+GXgz+Y7/EAn8fSQrL4KjXEVwHiKGS0hgc5nsE9kCAD7MAbCAQfsrud/7W1A9bl2xxM/240v/z5+lzEYu3MNdNC8lp/x7MFfJ0PdDEbdGtbeEB/DuEw1rX6f204grp2wEjB35fz+FQPfTwtJKfmfZgIEsRSQUIaLGUK/buxMHp6D4sUpYDXw9zfn38pzR5F9XMFWX+F6aBZI54YKBK8wYE9yAHPzv76MhGhL9eomR8Y6V1hRlA7rzOfm7mUC7mQS5nFfF6nXWcERblEgTIZr2UdG/lrnOHfmldKxO5kpOByJrBJiaHMsAkTuJxXtL0Qjy++wkhLgfqHB4xjRYkI4TKuZteYpnbJqBb/6a7MUPlA8cjfCvazur7+TcMjC+J1Mn/nImXPd6exTatiAy5gaUyKSBpNshSo7+E/oESA+HqGq6F3y7yPpMGGXF8i+HugpUA94zmEMtuk6H+P8UrD985Od5S2H89iQxVkETxnO7l+MZil2uzLIVjAsCqygqQvYV3u1aokj2Cp8hBa1CUeQbBGBYqv1auC6tYUcI0K+q5B8Ijt5Hq2AXbhM7WMm6Z/Vv1d4RJ1Vxl6sjZAHVNgc6bwC8YpIZ4E5F3GMo0pbG6Hv/4pQBlz342t/t0eU0Wsz79h4BS5dkqZdqXRnbko3UbW59/gCAf/65zBDSzgYR5mATM5XSWU2s1eTS0bHGAop6vs/sJN4S9zBkPtps/mtg5O1FVDwnygMCcoTAI50Wr6Zh3+wdyh/Hm5WHKImSsgENzBIEuBZhP+MJyFOpFUGGVhsgYhwgTPhQy3KV7NhieMrSR5LfKjFoV+OxE8aTusucT/Xgg9z6UM6ORRrmAK53MFj9IZ2+aRQ6iN3xZNQoD9NAGyCHyms1Xsmi25Al9v88ghGG8J0EwWwGCWKAoIXme0XvNnyOiV/2heV0VgBB+oBaFF08iA3XkXgeA+VdjFLbgiAwzjfgSC96wCaEYp0J+x3W4glz/dmXEMtLO/OaVARIauaVJ4tUVTkcBN5BoLCwsLiyZRCFbot7BR2J/+1uhr1eEfyWwWs5jZjLQUaL3h35E2HQhqYwdLgVaD3EEQENhs/1aDA3yZ9lhCyBq+bL1/rUSAr5KNESDLVy0BWgl9eEclgcjkkHfoYzultYzAU1VVIFkx6BRrBLYezmQlAsFKzrSd0ZrYkIM5mA1tR7SuIij8L4sWWw/YGn8WFs0i0Gu1d7e8cwcs1oo+d2ow/NZuqENdDntzMeulTgEH+BIX26zhepv9e5FH8FBNnvcwgoA9LQXqCY8iaEdwaOqnhh2K4HMEf7OdXj/ifzPWIOhEcGmqBZ0zwKXqSWv4ig0f1YsC2ENF9AQzUxXMLnCDelKePawSqB8LIKzpe3uqs9IB7tA1iK0hWDcE2F2Xhk7fDHxYl4+2x0TVDQG+off9v5RylS+Pl3QdAXtOYN0QYAyBGpZ36Zfq0/qxWD0pYGdLgHohwGg1JII2hqZqAQylTT0px2hLgHohwCh8NSztKSZ3OsBXWKOe5LOjJUC9EOBrZPWwjEptWFxgJy1rsmxv/QD1AAfYVhEgj+BbqRJgrDpRUNDJtpYA9UKAbejUCZ6Hp+YM9oCJ+jmdjLQE6HqueDUlwFZ06PJOJ6dKgJN1qakOtqwpARooc8kp+Hf6T9uCNfp0v3NSiwZkgHP1iYRr2Lym30ijyBsH2IHj6V+jF5bBoHZNgEtTJcAvNQHaaxYMkgWuvsd2jUABB9iIjxA8W4P0jPCJmyoC+Aj+L1Uj8DpdVPZzNqnZ9w3jGQTvs2H9UyAD/K+KmM+pyTpZUu5zTYA/p+oHuMUgQG0KSrvAbNWjk+v/9OIM8CtVljngazWggANsyGptBD6Y6tMe1EbgajaoAQFcYDsCVcL6V41BgAsQZPHVC3s1IMCXWKUJ8Fyq+QDPawKs4os1IICn7A6fLIIL658AHnCwXiu/y8Aa6ciV2kGziL6pPasvb2mH00rWrYkKGMDb+uTSQxrjTKOhfKgPbz069VeWIZqIAMtSPNp1MMs1AVYwpCbT6Sg9/B81RgFrF/iDOpNHsKAmrzyYNlXuQfA5G6fyTAfYWNcVEbTV4AxhB7hX9+UfGyP45AFHa03ps10NXnuQMTPTCtJEQadQ0gyqwVTaVj0xh+CYxlAADrA+yxAE+Moxk/ZrD+RTTYC0cvVc4JvqUJkAwSep2zceMA2BT4BgOes3ki/wDv3ibzMg9ScO5GNFgADBhFQo5wETjKd8XIPv6s8iPZHubJzQkwecpJRADsGRqcuAAcrslM87PjUCnKC+KkDwQcoE8IAjjF48uXFONZVl2FZr39z81LnbnyWKAD6CM1NZLWeAHys/YIDgPVVkNs1evFv7HVc3Xhm7B/TLyxJsaRqC/XhXESCL4OepEeASFQoKELyTavqpq7McJKkfoKHgAacrAvgIpqUsvvrytk7UEsxITQVcrZ4QIHgrRYeTfNrPjR48vf59gIXia6Tir/TOpSsu+/KmoQLmpOYH+JOhAv7NOql+Uz/9TQ2bffS4YcJMTFUGrMPrOllbOp/SwX16T4DgXymWlvSAw4zee5yGgwdMMUTY3akyuA//NAjwVGrh4KcNAryWIgEcYJ7Re1MbZwVgGjE76XO5BZ1sk6IhmOEfalgCBK+nJJzX4Q3jKQtT08kOsLXKcpQ9uFNj7kBweFGJMV/Z5l5q8uZlY26m5aML/Y1p70L0gIvV/JdPasjcYw/4Rcxo6pfis17UWzbTSdWQaSefqyfkELyQ4pzsq2RNvmbO9JSUwB66JHsOwWGpfYjLcwYBpLpJngDbqnWNfNKzKc3L0OWc06XsG7gaUR9lnUsmz0sxW+9pgwBp7NwP6RwR4KkUJ86dhuR8I+XlZspK4CpdlV/QwdapUeBJTYA8goMTlzUecIi+f3pLMwfYUu1ykNPmN42pAMJOG6+VgI/gotQ+5jFNgByC/06FAN/VWQ45BH9Prc8u1JMmQLB/4xJAWs6LjaXTG6m5T/+mCeAj+GHijtMM8CMd3cileMxUH/5l9NjiGmRVpmwIzozxeUJKfH5IEyCd7NmMWpplNQH+mtL8P1RZTZLKNzR2DYLQpRl90J0pfdBf1LDIYM1VqaiA36i7i9T2H7jA7bEJc3hjKwAHWJf/aAoI2lPaU3t/TAXcnMoq4A8xFXBfKr21hU47DRD8h2GNvgXdBebqwmo+ggtS4fQCLQHCyEPyuEdXCMypNJfk5eVUTTIfwdzGL0ITt57Ti6LFB+exVL7lidRJluG12Grmu42tAEKxNlxn7edT2d8Sxc6EItmrKZAsijjKJ92VsHCO9lTl9c6D4c1QgyTKbQuVwG0JCzZH+85CAnyYQgLKAD6KESDporQucGtMAdzTHCVoPOD72rKVe3e2SPTTHOA2TQC5cXO9xJ/wRbUBNSTArYk/YXOVSBuumL7f+Aog+rT22KdNSfTTHODPMQJ0sFXiwxNG6IVhoDmJTpPzY9OkPeFpspbxkDagcgheS9RNE2XrhQQI2CVRNeMCu6pAU0iA2YnbAK/G+uhhmgYecJbB7gDBQQnKABf4o0GAvPKgJ0uAA/S9ReK+Bg840DAAfQRnN4cCCGfodsoIDD/vlgS7zwVmGQQIEt+W7gHfMXYf+ghuSvgL5sYUgN8YJaF6g6djAdvVbJbYB7rAjQYBfASnJRoNyACTtYUuEvbSyxrEq2LB5qdpKsSDnHKIzktsjkYhJ6HDQVMTJ8BPdShIPul3iRHAU/UH/ZoEztcKZE1/EeP4PxK1Aa7TBJABm18nrgKu0KEgkXg5OpeFMfkoGNN8lci92EcGCA5IaJA84Bo9PHIG3Zi4EXiToQKyCK5O8O33N8JlQaKTo66UwOUFYi6pUIcHzCggwJ2J+wHmFRAgqVQtF5hT0DOXN5cCCD9zH70OyCt/XTLFVsPcw1BA51I51vFRvUqXT5qeyCDJOqcrC3pmn+Y8iqKfqncRMf3cRDqxUEPnELySeEbQQh0JSNLK8ICzC3wki1I+92gtKoFrDDEqhykpFXC5QQBZviHZTuzP+wUESKpqp6N3NYXq65rmUwCUCHdKto9P4GMzwGUGAWQVvy8kZgXIvKaV2hEsEqtK7gH7FvXJwc1JAIAhah5FSmB2Atouozahhav0pKv5mycSRJ6GaQkQIHJiR8P/QQ0KUK5FQ3BWgc9+BZtWPVAZVU3DJECSh7q5wM5631EoAX5WNQEcYBNWFMQYZjXvWWRR4dO8IQPOqlrgxVO2w+4clygB9jOGKanUc88oOxXtoDyqeRWATKtYagRVktn8HFUozxvhoCMS68iQuEGMAD9NxAh80TAAAwRLa1KDfK1S4PaYEgjUXPWqJMDUGAFyCE5NlAD/oxNbQwKcXyUBwkPogpgCuL25TyLzgBOLlMAfqhTWGeC8GAGyCH6SWDio9P3PTYAANxcpgBObVwFEZs8qo/iJzH6trr53BjjHGCBppF2WKAEujy0zw4SNTFU9sRGfFfTEqhqdQ7SWKXBfTAmEtT29qgboLMPFlE84XGvucIzuX109UrOSYqQA7mv+oyg94IexD5flVqqdoWcUDdBtifoBbi+6/4+qljDPGwZgtKvZa24CmOd85g1DsJoTfzMGqaJoQLK7dx8yQkFysKo5wSseGhO6gMZWrXIY7d+LuD+rSgJMLiJAkkWcPF4qIsBpVRLg90Vy8O+0BDxlU/uxVftnbFQx+82tJ1E46O0Ei1GExahFIstMuV1uecyzkGySXF3DBXYkiCmBUKd6FRPgFGOdLhSlkvOpD1W7G00CnFTV+5p2UJgJtGPzOoGL8YIhUoU67y8570KAoD2BKAP69IP2WMwuh+CEqubrs0Xf/zwtA09V3vcNIyhAsEeFXeoB31NH1MiWI08nOyQyo6TEypInp+/vV7F12wN21+I/codd0hoKIOzS3Y0kKF8J77sqHDAPOF7PpqiNS4wA+5a4+3EVDlhYBzBPzvACCnZrJQUQ1sLK6VTuNh5nWoVWtRTSx3BkrE1KaHe99NlNKrj70VUc4eIxjSdo0ynmOQT/TLH2eJ0qgekIVXp1PscynFbDhhzL3aq0bVIppg1FgHEIBHMZFROOlc9Tr6gl+8aFrRrZEn3pKOZqdeW11gwYwoMcqgfPaTkJ4OApIhzK/c2bBta9bgXXmA0OHpkWaCbdw+9vvQkQE4VOq4m/mMB3aXGEXbEVR3EWF3JRU7dzOY7ti0jQsnBwgYFM5ik6S6y2m7PleJJjFQUcO/eP4C3tw/fJNn0LXcDPsHdry4EM0J/faXdI3nANN+O8zxstdIFdzaDWlAMuDjBGlUbNGckRzd9CkksH+JuMbT1TULp8z1an/eaNTRet0kISyETTS41eaQkHCGzIfJ0K2WqDHyeBlANPMVLLxRYw+w7lYxW+jadF52N2QL6H7uvN9aXun8wcrqyJ2H9lEXzOyc1vEmYAl+l67sc70McnIE+AHwuUdq1Ds/osEl/H17u6OtCGZo6smneVy55w9uYqGv449aPemMPQZt4Z6ADb8zyCwDD78jonrrD5JQYpGvzeXB+UuD6IVeWqbPirkSCBsd08ese32as5TULJ6tPoiJl94adLY/BezuEw9mUCZ3KnKi8dxAYpPvwPM5Uj2I9DmMwcPtPJVYXXy6vf53pO4SD24xim8VyMMr0nQJjGdSxjGcfYsts4xrIv56gtsqVNwinNZxJ6wDBuLTL78rob5vLVgr/ZguuLhjSvU6nuZ0zB9cP5lR4Y0yrwEazkrKJ423iVl1gZBWQWY+Vneo5RBC8tVe5no+bxDkhhNo7FBWafOfwnKSWRwcPFI6P+aiIdhrCMhmpqF9d/k09jR8jK4f8nWysaZnBxda6Aw+9iZ/T2RgLkEBwD9MPtdfNYR9cdLGWt+Ag+YUJzmIRSkE1TWzbzRQI6rws7u0XEyQDjjaEP83HPLhk/dOgD7MgKgzI5BG/yJaBP0WySb3adlkm9VQGCb1asq6OSFqXvLIlxJV5jqwIZ6BnBY3rOmDMtnJ+Xxz7Si8XL+6giajlDnM+NrZdlBoF5/SQj41YQMEb9PCRVRlNHDt4zhszoHQH2Lgho99wcgwA/K0mASBUECJ5n28b1Dshu/i4rurDPw6NRB+l0CKdEpoBZRk1uoN5M/7bU9a7efSxF6W8Nerkl33HvCtzQSUiArggQNwnbObUxVUEGGMhNsRV/4Wf6CC7WA+QAA/g+V3EGw3TXmvv+whrAnr7e5Timcx6b6uvNw1cFvppB6FMLfsYVSruif/por5d0cQI4wFHcwHR+2037DdcySl3dPQFEzIAVzGFIY1FAdvhuvKFFWb6kg0Yg2NXoxPV5Uf1uESOMn49QpmCAYKLqCgfoxwPq+qWxI2KGKD+jWXXfBY7QwzwzRtTzYvsKe08AT1U/67kdo67umQCRd8BH8FYjeQckU88vafYVKoClenHmAtcj6CDLGgTzDBHfhzfVHO1gpPq5pyr4d5KlA8GLsXd4GEGHUSTCAYbxKYIOOskhmKTuEZavzFdJgBkI2rvNAug0TgIuhwCF3oGfNoYq8ICN1czs3tMmj5OPVtJ9edMombQ8tm5/XK/nzbN0HzFsgyxbq984wC0I1iD4herscJhz6lopA1z1zy6GV65SAlzb43w25Vd5BCj0DvyFTeudAi5wIEu7NPsKCbDIIEB4apbsqo8ZaOjppxQBVsWKqN2vZEyAoEMfQROeIrgGwS91/EHuQ5CriU6j2r8LfKPXzqBiAlyj3qXrVkiAi8siQNw7sIwD61kRhLt0o8r9PXXiCj2grpoTOZUrY57H0Y/31Czw2cFQASfrHXaCe2Nv8pRSAebJXuvwOgJfGVbfMgZvorFTv1ICXI2gg1yXzSdbIQGi52W108yr1+GfVIbojzN7X2OIMsxRv5vPYIMYo5SIziE4Pvb5V6rrn9blJRxgA9rUW7waW/PvxCLVkWdoOeIV1BmulAA3lvV3R1dIgLgqmFSPFHCB7egoe/hDoTYjtgyE3TiRfYz/zwAXGcvAeQUicBQnsL8eenn9CYbrKNpyLrOPv81xjCgg7j8SWAbuzg84kZO6badqNdV7ApgU6GC7+lQEj6pPKteiDnSxaNcIGGMMvwusywex4OkYg/+F10sivKQVhqy86RU5glxjEfgdgy714QjqngLZVM5DSUD8Hx0r+VBeJ0bFUSNPnlewX8j01ucQPFng+TOjCGHRWN+oP3ak4QqmyCG7Hu/FArOVEsAlk5AruOe8Yr8+S0o/3mufehjcuaRk/Fv+/5nG0jCkzO/V750CEjqqqLMwIgGCVexSItjkqOXhI1UEg/ausQQwMxEeqzf9v1OXHr+es/oEM7Seltsnw26dFhvOKB54C4P1MJrX/yiWaxN21kq+HQsdhTNxM56sMC1VvsUPgL4VbA7tg6tPIas0GylgVP3YAZnY4dCi1xSQJ+UdxQDjnv34L541coLM63MI3uUUvhB7h7H8xRj+fIHlPIfRBekjU2irIis5QLBE5RlUgmOrSkfzEfy4fkLF8dO7RQUUkH/5LrO5iLO4kJvVgq3YnWTGyz/iNn7OWUxlJq+qBWi+REpYoHT8M8zgPM7mMu5VBVoqHf68dmVfwemc0cv2Y/5Uhp+ku5ZEjfWE8VisTl9l+bWlkjZLRRFLp3nmS2b6dp106legtArfofqk8sr+tu7qimZ4tdfetNKJ21n1T9CNK7mS68N08HB7ZrV7A0IKZPF73bJlOMpFj3GFhfWUK1QdAYq3epTrSurN9fmC65PY2SOq2hZS+XPrjgDhIrA1t3jVfktZnS0Eo+OP7eDUpvkI/lhfy8BzEHTqUqq2pds6qz6yJnEJMNrOyxq30fUWEFrAKj7iP7al3j5iFQvqMR9gEANtq0kb1CrFJCwsLCwsLCyaC25ZWymbp1RKeV/bIoXiHOAyFvECL3fTXmIhzzbBSboOsDHPspCXuv3eF1jEZa1RNTw8iLWcNqIpCDCizK+9o3UIMLuHbRTyOKXVbNEUBNic1eporK5bB4I5rUOAW8oMeTSHBNiizDDZra1DgBsRLGdFN62NVXyiN1I09tduxiesoq3b712usp1bpGh0P4YwuIzmNAnly/nWIfSzy0MLCwsLCwsLCwsLCwsLCwsLCwsLCwsLCwsLCwsLCwsLCwsLCwsLCwsLCwsLCwsLCwsLCwsLizLw/x7k3nSdch2iAAAAAElFTkSuQmCC;" vertex="1" parent="1">
          <mxGeometry x="403" y="653" width="76" height="76" as="geometry" />
        </mxCell>
        <mxCell id="AwzTjOcbdcqCAVqEX9hw-27" value="" style="endArrow=none;html=1;" edge="1" parent="1">
          <mxGeometry width="50" height="50" relative="1" as="geometry">
            <mxPoint x="320" y="809" as="sourcePoint" />
            <mxPoint x="410" y="729" as="targetPoint" />
          </mxGeometry>
        </mxCell>
        <mxCell id="AwzTjOcbdcqCAVqEX9hw-28" value="" style="endArrow=none;html=1;entryX=0;entryY=0.75;entryDx=0;entryDy=0;" edge="1" parent="1" target="AwzTjOcbdcqCAVqEX9hw-20">
          <mxGeometry width="50" height="50" relative="1" as="geometry">
            <mxPoint x="310" y="691" as="sourcePoint" />
            <mxPoint x="380" y="680" as="targetPoint" />
          </mxGeometry>
        </mxCell>
        <mxCell id="AwzTjOcbdcqCAVqEX9hw-29" value="" style="endArrow=none;html=1;" edge="1" parent="1">
          <mxGeometry width="50" height="50" relative="1" as="geometry">
            <mxPoint x="150" y="678.5" as="sourcePoint" />
            <mxPoint x="230" y="678.5" as="targetPoint" />
          </mxGeometry>
        </mxCell>
        <mxCell id="AwzTjOcbdcqCAVqEX9hw-30" value="" style="endArrow=none;dashed=1;html=1;dashPattern=1 3;strokeWidth=2;" edge="1" parent="1" source="AwzTjOcbdcqCAVqEX9hw-11" target="AwzTjOcbdcqCAVqEX9hw-20">
          <mxGeometry width="50" height="50" relative="1" as="geometry">
            <mxPoint x="340" y="630" as="sourcePoint" />
            <mxPoint x="390" y="580" as="targetPoint" />
          </mxGeometry>
        </mxCell>
        <mxCell id="AwzTjOcbdcqCAVqEX9hw-31" value="" style="endArrow=none;dashed=1;html=1;dashPattern=1 3;strokeWidth=2;" edge="1" parent="1" target="AwzTjOcbdcqCAVqEX9hw-12">
          <mxGeometry width="50" height="50" relative="1" as="geometry">
            <mxPoint x="442" y="640" as="sourcePoint" />
            <mxPoint x="483" y="550" as="targetPoint" />
          </mxGeometry>
        </mxCell>
        <mxCell id="AwzTjOcbdcqCAVqEX9hw-32" value="" style="endArrow=none;dashed=1;html=1;dashPattern=1 3;strokeWidth=2;exitX=0.75;exitY=0;exitDx=0;exitDy=0;" edge="1" parent="1" source="AwzTjOcbdcqCAVqEX9hw-20">
          <mxGeometry width="50" height="50" relative="1" as="geometry">
            <mxPoint x="500" y="630" as="sourcePoint" />
            <mxPoint x="570" y="570" as="targetPoint" />
          </mxGeometry>
        </mxCell>
        <mxCell id="AwzTjOcbdcqCAVqEX9hw-33" value="" style="endArrow=none;dashed=1;html=1;dashPattern=1 3;strokeWidth=2;entryX=0;entryY=0.5;entryDx=0;entryDy=0;" edge="1" parent="1" target="AwzTjOcbdcqCAVqEX9hw-14">
          <mxGeometry width="50" height="50" relative="1" as="geometry">
            <mxPoint x="480" y="685" as="sourcePoint" />
            <mxPoint x="530" y="635" as="targetPoint" />
          </mxGeometry>
        </mxCell>
        <mxCell id="AwzTjOcbdcqCAVqEX9hw-34" value="" style="endArrow=none;html=1;" edge="1" parent="1">
          <mxGeometry width="50" height="50" relative="1" as="geometry">
            <mxPoint x="527.34" y="770" as="sourcePoint" />
            <mxPoint x="467.34" y="720" as="targetPoint" />
          </mxGeometry>
        </mxCell>
        <mxCell id="AwzTjOcbdcqCAVqEX9hw-35" value="PC" style="text;html=1;strokeColor=none;fillColor=none;align=center;verticalAlign=middle;whiteSpace=wrap;rounded=0;" vertex="1" parent="1">
          <mxGeometry x="251" y="710" width="40" height="20" as="geometry" />
        </mxCell>
        <mxCell id="AwzTjOcbdcqCAVqEX9hw-36" value="Laptop" style="text;html=1;strokeColor=none;fillColor=none;align=center;verticalAlign=middle;whiteSpace=wrap;rounded=0;" vertex="1" parent="1">
          <mxGeometry x="260" y="490" width="40" height="20" as="geometry" />
        </mxCell>
        <mxCell id="AwzTjOcbdcqCAVqEX9hw-37" value="Laptop" style="text;html=1;strokeColor=none;fillColor=none;align=center;verticalAlign=middle;whiteSpace=wrap;rounded=0;" vertex="1" parent="1">
          <mxGeometry x="425" y="450" width="40" height="20" as="geometry" />
        </mxCell>
        <mxCell id="AwzTjOcbdcqCAVqEX9hw-38" value="Tablet" style="text;html=1;strokeColor=none;fillColor=none;align=center;verticalAlign=middle;whiteSpace=wrap;rounded=0;" vertex="1" parent="1">
          <mxGeometry x="564.67" y="490" width="40" height="20" as="geometry" />
        </mxCell>
        <mxCell id="AwzTjOcbdcqCAVqEX9hw-40" value="Android Phone" style="text;html=1;strokeColor=none;fillColor=none;align=center;verticalAlign=middle;whiteSpace=wrap;rounded=0;" vertex="1" parent="1">
          <mxGeometry x="592" y="600" width="40" height="20" as="geometry" />
        </mxCell>
        <mxCell id="AwzTjOcbdcqCAVqEX9hw-41" value="Printer" style="text;html=1;strokeColor=none;fillColor=none;align=center;verticalAlign=middle;whiteSpace=wrap;rounded=0;" vertex="1" parent="1">
          <mxGeometry x="96" y="710" width="40" height="20" as="geometry" />
        </mxCell>
      </root>
    </mxGraphModel>
  </diagram>
</mxfile>
